SplineFontDB: 3.0
FontName: Verdandi-Modern-BoldItalic
FullName: Verdandi Modern Bold Italic
FamilyName: Verdandi Modern
Weight: Bold
Copyright: Copyright \\\\050URW\\\\051++,Copyright 1999 by \\\\050URW\\\\051++ Design & Development; Cyrillic glyphs added by Valek Filippov \\\\050C\\\\051 2001-2002
Version: 1.100
ItalicAngle: -15
UnderlinePosition: -48
UnderlineWidth: 54
Ascent: 860
Descent: 140
sfntRevision: 0x0001199a
LayerCount: 2
Layer: 0 0 "Back"  1
Layer: 1 0 "Fore"  0
XUID: [1021 64 7236 23426]
FSType: 4
OS2Version: 4
OS2_WeightWidthSlopeOnly: 0
OS2_UseTypoMetrics: 1
CreationTime: 1286379186
ModificationTime: 1405409821
PfmFamily: 17
TTFWeight: 700
TTFWidth: 5
LineGap: 0
VLineGap: 0
Panose: 0 0 8 0 0 0 0 0 0 0
OS2TypoAscent: 860
OS2TypoAOffset: 0
OS2TypoDescent: -140
OS2TypoDOffset: 0
OS2TypoLinegap: 0
OS2WinAscent: 1080
OS2WinAOffset: 0
OS2WinDescent: 420
OS2WinDOffset: 0
HheadAscent: 860
HheadAOffset: 0
HheadDescent: -140
HheadDOffset: 0
OS2Vendor: 'UKWN'
OS2CodePages: 20000097.00000000
OS2UnicodeRanges: 00000287.00000000.00000000.00000000
Lookup: 4 0 1 "'liga' Standard Ligatures lookup 1"  {"'liga' Standard Ligatures lookup 1-1"  } ['liga' ('DFLT' <'dflt' > 'cyrl' <'dflt' > 'grek' <'dflt' > 'latn' <'dflt' > ) ]
Lookup: 4 0 1 "CCMP"  {"CCMP"  } ['ccmp' ('DFLT' <'dflt' > 'cyrl' <'dflt' > 'grek' <'dflt' > 'latn' <'dflt' > ) ]
Lookup: 260 0 0 "'mark' Mark Positioning lookup 1"  {"Major marks"  } ['mark' ('DFLT' <'dflt' > 'cyrl' <'dflt' > 'grek' <'dflt' > 'latn' <'dflt' > ) ]
Lookup: 258 0 0 "'kern' Horizontal Kerning in Latin lookup 0"  {"'kern' Horizontal Kerning in Latin lookup 0 subtable"  } ['kern' ('DFLT' <'dflt' > 'latn' <'dflt' > ) ]
MarkAttachClasses: 1
DEI: 91125
LangName: 1033 "" "" "Bold Italic" "" "" "Version 1.001;PS 1.06;hotconv 1.0.50;makeotf.lib2.0.16970 DEVELOPMENT" "" "Please refer to the Copyright section for the font trademark attribution notices." 
GaspTable: 1 65535 11 1
Encoding: UnicodeBmp
UnicodeInterp: none

StartChar: .notdef
Encoding: 65536 -1 0
Width: 596
Flags: MW
LayerCount: 2
Fore
SplineSet
96 0 m 1
 96 700 l 1
 596 700 l 1
 596 0 l 1
 96 0 l 1
346 395 m 1
 516 650 l 1
 176 650 l 1
 346 395 l 1
376 350 m 1
 546 95 l 1
 546 605 l 1
 376 350 l 1
176 50 m 1
 516 50 l 1
 346 305 l 1
 176 50 l 1
146 605 m 1
 146 95 l 1
 316 350 l 1
 146 605 l 1
EndSplineSet
EndChar

StartChar: exclam
Encoding: 33 33 2
Width: 333
Flags: HMW
LayerCount: 2
Fore
SplineSet
152 203 m 1
 100 216 l 1
 130 351 147 468 151 567 c 0
 155 657 158 677 175 702 c 0
 190 724 213 737 238 737 c 0
 296 737 336 704 336 657 c 0
 336 625 336 625 281 514 c 0
 221 394 197 335 152 203 c 1
EndSplineSet
Refer: 367 803 S 1 0 0 1 -9 0 2
EndChar

StartChar: numbersign
Encoding: 35 35 4
Width: 574
Flags: MW
LayerCount: 2
Fore
SplineSet
135 221 m 1
 41 221 l 1
 41 304 l 1
 147 304 l 1
 163 412 l 1
 67 412 l 1
 67 495 l 1
 174 495 l 1
 204 700 l 1
 294 700 l 1
 264 495 l 1
 350 495 l 1
 379 700 l 1
 469 700 l 1
 440 495 l 1
 533 495 l 1
 533 412 l 1
 428 412 l 1
 413 304 l 1
 507 304 l 1
 507 221 l 1
 401 221 l 1
 369 0 l 1
 279 0 l 1
 311 221 l 1
 225 221 l 1
 193 0 l 1
 103 0 l 1
 135 221 l 1
253 412 m 1
 237 304 l 1
 322 304 l 1
 338 412 l 1
 253 412 l 1
EndSplineSet
EndChar

StartChar: dollar
Encoding: 36 36 5
Width: 574
Flags: MW
LayerCount: 2
Fore
SplineSet
333 414 m 1
 359 402 l 1
 448 359 500 289 500 212 c 0
 500 124 439 39 351 6 c 0
 322 -5 263 -15 227 -15 c 2
 218 -15 l 1
 183 -145 l 1
 129 -145 l 1
 166 -9 l 1
 66 10 3 72 3 151 c 0
 3 211 39 251 93 251 c 0
 137 251 169 222 169 181 c 0
 169 153 155 132 127 118 c 0
 107 107 102 102 102 91 c 0
 102 71 130 52 179 40 c 1
 245 285 l 1
 231 292 l 1
 141 334 96 395 96 475 c 0
 96 606 197 694 346 694 c 2
 354 694 l 1
 381 794 l 1
 435 794 l 1
 407 688 l 1
 502 671 559 612 559 532 c 0
 559 479 526 443 476 443 c 0
 433 443 404 472 404 515 c 0
 404 547 417 565 450 579 c 0
 459 583 463 587 463 594 c 0
 463 613 433 632 394 640 c 1
 333 414 l 1
293 263 m 1
 231 34 l 1
 319 36 381 85 381 153 c 0
 381 202 357 231 293 263 c 1
286 438 m 1
 341 644 l 1
 257 641 208 599 208 533 c 0
 208 490 232 461 286 438 c 1
EndSplineSet
EndChar

StartChar: percent
Encoding: 37 37 6
Width: 889
Flags: MW
LayerCount: 2
Fore
SplineSet
676 722 m 1
 262 0 l 1
 210 0 l 1
 562 615 l 1
 519 601 496 597 464 597 c 0
 442 597 427 599 401 606 c 1
 403 589 404 579 404 569 c 0
 404 515 374 441 333 392 c 0
 288 339 241 315 184 315 c 0
 107 315 51 369 51 443 c 0
 51 512 97 603 157 655 c 0
 197 689 243 708 287 708 c 0
 327 708 354 694 380 660 c 1
 408 646 433 640 467 640 c 0
 537 640 586 665 629 722 c 1
 676 722 l 1
300 658 m 1
 263 645 251 633 215 569 c 0
 170 491 155 452 155 418 c 0
 155 386 176 364 206 364 c 0
 282 364 364 477 364 582 c 0
 364 595 362 606 358 619 c 1
 332 629 318 638 300 658 c 1
714 407 m 0
 785 407 836 355 836 283 c 0
 836 223 806 147 760 89 c 0
 722 41 669 14 616 14 c 0
 538 14 481 67 481 140 c 0
 481 197 508 266 550 319 c 1
 597 376 654 407 714 407 c 0
737 356 m 0
 709 356 684 334 655 287 c 0
 603 201 583 153 583 115 c 0
 583 86 605 63 633 63 c 0
 710 63 794 177 794 280 c 0
 794 322 769 356 737 356 c 0
EndSplineSet
EndChar

StartChar: ampersand
Encoding: 38 38 7
Width: 889
Flags: MW
LayerCount: 2
Fore
SplineSet
823 397 m 1
 817 346 l 1
 746 340 727 325 633 203 c 0
 624 190 601 166 569 134 c 1
 614 80 633 67 663 67 c 0
 694 67 728 94 767 150 c 1
 806 120 l 1
 748 30 675 -15 589 -15 c 0
 531 -15 477 7 439 48 c 1
 380 6 318 -15 248 -15 c 0
 119 -15 31 63 31 179 c 0
 31 251 69 320 130 359 c 0
 169 385 198 398 270 425 c 1
 258 471 255 495 255 528 c 0
 255 598 272 645 312 682 c 0
 353 721 399 737 472 737 c 0
 584 737 654 684 654 599 c 0
 654 540 619 496 543 461 c 0
 517 448 492 440 439 425 c 1
 456 355 501 248 541 182 c 1
 606 249 626 277 626 304 c 0
 626 315 618 328 608 334 c 0
 597 341 584 343 541 346 c 1
 547 397 l 1
 823 397 l 1
425 477 m 1
 499 506 540 553 540 612 c 0
 540 655 515 685 479 685 c 0
 436 685 410 644 410 575 c 0
 410 543 414 515 425 477 c 1
283 372 m 1
 227 346 199 302 199 240 c 0
 199 143 257 69 334 69 c 0
 360 69 377 74 406 90 c 1
 353 175 315 263 283 372 c 1
EndSplineSet
EndChar

StartChar: quotesingle
Encoding: 39 39 8
Width: 287
Flags: MW
LayerCount: 2
Fore
SplineSet
146 397 m 1
 100 410 l 1
 121 646 l 2
 126 703 152 734 195 734 c 0
 237 734 269 703 269 663 c 0
 269 647 264 629 253 609 c 2
 146 397 l 1
EndSplineSet
EndChar

StartChar: parenleft
Encoding: 40 40 9
Width: 407
Flags: MW
LayerCount: 2
Fore
SplineSet
436 737 m 1
 452 705 l 1
 359 651 308 592 263 489 c 0
 219 387 185 225 185 117 c 0
 185 38 207 -33 251 -96 c 1
 221 -118 l 1
 125 -21 71 108 71 238 c 0
 71 449 221 653 436 737 c 1
EndSplineSet
EndChar

StartChar: parenright
Encoding: 41 41 10
Width: 407
Flags: MW
LayerCount: 2
Fore
SplineSet
-54 -118 m 1
 -70 -86 l 1
 21 -33 71 26 116 130 c 0
 160 234 194 395 194 502 c 0
 194 581 172 652 128 715 c 1
 158 737 l 1
 254 640 308 511 308 381 c 0
 308 171 158 -36 -54 -118 c 1
EndSplineSet
EndChar

StartChar: asterisk
Encoding: 42 42 11
Width: 500
Flags: MW
LayerCount: 2
Fore
SplineSet
278 510 m 1
 290 498 l 2
 321 468 321 468 374 451 c 0
 407 440 426 419 426 392 c 0
 426 365 404 343 377 343 c 0
 360 343 344 352 332 367 c 0
 324 377 323 379 310 419 c 0
 302 444 295 455 272 479 c 2
 259 492 l 1
 254 474 l 2
 249 456 247 442 247 430 c 0
 247 421 247 420 256 378 c 0
 258 371 259 363 259 356 c 0
 259 324 235 297 206 297 c 0
 180 297 160 319 160 347 c 0
 160 369 165 378 197 417 c 0
 214 437 219 448 228 481 c 2
 233 499 l 1
 216 494 l 2
 175 482 174 481 134 444 c 1
 117 430 100 422 83 422 c 0
 55 422 32 443 32 470 c 0
 32 498 59 521 93 521 c 0
 103 521 103 521 138 515 c 0
 148 513 156 512 162 512 c 0
 174 512 190 515 209 520 c 2
 226 524 l 1
 214 537 l 1
 183 566 181 567 130 583 c 0
 97 594 78 616 78 643 c 0
 78 669 98 690 123 690 c 0
 141 690 158 681 170 665 c 0
 178 654 179 652 193 615 c 0
 202 590 208 581 232 556 c 2
 245 543 l 1
 250 560 l 2
 255 578 257 593 257 604 c 0
 257 614 257 615 248 656 c 0
 246 664 245 672 245 679 c 0
 245 710 269 737 298 737 c 0
 325 737 347 714 347 686 c 0
 347 663 342 655 308 617 c 0
 290 597 285 586 275 553 c 1
 271 536 l 1
 288 541 l 2
 328 553 329 553 370 590 c 0
 387 605 403 612 421 612 c 0
 449 612 472 590 472 563 c 0
 472 534 446 511 413 511 c 0
 402 511 402 511 366 518 c 0
 355 521 345 522 339 522 c 0
 326 522 313 520 295 515 c 2
 278 510 l 1
EndSplineSet
EndChar

StartChar: plus
Encoding: 43 43 12
Width: 606
Flags: MW
LayerCount: 2
Fore
SplineSet
236 195 m 1
 41 195 l 1
 41 310 l 1
 236 310 l 1
 236 505 l 1
 351 505 l 1
 351 310 l 1
 545 310 l 1
 545 195 l 1
 351 195 l 1
 351 0 l 1
 236 0 l 1
 236 195 l 1
EndSplineSet
EndChar

StartChar: comma
Encoding: 44 44 13
Width: 287
Flags: MW
LayerCount: 2
Fore
SplineSet
-27 -187 m 1
 -48 -146 l 1
 42 -105 86 -60 86 -9 c 1
 76 -11 70 -11 62 -11 c 0
 13 -11 -16 18 -16 68 c 0
 -16 121 23 159 78 159 c 0
 139 159 180 112 180 43 c 0
 180 -54 107 -134 -27 -187 c 1
EndSplineSet
EndChar

StartChar: hyphen
Encoding: 45 45 14
Width: 333
Flags: MW
LayerCount: 2
Fore
SplineSet
45 310 m 1
 272 310 l 1
 237 180 l 1
 10 180 l 1
 45 310 l 1
EndSplineSet
EndChar

StartChar: period
Encoding: 46 46 15
Width: 287
Flags: MW
LayerCount: 2
Fore
SplineSet
99 159 m 0
 147 159 186 120 186 72 c 0
 186 24 147 -15 98 -15 c 0
 51 -15 12 25 12 72 c 0
 12 120 51 159 99 159 c 0
EndSplineSet
EndChar

StartChar: slash
Encoding: 47 47 16
Width: 278
Flags: MW
LayerCount: 2
Fore
SplineSet
237 737 m 1
 311 737 l 1
 49 -15 l 1
 -25 -15 l 1
 237 737 l 1
EndSplineSet
EndChar

StartChar: zero
Encoding: 48 48 17
Width: 574
Flags: MW
LayerCount: 2
Fore
SplineSet
358 705 m 0
 477 705 553 606 553 452 c 0
 553 202 398 -15 221 -15 c 0
 100 -15 21 84 21 236 c 0
 21 352 62 480 127 568 c 0
 195 660 272 705 358 705 c 0
353 656 m 0
 306 656 265 593 230 469 c 0
 197 350 166 176 166 107 c 0
 166 63 188 36 223 36 c 0
 270 36 301 81 340 209 c 0
 375 323 406 495 406 572 c 0
 406 625 386 656 353 656 c 0
EndSplineSet
EndChar

StartChar: one
Encoding: 49 49 18
Width: 574
Flags: MW
LayerCount: 2
Fore
SplineSet
489 707 m 1
 338 144 l 2
 330 112 325 90 325 81 c 0
 325 59 339 54 404 54 c 2
 454 54 l 1
 447 0 l 1
 25 0 l 1
 33 54 l 1
 84 54 l 2
 126 54 150 58 160 68 c 0
 168 75 168 75 187 144 c 2
 287 521 l 2
 294 544 295 550 295 559 c 0
 295 579 284 585 250 585 c 2
 160 585 l 1
 173 635 l 1
 274 639 403 673 448 707 c 1
 489 707 l 1
EndSplineSet
EndChar

StartChar: two
Encoding: 50 50 19
Width: 574
Flags: MW
LayerCount: 2
Fore
SplineSet
458 249 m 1
 501 234 l 1
 416 0 l 1
 -40 0 l 1
 -40 6 l 2
 -40 48 7 103 135 214 c 0
 233 299 285 349 314 386 c 0
 352 433 374 489 374 537 c 0
 374 600 329 644 265 644 c 0
 212 644 159 609 159 574 c 0
 159 559 165 554 198 539 c 0
 234 523 250 501 250 467 c 0
 250 419 217 386 169 386 c 0
 112 386 71 432 71 496 c 0
 71 616 177 705 322 705 c 0
 384 705 442 687 478 657 c 0
 514 626 538 574 538 523 c 0
 538 455 496 385 417 324 c 0
 398 309 398 309 225 205 c 1
 169 170 140 150 125 135 c 1
 321 135 l 2
 389 135 407 148 448 230 c 1
 458 249 l 1
EndSplineSet
EndChar

StartChar: three
Encoding: 51 51 20
Width: 574
Flags: MW
LayerCount: 2
Fore
SplineSet
344 361 m 1
 393 348 410 341 430 328 c 0
 464 305 488 257 488 210 c 0
 488 81 370 -15 210 -15 c 0
 78 -15 -5 47 -5 148 c 0
 -5 208 32 249 86 249 c 0
 134 249 167 217 167 172 c 0
 167 137 148 112 115 102 c 0
 98 96 95 93 95 82 c 0
 95 59 139 35 180 35 c 0
 223 35 264 59 286 96 c 0
 310 136 324 192 324 245 c 0
 324 306 300 339 257 339 c 0
 248 339 248 339 226 333 c 0
 218 330 210 329 203 329 c 0
 181 329 168 342 168 363 c 0
 168 384 181 398 201 398 c 0
 209 398 215 397 227 392 c 0
 241 387 248 386 259 386 c 0
 288 386 309 396 330 421 c 1
 364 459 382 507 382 555 c 0
 382 616 350 652 295 652 c 0
 254 652 212 632 212 612 c 0
 212 608 214 605 219 600 c 0
 253 573 262 559 262 532 c 0
 262 492 228 461 185 461 c 0
 137 461 103 497 103 548 c 0
 103 636 201 705 325 705 c 0
 451 705 538 639 538 545 c 0
 538 474 493 414 416 382 c 0
 397 374 385 370 358 364 c 0
 354 363 349 362 344 361 c 1
EndSplineSet
EndChar

StartChar: four
Encoding: 52 52 21
Width: 574
Flags: MW
LayerCount: 2
Fore
SplineSet
535 250 m 1
 524 184 l 1
 404 184 l 1
 393 144 l 2
 384 111 380 90 380 81 c 0
 380 59 394 54 459 54 c 2
 477 54 l 1
 470 0 l 1
 107 0 l 1
 114 54 l 1
 139 54 l 2
 181 54 205 58 215 68 c 0
 223 76 223 76 242 144 c 1
 252 184 l 1
 -13 184 l 1
 -13 239 l 1
 449 707 l 1
 544 707 l 1
 422 250 l 1
 535 250 l 1
270 250 m 1
 344 525 l 1
 77 250 l 1
 270 250 l 1
EndSplineSet
EndChar

StartChar: five
Encoding: 53 53 22
Width: 574
Flags: MW
LayerCount: 2
Fore
SplineSet
105 388 m 1
 197 705 l 1
 277 686 351 676 417 676 c 0
 472 676 507 683 557 702 c 0
 563 704 565 705 567 705 c 0
 571 705 573 702 573 697 c 0
 573 666 546 616 515 589 c 0
 473 553 418 537 338 537 c 0
 295 537 286 538 223 551 c 2
 213 553 l 1
 175 424 l 1
 226 443 263 451 308 451 c 0
 430 451 510 379 510 268 c 0
 510 106 381 -15 206 -15 c 0
 80 -15 0 46 0 142 c 0
 0 203 37 244 92 244 c 0
 140 244 172 214 172 169 c 0
 172 130 152 103 113 91 c 0
 105 88 101 84 101 79 c 0
 101 56 140 36 184 36 c 0
 274 36 345 134 345 256 c 0
 345 338 307 387 244 387 c 0
 218 387 200 382 152 361 c 1
 147 323 128 303 99 303 c 0
 80 303 66 318 66 338 c 0
 66 360 79 376 105 388 c 1
EndSplineSet
EndChar

StartChar: six
Encoding: 54 54 23
Width: 574
Flags: MW
LayerCount: 2
Fore
SplineSet
225 390 m 1
 263 421 292 431 338 431 c 0
 444 431 520 357 520 253 c 0
 520 107 394 -15 243 -15 c 0
 112 -15 30 79 30 230 c 0
 30 346 73 472 145 565 c 0
 217 659 303 705 405 705 c 0
 502 705 573 653 573 581 c 0
 573 531 538 496 488 496 c 0
 443 496 410 526 410 568 c 0
 410 586 416 601 432 620 c 0
 438 627 440 631 440 636 c 0
 440 646 425 654 404 654 c 0
 362 654 314 614 283 552 c 0
 260 505 249 473 225 390 c 1
294 371 m 0
 227 371 181 276 181 138 c 0
 181 69 204 31 245 31 c 0
 279 31 308 55 326 97 c 1
 346 147 358 212 358 270 c 0
 358 334 335 371 294 371 c 0
EndSplineSet
EndChar

StartChar: seven
Encoding: 55 55 24
Width: 574
Flags: MW
LayerCount: 2
Fore
SplineSet
592 705 m 1
 593 667 l 1
 409 354 367 260 339 106 c 0
 330 60 326 46 314 27 c 0
 298 1 268 -15 233 -15 c 0
 180 -15 144 18 144 66 c 0
 144 114 163 151 240 258 c 0
 272 302 349 403 470 559 c 1
 258 559 l 2
 196 559 166 537 126 462 c 2
 110 432 l 1
 64 448 l 1
 167 705 l 1
 249 696 288 694 355 694 c 0
 426 694 482 697 592 705 c 1
EndSplineSet
EndChar

StartChar: eight
Encoding: 56 56 25
Width: 574
Flags: MW
LayerCount: 2
Fore
SplineSet
406 382 m 1
 469 341 505 278 505 206 c 0
 505 76 389 -15 224 -15 c 0
 90 -15 0 51 0 148 c 0
 0 200 28 252 74 287 c 0
 100 307 130 323 172 339 c 1
 119 384 98 427 98 488 c 0
 98 615 202 705 349 705 c 0
 469 705 551 641 551 546 c 0
 551 471 505 419 406 382 c 1
365 410 m 1
 370 413 370 414 375 418 c 0
 419 451 440 491 440 543 c 0
 440 613 399 655 333 655 c 0
 266 655 219 611 219 550 c 0
 219 507 236 483 287 452 c 0
 292 449 318 435 365 410 c 1
211 306 m 1
 204 302 202 301 200 300 c 0
 152 270 121 212 121 153 c 0
 121 81 171 33 245 33 c 0
 318 33 375 83 375 148 c 0
 375 189 354 222 310 252 c 0
 289 266 289 266 232 295 c 0
 229 297 222 301 211 306 c 1
EndSplineSet
EndChar

StartChar: nine
Encoding: 57 57 26
Width: 574
Flags: MW
LayerCount: 2
Fore
SplineSet
349 300 m 1
 310 269 282 259 236 259 c 0
 130 259 54 333 54 437 c 0
 54 583 180 705 331 705 c 0
 462 705 544 611 544 460 c 0
 544 344 501 218 429 125 c 0
 357 31 271 -15 169 -15 c 0
 72 -15 1 37 1 109 c 0
 1 159 36 194 86 194 c 0
 131 194 164 164 164 122 c 0
 164 104 158 89 142 70 c 0
 136 63 134 59 134 54 c 0
 134 44 149 36 170 36 c 0
 212 36 260 76 291 138 c 0
 314 185 326 217 349 300 c 1
329 659 m 0
 295 659 266 635 248 593 c 1
 229 544 216 478 216 420 c 0
 216 356 239 319 280 319 c 0
 319 319 348 346 368 399 c 0
 383 437 393 500 393 552 c 0
 393 621 370 659 329 659 c 0
EndSplineSet
EndChar

StartChar: less
Encoding: 60 60 29
Width: 606
Flags: MW
LayerCount: 2
Fore
SplineSet
523 404 m 1
 195 253 l 1
 523 100 l 1
 523 -25 l 1
 14 207 l 1
 14 297 l 1
 523 529 l 1
 523 404 l 1
EndSplineSet
EndChar

StartChar: greater
Encoding: 62 62 31
Width: 606
Flags: MW
LayerCount: 2
Fore
SplineSet
38 404 m 1
 38 529 l 1
 547 297 l 1
 547 207 l 1
 38 -25 l 1
 38 100 l 1
 366 253 l 1
 38 404 l 1
EndSplineSet
EndChar

StartChar: question
Encoding: 63 63 32
Width: 481
Flags: MW
LayerCount: 2
Fore
SplineSet
325 335 m 1
 374 323 l 1
 353 255 299 212 233 212 c 0
 165 212 112 265 112 332 c 0
 112 410 165 482 264 538 c 0
 329 575 346 594 346 625 c 0
 346 663 317 689 273 689 c 0
 207 689 147 618 147 539 c 0
 147 535 148 530 149 520 c 1
 101 520 l 1
 100 532 99 542 99 546 c 0
 99 586 115 633 142 668 c 1
 174 712 226 737 285 737 c 0
 381 737 452 672 452 582 c 0
 452 499 404 441 281 376 c 0
 218 343 205 330 205 304 c 0
 205 278 223 262 251 262 c 0
 284 262 307 285 325 335 c 1
EndSplineSet
Refer: 367 803 S 1 0 0 1 67 0 2
EndChar

StartChar: at
Encoding: 64 64 33
Width: 747
Flags: MW
LayerCount: 2
Fore
SplineSet
643 190 m 1
 712 190 l 1
 697 153 680 130 648 98 c 0
 572 21 487 -15 386 -15 c 0
 184 -15 22 152 22 362 c 0
 22 570 185 737 388 737 c 0
 574 737 722 599 722 425 c 0
 722 281 605 147 479 147 c 0
 433 147 402 170 402 204 c 0
 402 207 403 213 404 220 c 1
 377 169 341 145 291 145 c 0
 216 145 159 210 159 294 c 0
 159 358 185 431 227 489 c 0
 267 543 325 574 384 574 c 0
 427 574 453 560 477 522 c 1
 489 556 l 1
 593 556 l 1
 501 268 l 2
 497 253 494 240 494 231 c 0
 494 216 502 208 518 208 c 0
 537 208 560 219 582 238 c 0
 631 280 657 343 657 418 c 0
 657 568 544 676 387 676 c 0
 215 676 87 543 87 366 c 0
 87 185 218 46 388 46 c 0
 495 46 586 97 643 190 c 1
404 523 m 0
 373 523 345 499 317 449 c 0
 282 387 260 312 260 256 c 0
 260 217 277 196 307 196 c 0
 339 196 368 225 392 280 c 0
 419 343 452 452 452 477 c 0
 452 502 430 523 404 523 c 0
EndSplineSet
EndChar

StartChar: A
Encoding: 65 65 34
Width: 741
Flags: MW
LayerCount: 2
Fore
SplineSet
481 736 m 1
 612 114 l 2
 622 67 641 54 702 54 c 2
 716 54 l 1
 709 0 l 1
 335 0 l 1
 342 54 l 1
 358 54 l 2
 399 54 410 55 424 62 c 0
 434 66 441 76 441 85 c 0
 441 92 440 103 437 117 c 2
 417 220 l 1
 185 220 l 1
 139 139 l 2
 130 124 125 108 125 96 c 0
 125 67 150 54 206 54 c 2
 219 54 l 1
 211 0 l 1
 -75 0 l 1
 -68 54 l 1
 -62 54 l 2
 -18 54 33 93 71 157 c 2
 419 736 l 1
 481 736 l 1
404 274 m 1
 358 515 l 1
 217 274 l 1
 404 274 l 1
EndSplineSet
EndChar

StartChar: B
Encoding: 66 66 35
Width: 759
Flags: MW
LayerCount: 2
Fore
SplineSet
104 722 m 1
 456 722 l 2
 538 722 605 710 643 687 c 0
 692 658 720 609 720 551 c 0
 720 451 637 385 489 368 c 1
 620 345 683 289 683 195 c 0
 683 124 643 62 578 36 c 0
 523 13 446 0 368 0 c 2
 -50 0 l 1
 -43 54 l 1
 -39 54 l 2
 3 54 27 58 38 68 c 0
 46 76 46 76 64 144 c 2
 181 578 l 2
 190 611 194 632 194 641 c 0
 194 663 180 668 115 668 c 2
 96 668 l 1
 104 722 l 1
308 397 m 1
 339 397 l 2
 410 397 438 403 468 423 c 0
 511 452 537 507 537 567 c 0
 537 632 502 668 440 668 c 2
 425 668 l 2
 389 668 378 657 365 608 c 2
 308 397 l 1
294 343 m 1
 235 122 l 2
 229 101 227 91 227 84 c 0
 227 63 244 54 280 54 c 2
 313 54 l 2
 365 54 408 67 436 91 c 0
 471 120 492 175 492 233 c 0
 492 276 480 304 455 322 c 0
 430 339 411 343 344 343 c 2
 294 343 l 1
EndSplineSet
EndChar

StartChar: C
Encoding: 67 67 36
Width: 759
Flags: MW
LayerCount: 2
Fore
SplineSet
759 712 m 1
 701 426 l 1
 652 432 l 1
 647 603 594 684 487 684 c 0
 421 684 361 646 320 576 c 1
 261 479 225 349 225 238 c 0
 225 121 291 48 397 48 c 0
 488 48 579 116 616 212 c 1
 679 212 l 1
 663 161 633 112 591 70 c 0
 536 15 458 -15 368 -15 c 0
 274 -15 178 18 122 71 c 0
 67 123 35 204 35 292 c 0
 35 531 238 737 473 737 c 0
 552 737 611 711 657 655 c 1
 713 712 l 1
 759 712 l 1
EndSplineSet
EndChar

StartChar: D
Encoding: 68 68 37
Width: 833
Flags: MW
LayerCount: 2
Fore
SplineSet
-49 0 m 1
 -42 54 l 1
 -38 54 l 2
 4 54 28 58 39 68 c 0
 47 76 47 76 66 144 c 2
 182 578 l 2
 191 612 195 632 195 641 c 0
 195 663 181 668 116 668 c 2
 98 668 l 1
 105 722 l 1
 463 722 l 2
 572 722 633 707 691 666 c 0
 760 618 796 540 796 437 c 0
 796 305 740 180 645 100 c 0
 559 28 459 0 285 0 c 2
 -49 0 l 1
281 54 m 2
 310 54 l 2
 396 54 467 91 515 162 c 0
 570 244 610 388 610 501 c 0
 610 610 558 668 461 668 c 2
 439 668 l 2
 393 668 379 655 365 605 c 2
 237 127 l 1
 229 91 228 88 228 81 c 0
 228 61 243 54 281 54 c 2
EndSplineSet
EndChar

StartChar: E
Encoding: 69 69 38
Width: 741
Flags: MW
LayerCount: 2
Fore
SplineSet
728 722 m 1
 688 477 l 1
 636 477 l 1
 635 540 629 577 615 604 c 1
 595 646 548 668 478 668 c 2
 440 668 l 2
 399 668 388 659 377 620 c 2
 318 401 l 1
 339 401 l 2
 426 401 471 434 505 523 c 1
 558 516 l 1
 468 181 l 1
 415 188 l 1
 419 218 420 232 420 250 c 0
 420 315 389 347 326 347 c 2
 304 347 l 1
 241 111 l 2
 237 98 235 85 235 79 c 0
 235 61 251 54 289 54 c 2
 325 54 l 2
 405 54 463 79 528 141 c 0
 566 177 593 213 616 259 c 1
 668 248 l 1
 602 0 l 1
 -41 0 l 1
 -34 54 l 1
 -30 54 l 2
 39 54 51 60 62 102 c 2
 73 144 l 1
 190 578 l 2
 199 613 203 632 203 641 c 0
 203 663 189 668 124 668 c 2
 105 668 l 1
 113 722 l 1
 728 722 l 1
EndSplineSet
EndChar

StartChar: F
Encoding: 70 70 39
Width: 704
Flags: MW
LayerCount: 2
Fore
SplineSet
726 722 m 1
 686 477 l 1
 634 477 l 1
 633 540 627 577 613 604 c 1
 593 646 546 668 476 668 c 2
 440 668 l 2
 399 668 388 659 377 620 c 2
 318 401 l 1
 339 401 l 2
 426 401 471 434 505 523 c 1
 558 516 l 1
 468 181 l 1
 415 189 l 1
 419 218 420 232 420 250 c 0
 420 315 389 347 326 347 c 2
 304 347 l 1
 250 144 l 2
 240 108 236 90 236 81 c 0
 236 59 250 54 315 54 c 2
 342 54 l 1
 334 0 l 1
 -41 0 l 1
 -34 54 l 1
 -30 54 l 2
 39 54 51 60 62 102 c 2
 73 144 l 1
 190 578 l 2
 199 613 203 632 203 641 c 0
 203 663 189 668 124 668 c 2
 105 668 l 1
 113 722 l 1
 726 722 l 1
EndSplineSet
EndChar

StartChar: G
Encoding: 71 71 40
Width: 815
Flags: MW
LayerCount: 2
Fore
SplineSet
775 715 m 1
 718 432 l 1
 667 439 l 1
 666 492 659 533 644 576 c 0
 619 646 569 683 498 683 c 0
 419 683 352 632 298 531 c 0
 253 447 222 322 222 229 c 0
 222 181 232 133 248 103 c 0
 269 64 315 37 363 37 c 0
 426 37 480 81 504 152 c 0
 514 182 528 241 528 255 c 0
 528 278 516 282 451 282 c 2
 423 282 l 1
 430 336 l 1
 802 336 l 1
 795 282 l 1
 785 282 l 2
 716 282 704 276 694 234 c 0
 690 220 686 205 682 192 c 2
 627 -14 l 1
 579 -14 l 1
 560 81 l 1
 506 16 438 -15 347 -15 c 0
 277 -15 207 6 149 44 c 0
 77 92 34 182 34 284 c 0
 34 529 241 737 485 737 c 0
 568 737 616 716 670 657 c 1
 730 715 l 1
 775 715 l 1
EndSplineSet
EndChar

StartChar: H
Encoding: 72 72 41
Width: 870
Flags: MW
LayerCount: 2
Fore
SplineSet
558 340 m 1
 302 340 l 1
 250 144 l 2
 240 110 236 89 236 81 c 0
 236 59 250 54 315 54 c 2
 326 54 l 1
 318 0 l 1
 -41 0 l 1
 -34 54 l 1
 -30 54 l 2
 39 54 51 60 62 102 c 0
 65 114 70 130 73 144 c 2
 190 578 l 2
 199 612 203 632 203 641 c 0
 203 663 189 668 124 668 c 2
 105 668 l 1
 113 722 l 1
 488 722 l 1
 481 668 l 1
 469 668 l 2
 427 668 403 664 393 654 c 1
 384 647 384 647 366 578 c 2
 318 401 l 1
 574 401 l 1
 621 578 l 2
 631 613 635 632 635 641 c 0
 635 663 621 668 556 668 c 2
 545 668 l 1
 553 722 l 1
 912 722 l 1
 905 668 l 1
 901 668 l 2
 859 668 835 664 824 654 c 0
 816 647 816 647 798 578 c 2
 681 144 l 2
 673 112 668 90 668 81 c 0
 668 59 682 54 747 54 c 2
 769 54 l 1
 762 0 l 1
 383 0 l 1
 390 54 l 1
 402 54 l 2
 444 54 468 58 478 68 c 0
 487 76 487 76 505 144 c 2
 558 340 l 1
EndSplineSet
EndChar

StartChar: I
Encoding: 73 73 42
Width: 444
Flags: MW
LayerCount: 2
Fore
SplineSet
332 0 m 1
 -41 0 l 1
 -34 54 l 1
 -27 54 l 2
 15 54 39 58 49 68 c 0
 58 76 58 76 76 144 c 2
 192 578 l 2
 202 612 206 632 206 641 c 0
 206 663 192 668 127 668 c 2
 105 668 l 1
 113 722 l 1
 486 722 l 1
 479 668 l 1
 472 668 l 2
 430 668 406 664 396 654 c 1
 387 647 387 647 369 578 c 2
 253 144 l 2
 239 89 239 89 239 81 c 0
 239 59 253 54 318 54 c 2
 340 54 l 1
 332 0 l 1
EndSplineSet
EndChar

StartChar: J
Encoding: 74 74 43
Width: 667
Flags: MW
LayerCount: 2
Fore
SplineSet
332 668 m 1
 340 722 l 1
 718 722 l 1
 711 668 l 1
 707 668 l 2
 665 668 641 664 630 654 c 0
 622 646 622 646 604 578 c 2
 522 274 l 2
 487 144 487 144 470 113 c 0
 421 24 346 -15 226 -15 c 0
 75 -15 -9 51 -9 169 c 0
 -9 262 46 328 124 328 c 0
 188 328 231 289 231 231 c 0
 231 179 193 138 144 138 c 0
 129 138 115 142 100 151 c 0
 85 159 82 160 77 160 c 0
 65 160 59 151 59 135 c 0
 59 83 108 42 170 42 c 0
 217 42 262 69 290 114 c 0
 312 150 315 158 342 260 c 2
 427 578 l 2
 437 614 441 632 441 641 c 0
 441 663 427 668 362 668 c 2
 332 668 l 1
EndSplineSet
EndChar

StartChar: K
Encoding: 75 75 44
Width: 778
Flags: MW
LayerCount: 2
Fore
SplineSet
305 353 m 1
 572 601 l 2
 593 621 602 633 602 643 c 0
 602 659 587 668 561 668 c 2
 526 668 l 1
 533 722 l 1
 832 722 l 1
 825 668 l 1
 755 664 712 644 653 587 c 1
 491 437 l 1
 634 129 l 2
 666 59 673 54 742 54 c 2
 757 54 l 1
 749 0 l 1
 375 0 l 1
 382 54 l 1
 413 54 l 2
 459 54 473 59 473 76 c 0
 473 84 473 84 462 107 c 2
 360 320 l 1
 276 243 l 1
 250 144 l 1
 240 110 236 90 236 81 c 0
 236 59 250 54 315 54 c 2
 326 54 l 1
 318 0 l 1
 -41 0 l 1
 -34 54 l 1
 -30 54 l 2
 12 54 36 59 47 68 c 1
 55 76 55 76 74 145 c 2
 189 578 l 2
 199 613 203 632 203 641 c 0
 203 663 189 668 124 668 c 2
 105 668 l 1
 113 722 l 1
 488 722 l 1
 481 668 l 1
 469 668 l 2
 427 668 403 664 393 654 c 0
 384 646 384 646 366 578 c 2
 305 353 l 1
EndSplineSet
EndChar

StartChar: L
Encoding: 76 76 45
Width: 704
Flags: MW
LayerCount: 2
Fore
SplineSet
618 266 m 1
 670 255 l 1
 602 0 l 1
 -41 0 l 1
 -34 54 l 1
 -30 54 l 2
 12 54 36 58 47 68 c 0
 55 76 55 76 73 144 c 2
 190 578 l 2
 199 613 203 632 203 641 c 0
 203 663 189 668 124 668 c 2
 105 668 l 1
 113 722 l 1
 495 722 l 1
 487 668 l 1
 469 668 l 2
 427 668 403 664 393 654 c 0
 384 646 384 646 366 578 c 2
 250 144 l 2
 240 109 236 89 236 80 c 0
 236 60 249 54 289 54 c 2
 325 54 l 2
 405 54 463 79 528 141 c 0
 570 180 596 217 618 266 c 1
EndSplineSet
EndChar

StartChar: M
Encoding: 77 77 46
Width: 944
Flags: MW
LayerCount: 2
Fore
SplineSet
406 722 m 1
 441 259 l 1
 719 722 l 1
 988 722 l 1
 981 668 l 1
 977 668 l 2
 935 668 911 664 900 654 c 0
 892 647 892 647 874 578 c 2
 757 144 l 2
 749 112 744 89 744 81 c 0
 744 59 758 54 823 54 c 2
 842 54 l 1
 834 0 l 1
 467 0 l 1
 474 54 l 1
 478 54 l 2
 520 54 544 58 554 68 c 0
 563 76 563 76 581 144 c 2
 693 562 l 1
 356 0 l 1
 293 0 l 1
 254 566 l 1
 160 216 l 1
 140 136 139 129 139 109 c 0
 139 74 168 54 221 54 c 1
 213 0 l 1
 -24 0 l 1
 -17 54 l 1
 38 58 58 89 93 216 c 2
 190 578 l 2
 201 619 204 632 204 641 c 0
 204 663 190 668 125 668 c 2
 106 668 l 1
 113 722 l 1
 406 722 l 1
EndSplineSet
EndChar

StartChar: N
Encoding: 78 78 47
Width: 852
Flags: MW
LayerCount: 2
Fore
SplineSet
350 722 m 1
 618 215 l 1
 696 505 l 2
 717 585 718 591 718 613 c 0
 718 650 688 668 628 668 c 1
 635 722 l 1
 912 722 l 1
 905 668 l 1
 871 668 844 659 824 641 c 0
 796 614 794 611 763 505 c 1
 624 -14 l 1
 544 -14 l 1
 248 552 l 1
 158 217 l 1
 138 137 137 130 137 109 c 0
 137 72 166 54 224 54 c 2
 235 54 l 1
 227 0 l 1
 -57 0 l 1
 -50 54 l 1
 -16 55 11 64 31 81 c 1
 59 107 61 113 91 217 c 1
 204 636 l 1
 192 659 176 668 145 668 c 2
 89 668 l 1
 96 722 l 1
 350 722 l 1
EndSplineSet
EndChar

StartChar: O
Encoding: 79 79 48
Width: 833
Flags: MW
LayerCount: 2
Fore
SplineSet
490 737 m 0
 582 737 655 708 714 646 c 1
 769 590 797 520 797 441 c 0
 797 193 589 -15 342 -15 c 0
 157 -15 36 104 36 286 c 0
 36 406 88 526 176 610 c 0
 267 696 368 737 490 737 c 0
487 683 m 0
 412 683 352 633 300 528 c 0
 251 428 215 287 215 193 c 0
 215 98 264 39 342 39 c 0
 415 39 477 90 533 196 c 1
 582 291 613 415 613 520 c 0
 613 568 605 603 586 631 c 0
 566 662 526 683 487 683 c 0
EndSplineSet
EndChar

StartChar: P
Encoding: 80 80 49
Width: 741
Flags: MW
LayerCount: 2
Fore
SplineSet
297 311 m 1
 252 144 l 2
 240 100 238 90 238 81 c 0
 238 59 252 54 318 54 c 2
 343 54 l 1
 336 0 l 1
 -38 0 l 1
 -31 54 l 1
 -27 54 l 2
 42 54 54 60 65 102 c 2
 76 144 l 1
 192 578 l 2
 204 623 206 632 206 641 c 0
 206 663 192 668 126 668 c 2
 112 668 l 1
 119 722 l 1
 434 722 l 2
 549 722 614 709 659 677 c 0
 706 644 731 593 731 533 c 0
 731 448 686 379 608 345 c 0
 555 321 487 311 377 311 c 2
 297 311 l 1
311 365 m 1
 360 365 l 2
 416 365 459 377 487 400 c 0
 525 431 552 499 552 563 c 0
 552 627 516 668 459 668 c 2
 442 668 l 2
 400 668 390 660 378 615 c 2
 311 365 l 1
EndSplineSet
EndChar

StartChar: Q
Encoding: 81 81 50
Width: 833
Flags: MW
LayerCount: 2
Fore
SplineSet
682 -30 m 1
 724 -52 l 1
 686 -140 621 -186 536 -186 c 0
 473 -186 422 -158 403 -113 c 0
 391 -85 388 -62 388 -12 c 1
 364 -14 345 -15 333 -15 c 0
 257 -15 178 14 126 61 c 0
 67 114 35 192 35 282 c 0
 35 529 240 737 484 737 c 0
 582 737 657 707 717 643 c 0
 770 587 796 520 796 437 c 0
 796 331 758 223 692 141 c 0
 656 97 619 69 560 41 c 1
 567 -33 571 -57 580 -76 c 0
 589 -95 599 -104 612 -104 c 0
 637 -104 662 -77 682 -30 c 1
525 180 m 1
 576 243 614 385 614 512 c 0
 614 567 604 611 585 638 c 0
 565 666 525 685 485 685 c 0
 406 685 340 625 288 506 c 0
 245 406 216 288 216 209 c 0
 216 193 217 179 219 154 c 1
 230 234 282 277 366 277 c 0
 442 277 494 245 525 180 c 1
397 54 m 1
 410 122 410 124 410 149 c 0
 410 188 379 217 338 217 c 0
 292 217 258 177 258 124 c 0
 258 71 292 38 346 38 c 0
 367 38 379 42 397 54 c 1
EndSplineSet
EndChar

StartChar: R
Encoding: 82 82 51
Width: 796
Flags: MW
LayerCount: 2
Fore
SplineSet
304 350 m 1
 249 144 l 2
 241 112 236 90 236 81 c 0
 236 59 250 54 315 54 c 2
 341 54 l 1
 333 0 l 1
 -41 0 l 1
 -34 54 l 1
 -30 54 l 2
 12 54 36 58 46 68 c 0
 55 76 55 76 73 144 c 2
 189 578 l 2
 200 618 203 632 203 641 c 0
 203 663 189 668 124 668 c 2
 105 668 l 1
 112 722 l 1
 459 722 l 2
 557 722 623 712 671 690 c 0
 719 668 751 615 751 555 c 0
 751 441 653 374 464 359 c 1
 515 345 538 331 564 304 c 1
 592 273 603 239 603 181 c 2
 603 147 l 2
 603 81 603 81 610 72 c 0
 615 65 621 61 628 61 c 0
 646 61 668 82 682 114 c 0
 687 125 690 132 699 157 c 1
 742 136 l 1
 708 33 652 -15 567 -15 c 0
 483 -15 424 44 424 127 c 0
 424 148 427 179 431 211 c 0
 434 232 436 254 436 269 c 0
 436 324 403 350 334 350 c 2
 304 350 l 1
319 404 m 1
 353 404 l 2
 443 404 469 409 502 435 c 1
 542 464 567 517 567 570 c 0
 567 633 529 668 459 668 c 2
 434 668 l 2
 398 668 388 661 380 630 c 2
 319 404 l 1
EndSplineSet
EndChar

StartChar: S
Encoding: 83 83 52
Width: 685
Flags: MW
LayerCount: 2
Fore
SplineSet
666 715 m 1
 622 452 l 1
 570 461 l 1
 568 517 561 551 545 584 c 0
 513 647 453 683 380 683 c 0
 294 683 237 640 237 575 c 0
 237 548 248 521 269 503 c 1
 282 490 308 478 349 464 c 0
 423 440 485 414 522 392 c 0
 580 359 612 299 612 224 c 0
 612 83 493 -15 320 -15 c 0
 230 -15 169 8 103 65 c 1
 45 0 l 1
 1 0 l 1
 51 283 l 1
 103 275 l 1
 103 260 l 2
 103 126 187 39 317 39 c 0
 411 39 474 85 474 152 c 0
 474 211 438 239 303 285 c 0
 219 313 189 329 158 359 c 0
 121 394 102 441 102 495 c 0
 102 633 216 737 368 737 c 0
 447 737 507 714 568 661 c 1
 621 715 l 1
 666 715 l 1
EndSplineSet
EndChar

StartChar: T
Encoding: 84 84 53
Width: 722
Flags: MW
LayerCount: 2
Fore
SplineSet
762 722 m 1
 718 439 l 1
 665 444 l 1
 667 467 668 492 668 504 c 0
 668 609 626 668 550 668 c 0
 521 668 519 666 507 623 c 2
 379 144 l 2
 367 100 365 90 365 81 c 0
 365 59 379 54 445 54 c 2
 470 54 l 1
 463 0 l 1
 66 0 l 1
 73 54 l 1
 100 54 l 2
 142 54 166 58 176 68 c 0
 185 76 185 76 203 144 c 2
 333 629 l 2
 336 639 337 648 337 653 c 0
 337 663 327 668 309 668 c 0
 224 668 163 603 94 439 c 1
 44 455 l 1
 115 722 l 1
 762 722 l 1
EndSplineSet
EndChar

StartChar: U
Encoding: 85 85 54
Width: 833
Flags: MW
LayerCount: 2
Fore
SplineSet
95 668 m 1
 102 722 l 1
 478 722 l 1
 470 668 l 1
 458 668 l 2
 416 668 392 664 382 654 c 0
 373 646 373 646 355 578 c 2
 274 274 l 2
 263 234 259 210 259 186 c 0
 259 98 314 47 409 47 c 0
 464 47 506 65 544 106 c 1
 578 140 594 175 615 254 c 2
 682 506 l 2
 703 585 704 592 704 613 c 0
 704 651 675 668 614 668 c 1
 621 722 l 1
 895 722 l 1
 888 668 l 1
 885 668 l 2
 859 668 828 657 810 641 c 0
 782 616 779 609 749 506 c 1
 675 227 l 2
 630 58 537 -15 371 -15 c 0
 301 -15 243 -3 200 19 c 1
 135 54 88 127 88 196 c 0
 88 224 94 261 105 303 c 2
 179 578 l 2
 191 624 193 632 193 641 c 0
 193 663 179 668 113 668 c 2
 95 668 l 1
EndSplineSet
EndChar

StartChar: V
Encoding: 86 86 55
Width: 741
Flags: MW
LayerCount: 2
Fore
SplineSet
384 209 m 1
 591 572 l 2
 604 595 610 614 610 629 c 0
 610 656 589 668 543 668 c 2
 516 668 l 1
 523 722 l 1
 802 722 l 1
 795 668 l 1
 734 659 712 642 662 560 c 1
 324 -14 l 1
 258 -14 l 1
 138 593 l 2
 125 657 114 668 64 668 c 2
 32 668 l 1
 39 722 l 1
 406 722 l 1
 398 668 l 1
 371 668 l 2
 332 668 324 667 314 660 c 0
 308 655 304 648 304 641 c 0
 304 638 306 627 309 611 c 2
 384 209 l 1
EndSplineSet
EndChar

StartChar: W
Encoding: 87 87 56
Width: 944
Flags: MW
LayerCount: 2
Fore
SplineSet
682 276 m 1
 811 586 l 2
 820 607 824 622 824 632 c 0
 824 653 802 668 770 668 c 2
 752 668 l 1
 759 722 l 1
 994 722 l 1
 987 668 l 1
 925 658 899 630 855 524 c 1
 622 -14 l 1
 556 -14 l 1
 488 469 l 1
 266 -14 l 1
 200 -14 l 1
 114 630 l 2
 110 660 97 668 55 668 c 2
 40 668 l 1
 47 722 l 1
 350 722 l 1
 343 668 l 1
 328 668 l 2
 292 668 283 661 283 632 c 1
 284 616 l 1
 328 264 l 1
 476 593 l 1
 473 623 l 2
 469 657 453 668 405 668 c 2
 389 668 l 1
 396 722 l 1
 707 722 l 1
 700 668 l 1
 678 668 l 2
 645 668 632 661 632 642 c 0
 632 630 635 616 635 613 c 2
 682 276 l 1
EndSplineSet
EndChar

StartChar: X
Encoding: 88 88 57
Width: 741
Flags: MW
LayerCount: 2
Fore
SplineSet
453 404 m 1
 585 109 l 2
 605 65 624 54 682 54 c 2
 705 54 l 1
 698 0 l 1
 311 0 l 1
 318 54 l 1
 359 54 l 2
 397 54 409 59 409 76 c 0
 409 84 408 88 399 109 c 2
 326 279 l 1
 191 147 l 2
 170 127 160 109 160 94 c 0
 160 67 182 54 226 54 c 2
 248 54 l 1
 241 0 l 1
 -72 0 l 1
 -65 54 l 1
 -61 54 l 2
 -13 54 25 74 83 129 c 1
 300 342 l 1
 174 622 l 2
 156 661 145 668 100 668 c 2
 63 668 l 1
 71 722 l 1
 445 722 l 1
 438 668 l 1
 405 668 l 2
 364 668 351 663 351 648 c 0
 351 642 354 633 360 619 c 2
 429 468 l 1
 552 590 l 2
 568 605 576 621 576 636 c 0
 576 658 556 668 516 668 c 2
 500 668 l 1
 507 722 l 1
 811 722 l 1
 804 668 l 1
 732 663 710 651 633 577 c 2
 453 404 l 1
EndSplineSet
EndChar

StartChar: Y
Encoding: 89 89 58
Width: 704
Flags: MW
LayerCount: 2
Fore
SplineSet
394 379 m 1
 553 589 l 2
 564 603 570 619 570 632 c 0
 570 655 549 668 513 668 c 2
 477 668 l 1
 485 722 l 1
 777 722 l 1
 770 668 l 1
 707 666 675 644 616 567 c 2
 416 307 l 1
 373 144 l 2
 362 102 359 90 359 81 c 0
 359 59 373 54 439 54 c 2
 464 54 l 1
 457 0 l 1
 68 0 l 1
 75 54 l 1
 94 54 l 2
 136 54 160 58 170 68 c 0
 179 76 179 76 197 144 c 2
 240 307 l 1
 123 611 l 2
 106 656 87 668 38 668 c 2
 15 668 l 1
 22 722 l 1
 388 722 l 1
 381 668 l 1
 338 668 l 2
 304 668 294 663 294 644 c 0
 294 636 296 627 303 610 c 2
 394 379 l 1
EndSplineSet
EndChar

StartChar: Z
Encoding: 90 90 59
Width: 704
Flags: MW
LayerCount: 2
Fore
SplineSet
715 722 m 1
 707 668 l 1
 197 54 l 1
 288 54 l 2
 432 54 522 117 601 273 c 1
 652 260 l 1
 582 0 l 1
 -29 0 l 1
 -21 54 l 1
 486 668 l 1
 407 668 l 2
 278 668 196 612 117 468 c 1
 68 478 l 1
 134 722 l 1
 715 722 l 1
EndSplineSet
EndChar

StartChar: bracketleft
Encoding: 91 91 60
Width: 407
Flags: MW
LayerCount: 2
Fore
SplineSet
432 722 m 1
 420 678 l 1
 302 678 l 1
 103 -64 l 1
 221 -64 l 1
 210 -108 l 1
 -31 -108 l 1
 191 722 l 1
 432 722 l 1
EndSplineSet
EndChar

StartChar: backslash
Encoding: 92 92 61
Width: 606
Flags: MW
LayerCount: 2
Fore
SplineSet
81 722 m 1
 177 722 l 1
 545 0 l 1
 449 0 l 1
 81 722 l 1
EndSplineSet
EndChar

StartChar: bracketright
Encoding: 93 93 62
Width: 407
Flags: MW
LayerCount: 2
Fore
SplineSet
-49 -108 m 1
 -37 -64 l 1
 81 -64 l 1
 280 678 l 1
 162 678 l 1
 173 722 l 1
 414 722 l 1
 192 -108 l 1
 -49 -108 l 1
EndSplineSet
EndChar

StartChar: asciicircum
Encoding: 94 94 63
Width: 606
Flags: MW
LayerCount: 2
Fore
SplineSet
554 318 m 1
 435 318 l 1
 304 568 l 1
 171 318 l 1
 52 318 l 1
 261 722 l 1
 346 722 l 1
 554 318 l 1
EndSplineSet
EndChar

StartChar: underscore
Encoding: 95 95 64
Width: 500
Flags: MW
LayerCount: 2
Fore
SplineSet
0 -75 m 1
 500 -75 l 1
 500 -129 l 1
 0 -129 l 1
 0 -75 l 1
EndSplineSet
EndChar

StartChar: grave
Encoding: 96 96 65
Width: 333
Flags: MW
LayerCount: 2
Fore
SplineSet
294 535 m 1
 245 535 l 1
 104 624 l 2
 84 636 74 652 74 670 c 0
 74 698 96 719 127 719 c 0
 154 719 168 710 192 677 c 2
 294 535 l 1
EndSplineSet
EndChar

StartChar: a
Encoding: 97 97 66
Width: 667
Flags: MW
LayerCount: 2
Fore
SplineSet
440 464 m 1
 597 464 l 1
 499 132 l 1
 489 93 489 93 489 86 c 0
 489 78 496 70 503 70 c 0
 520 70 570 124 607 182 c 1
 646 157 l 1
 629 128 607 97 580 66 c 0
 531 11 486 -15 436 -15 c 0
 396 -15 363 8 354 41 c 0
 351 49 351 51 351 73 c 1
 303 11 257 -14 188 -14 c 0
 87 -14 15 61 15 167 c 0
 15 329 153 479 301 479 c 0
 360 479 402 458 426 416 c 1
 440 464 l 1
333 424 m 0
 292 424 258 393 227 328 c 0
 198 268 178 188 178 135 c 0
 178 87 202 56 239 56 c 0
 278 56 314 89 343 153 c 0
 373 217 395 301 395 351 c 0
 395 394 370 424 333 424 c 0
EndSplineSet
EndChar

StartChar: b
Encoding: 98 98 67
Width: 611
Flags: MW
LayerCount: 2
Fore
SplineSet
351 736 m 1
 260 427 l 1
 305 465 341 479 389 479 c 0
 484 479 557 405 557 307 c 0
 557 223 515 133 446 69 c 0
 386 13 314 -15 232 -15 c 0
 109 -15 28 48 28 145 c 0
 28 177 29 180 50 252 c 2
 147 578 l 2
 160 622 163 634 163 644 c 0
 163 669 151 675 101 675 c 2
 77 675 l 1
 84 722 l 1
 351 736 l 1
330 408 m 0
 291 408 259 378 228 316 c 0
 197 253 171 154 171 104 c 0
 171 59 198 28 237 28 c 0
 276 28 314 67 347 141 c 0
 371 195 394 290 394 333 c 0
 394 376 367 408 330 408 c 0
EndSplineSet
EndChar

StartChar: c
Encoding: 99 99 68
Width: 537
Flags: MW
LayerCount: 2
Fore
SplineSet
406 147 m 1
 442 116 l 1
 370 26 298 -14 210 -14 c 0
 84 -14 3 58 3 171 c 0
 3 338 146 478 316 478 c 0
 420 478 487 427 487 350 c 0
 487 294 453 257 401 257 c 0
 355 257 323 287 323 329 c 0
 323 357 333 373 361 390 c 0
 370 396 373 399 373 406 c 0
 373 421 355 431 331 431 c 0
 289 431 251 401 220 344 c 0
 190 289 168 203 168 141 c 0
 168 86 202 47 250 47 c 0
 298 47 347 78 406 147 c 1
EndSplineSet
EndChar

StartChar: d
Encoding: 100 100 69
Width: 667
Flags: MW
LayerCount: 2
Fore
SplineSet
663 736 m 1
 484 132 l 1
 474 93 474 93 474 85 c 0
 474 77 481 69 488 69 c 0
 506 69 554 121 593 182 c 1
 632 157 l 1
 615 128 593 97 566 66 c 0
 517 11 472 -15 422 -15 c 0
 369 -15 337 15 336 64 c 1
 336 71 l 1
 281 8 239 -14 174 -14 c 0
 72 -14 0 61 0 167 c 0
 0 328 138 478 286 478 c 0
 345 478 386 458 411 416 c 1
 459 578 l 2
 470 615 474 634 474 644 c 0
 474 669 462 675 413 675 c 2
 381 675 l 1
 388 722 l 1
 663 736 l 1
319 423 m 0
 278 423 243 392 213 328 c 0
 184 267 164 188 164 135 c 0
 164 86 187 56 224 56 c 0
 263 56 299 89 329 153 c 0
 358 216 380 300 380 351 c 0
 380 393 355 423 319 423 c 0
EndSplineSet
EndChar

StartChar: e
Encoding: 101 101 70
Width: 519
Flags: MW
LayerCount: 2
Fore
SplineSet
395 126 m 1
 430 91 l 1
 367 20 293 -14 202 -14 c 0
 70 -14 -2 51 -2 171 c 0
 -2 335 146 479 314 479 c 0
 408 479 478 427 478 358 c 0
 478 288 422 238 308 205 c 0
 261 191 218 184 159 181 c 1
 157 155 157 149 157 137 c 0
 157 80 190 45 243 45 c 0
 295 45 335 66 395 126 c 1
168 228 m 1
 201 233 218 237 238 244 c 0
 306 270 356 330 356 385 c 0
 356 414 339 432 312 432 c 0
 250 432 191 350 168 228 c 1
EndSplineSet
EndChar

StartChar: f
Encoding: 102 102 71
Width: 389
Flags: MW
LayerCount: 2
Fore
SplineSet
422 464 m 1
 406 403 l 1
 281 403 l 1
 234 189 l 2
 204 48 168 -83 133 -179 c 1
 -48 -205 l 1
 -20 -161 21 -42 69 133 c 1
 133 403 l 1
 34 403 l 1
 51 464 l 1
 149 464 l 1
 176 561 201 614 241 658 c 0
 291 712 346 737 413 737 c 0
 493 737 550 691 550 627 c 0
 550 581 517 548 472 548 c 0
 433 548 404 576 404 614 c 0
 404 634 408 645 428 671 c 0
 431 674 433 678 433 680 c 0
 433 686 423 690 411 690 c 0
 363 690 341 651 305 505 c 2
 295 464 l 1
 422 464 l 1
EndSplineSet
EndChar

StartChar: g
Encoding: 103 103 72
Width: 630
Flags: HMW
LayerCount: 2
Fore
SplineSet
449 10 m 2
 418.577 -93.1719 419.152 -93.3096 381 -141 c 0
 337 -196 279 -236 121 -236 c 0
 -23 -236 -101 -178 -101 -113 c 0
 -101 -64 -69 -30 -23 -30 c 0
 23 -30 51.0518 -58.0459 51 -105 c 0
 50.9795 -123.686 37.6533 -132.588 34.501 -138.934 c 0
 26.5166 -155.008 50.1709 -163.397 65.168 -168.332 c 0
 84.2139 -174.599 115 -176 125 -176 c 0
 210 -176 248.652 -141.897 284 -23 c 2
 302 46 l 1
 256 3 215 -15 165 -15 c 0
 66 -15 0 60 0 170 c 0
 0 331 138 478 287 478 c 0
 352 478 398 453 425 402 c 1
 513 478 l 1
 587 478 l 1
 449 10 l 2
315 423 m 0
 290 423 263 407 243 381 c 0
 200 323 163 207 163 129 c 0
 163 86 188 55 223 55 c 0
 257 55 290 83 318 137 c 0
 349 198 376 300 376 356 c 0
 376 394 350 423 315 423 c 0
EndSplineSet
EndChar

StartChar: h
Encoding: 104 104 73
Width: 685
Flags: MW
LayerCount: 2
Fore
SplineSet
376 736 m 1
 266 366 l 1
 329 444 388 479 454 479 c 0
 519 479 566 436 566 376 c 0
 566 343 557 307 536 248 c 2
 489 120 l 2
 478 90 478 90 478 82 c 0
 478 74 485 66 492 66 c 0
 510 66 535 91 589 166 c 0
 592 169 595 173 598 177 c 1
 637 152 l 1
 559 32 499 -15 426 -15 c 0
 364 -15 324 20 324 76 c 0
 324 102 327 114 345 163 c 2
 406 332 l 2
 412 348 415 361 415 368 c 0
 415 382 400 395 386 395 c 0
 362 395 329 370 292 325 c 0
 249 273 223 221 195 127 c 2
 157 0 l 1
 0 0 l 1
 171 578 l 2
 184 619 187 634 187 644 c 0
 187 669 175 675 125 675 c 2
 101 675 l 1
 108 722 l 1
 376 736 l 1
EndSplineSet
EndChar

StartChar: i
Encoding: 105 105 74
Width: 389
Flags: HMW
LayerCount: 2
Fore
SplineSet
248 737 m 0
 295 737 333 699 333 652 c 0
 333 605 295 567 247 567 c 0
 202 567 163 606 163 652 c 0
 163 699 201 737 248 737 c 0
EndSplineSet
Refer: 241 305 S 1 0 0 1 -10 0 2
EndChar

StartChar: j
Encoding: 106 106 75
Width: 370
Flags: HMW
LayerCount: 2
Fore
SplineSet
296 737 m 0
 343 737 381 699 381 652 c 0
 381 605 343 567 295 567 c 0
 250 567 211 606 211 652 c 0
 211 699 249 737 296 737 c 0
EndSplineSet
Refer: 345 567 S 1 0 0 1 0 0 2
EndChar

StartChar: k
Encoding: 107 107 76
Width: 648
Flags: MW
LayerCount: 2
Fore
SplineSet
371 736 m 1
 262 371 l 1
 340 452 391 479 463 479 c 0
 533 479 581 439 581 381 c 0
 581 334 549 291 489 258 c 0
 461 242 432 230 387 215 c 1
 433 189 443 167 450 84 c 0
 451 72 457 65 466 65 c 0
 489 65 517 100 541 158 c 1
 584 135 l 1
 533 30 479 -15 403 -15 c 0
 338 -15 301 24 301 93 c 0
 301 111 303 129 306 148 c 0
 309 162 310 173 310 181 c 0
 310 186 309 191 305 198 c 1
 297 197 289 197 284 197 c 0
 262 197 248 208 248 226 c 0
 248 244 263 257 284 257 c 0
 297 257 305 255 330 244 c 1
 406 269 444 305 444 351 c 0
 444 378 425 396 397 396 c 0
 361 396 326 372 280 316 c 0
 240 268 218 220 189 123 c 2
 152 0 l 1
 -5 0 l 1
 166 578 l 2
 178 619 182 634 182 644 c 0
 182 669 170 675 120 675 c 2
 97 675 l 1
 103 722 l 1
 371 736 l 1
EndSplineSet
EndChar

StartChar: l
Encoding: 108 108 77
Width: 389
Flags: MW
LayerCount: 2
Fore
SplineSet
370 736 m 1
 188 122 l 1
 183 106 l 2
 180 96 178 85 178 80 c 0
 178 70 185 63 193 63 c 0
 215 63 260 110 300 176 c 1
 339 149 l 1
 318 111 288 74 253 41 c 0
 212 2 174 -15 128 -15 c 0
 67 -15 26 22 26 76 c 0
 26 99 31 125 49 182 c 1
 166 578 l 2
 177 615 181 633 181 644 c 0
 181 669 169 675 120 675 c 2
 96 675 l 1
 103 722 l 1
 370 736 l 1
EndSplineSet
EndChar

StartChar: m
Encoding: 109 109 78
Width: 944
Flags: MW
LayerCount: 2
Fore
SplineSet
289 478 m 1
 260 356 l 1
 323 438 385 479 448 479 c 0
 485 479 520 462 542 435 c 1
 555 417 560 403 560 374 c 2
 560 368 l 1
 624 445 678 479 737 479 c 0
 802 479 846 437 846 375 c 0
 846 345 839 311 824 269 c 2
 764 102 l 2
 761 93 759 84 759 79 c 0
 759 72 767 66 776 66 c 0
 795 66 810 82 876 170 c 1
 882 177 l 1
 920 150 l 1
 847 37 781 -14 709 -14 c 0
 655 -14 612 24 612 71 c 0
 612 93 619 119 637 171 c 2
 686 311 l 2
 694 334 699 358 699 370 c 0
 699 385 689 394 673 394 c 0
 651 394 619 372 589 336 c 0
 551 290 524 230 489 111 c 2
 456 0 l 1
 298 0 l 1
 368 235 l 2
 388 303 399 350 399 370 c 0
 399 384 391 395 380 395 c 0
 360 395 330 370 296 326 c 1
 256 272 230 219 206 139 c 2
 165 0 l 1
 9 0 l 1
 104 319 l 2
 114 354 119 375 119 386 c 0
 119 411 107 417 58 417 c 2
 34 417 l 1
 41 464 l 1
 289 478 l 1
EndSplineSet
EndChar

StartChar: n
Encoding: 110 110 79
Width: 685
Flags: MW
LayerCount: 2
Fore
SplineSet
285 478 m 1
 253 346 l 1
 328 442 385 479 458 479 c 0
 524 479 571 436 571 376 c 0
 571 343 563 309 540 248 c 2
 493 120 l 2
 483 90 483 90 483 82 c 0
 483 74 490 66 497 66 c 0
 515 66 541 92 594 166 c 1
 603 177 l 1
 642 152 l 1
 565 33 504 -15 431 -15 c 0
 369 -15 329 20 329 76 c 0
 329 102 333 117 349 163 c 2
 411 332 l 2
 417 348 420 361 420 368 c 0
 420 381 405 394 390 394 c 0
 366 394 333 370 295 325 c 0
 251 272 226 220 198 127 c 2
 160 0 l 1
 3 0 l 1
 98 319 l 2
 109 357 113 375 113 386 c 0
 113 411 101 417 52 417 c 2
 28 417 l 1
 35 464 l 1
 285 478 l 1
EndSplineSet
EndChar

StartChar: o
Encoding: 111 111 80
Width: 574
Flags: MW
LayerCount: 2
Fore
SplineSet
324 479 m 0
 385 479 445 459 484 425 c 0
 520 394 540 345 540 285 c 0
 540 116 401 -14 220 -14 c 0
 157 -14 105 4 70 37 c 0
 33 71 10 129 10 187 c 0
 10 345 154 479 324 479 c 0
320 432 m 0
 277 432 240 394 210 322 c 0
 184 259 165 168 165 108 c 0
 165 58 189 29 229 29 c 0
 272 29 308 64 335 134 c 0
 363 204 385 302 385 354 c 0
 385 401 359 432 320 432 c 0
EndSplineSet
EndChar

StartChar: p
Encoding: 112 112 81
Width: 648
Flags: MW
LayerCount: 2
Fore
SplineSet
273 478 m 1
 257 399 l 1
 306 455 353 479 415 479 c 0
 522 479 590 408 590 298 c 0
 590 134 453 -15 303 -15 c 0
 243 -15 205 5 177 50 c 1
 143 -65 l 2
 127 -120 127 -120 127 -129 c 0
 127 -147 144 -155 184 -155 c 2
 199 -155 l 1
 192 -202 l 1
 -118 -202 l 1
 -111 -155 l 1
 -107 -155 l 2
 -80 -155 -52 -149 -44 -141 c 0
 -35 -133 -35 -133 -15 -65 c 2
 100 322 l 2
 110 355 115 375 115 386 c 0
 115 411 103 417 53 417 c 2
 29 417 l 1
 36 464 l 1
 273 478 l 1
366 409 m 0
 329 409 299 386 270 335 c 0
 239 280 206 169 206 117 c 0
 206 76 237 43 275 43 c 0
 313 43 344 68 372 122 c 0
 405 187 430 279 430 336 c 0
 430 380 404 409 366 409 c 0
EndSplineSet
EndChar

StartChar: q
Encoding: 113 113 82
Width: 630
Flags: MW
LayerCount: 2
Fore
SplineSet
587 478 m 5
 426 -65 l 6
 416 -100 411 -120 411 -129 c 4
 411 -147 428 -155 467 -155 c 6
 482 -155 l 5
 476 -202 l 5
 163 -202 l 5
 170 -155 l 5
 174 -155 l 6
 204 -155 231 -149 240 -141 c 4
 248 -133 248 -133 269 -65 c 6
 302 46 l 5
 256 3 215 -15 165 -15 c 4
 66 -15 0 60 0 170 c 4
 0 331 138 478 287 478 c 4
 352 478 398 453 425 402 c 5
 513 478 l 5
 587 478 l 5
315 423 m 4
 290 423 263 407 243 381 c 4
 200 323 163 207 163 129 c 4
 163 86 188 55 223 55 c 4
 257 55 290 83 318 137 c 4
 349 198 376 300 376 356 c 4
 376 394 350 423 315 423 c 4
EndSplineSet
EndChar

StartChar: r
Encoding: 114 114 83
Width: 519
Flags: MW
LayerCount: 2
Fore
SplineSet
285 478 m 1
 254 351 l 1
 316 444 365 479 431 479 c 0
 487 479 524 444 524 391 c 0
 524 344 492 308 449 308 c 0
 417 308 389 328 382 357 c 0
 380 365 379 373 379 388 c 0
 379 397 376 401 369 401 c 0
 361 401 344 390 329 375 c 0
 280 328 230 235 202 139 c 2
 160 0 l 1
 3 0 l 1
 98 319 l 2
 109 356 113 375 113 386 c 0
 113 411 101 417 52 417 c 2
 28 417 l 1
 35 464 l 1
 285 478 l 1
EndSplineSet
EndChar

StartChar: s
Encoding: 115 115 84
Width: 481
Flags: MW
LayerCount: 2
Fore
SplineSet
258 479 m 0
 363 479 437 432 437 367 c 0
 437 326 409 297 368 297 c 0
 328 297 299 323 299 358 c 0
 299 374 301 379 317 399 c 0
 321 404 323 408 323 411 c 0
 323 422 296 432 267 432 c 0
 215 432 178 407 178 371 c 0
 178 345 197 327 256 302 c 0
 297 284 310 278 331 264 c 0
 377 234 399 198 399 149 c 0
 399 51 311 -15 180 -15 c 0
 74 -15 2 32 2 101 c 0
 2 144 30 173 72 173 c 0
 112 173 143 146 143 109 c 0
 143 90 138 81 117 63 c 0
 114 60 112 57 112 54 c 0
 112 39 139 28 175 28 c 0
 229 28 270 57 270 97 c 0
 270 124 254 141 212 158 c 0
 155 182 149 185 128 198 c 0
 78 228 56 266 56 320 c 0
 56 418 134 479 258 479 c 0
EndSplineSet
EndChar

StartChar: t
Encoding: 116 116 85
Width: 407
Flags: MW
LayerCount: 2
Fore
SplineSet
300 183 m 1
 337 156 l 1
 299 98 289 86 269 64 c 0
 220 12 170 -14 119 -14 c 0
 66 -14 24 23 24 69 c 0
 24 88 29 116 38 146 c 0
 41 155 45 168 49 183 c 2
 114 403 l 1
 27 403 l 1
 45 464 l 1
 132 464 l 1
 188 650 l 1
 345 650 l 1
 290 464 l 1
 404 464 l 1
 386 403 l 1
 272 403 l 1
 202 167 l 2
 190 126 181 91 181 84 c 0
 181 75 188 66 196 66 c 0
 216 66 262 117 300 183 c 1
EndSplineSet
EndChar

StartChar: u
Encoding: 117 117 86
Width: 685
Flags: MW
LayerCount: 2
Fore
SplineSet
597 464 m 1
 504 152 l 2
 488 96 488 96 488 85 c 0
 488 78 495 71 502 71 c 0
 519 71 559 114 601 180 c 1
 639 152 l 1
 561 32 503 -14 427 -14 c 0
 363 -14 330 15 330 71 c 0
 330 79 330 87 331 97 c 1
 266 19 212 -14 148 -14 c 0
 82 -14 38 30 38 95 c 0
 38 122 42 142 59 198 c 2
 94 319 l 2
 106 358 110 376 110 386 c 0
 110 411 98 417 49 417 c 2
 39 417 l 1
 46 464 l 1
 299 478 l 1
 209 174 l 2
 206 166 202 150 197 133 c 0
 195 126 193 118 190 109 c 0
 189 103 188 98 188 95 c 0
 188 82 200 70 213 70 c 0
 239 70 287 109 323 159 c 0
 353 200 375 247 391 299 c 2
 439 464 l 1
 597 464 l 1
EndSplineSet
EndChar

StartChar: v
Encoding: 118 118 87
Width: 556
Flags: MW
LayerCount: 2
Fore
SplineSet
306 478 m 1
 233 230 l 1
 210 139 209 134 209 113 c 0
 209 84 236 56 265 56 c 0
 298 56 333 82 365 131 c 0
 404 190 426 250 426 294 c 0
 426 316 423 319 382 357 c 0
 361 377 353 392 353 414 c 0
 353 453 380 479 422 479 c 0
 469 479 500 443 500 390 c 0
 500 317 471 216 428 139 c 0
 372 39 297 -15 213 -15 c 0
 172 -15 131 0 101 26 c 0
 73 51 58 88 58 132 c 0
 58 159 62 185 70 211 c 2
 102 319 l 2
 116 366 118 376 118 386 c 0
 118 411 106 417 56 417 c 2
 32 417 l 1
 39 464 l 1
 306 478 l 1
EndSplineSet
EndChar

StartChar: w
Encoding: 119 119 88
Width: 833
Flags: MW
LayerCount: 2
Fore
SplineSet
587 464 m 1
 518 230 l 1
 495 139 494 133 494 113 c 0
 494 84 520 56 548 56 c 0
 581 56 622 86 653 131 c 0
 691 188 714 250 714 296 c 0
 714 315 711 320 670 357 c 0
 649 376 641 392 641 414 c 0
 641 453 668 479 710 479 c 0
 757 479 788 443 788 390 c 0
 788 317 758 214 716 139 c 0
 659 39 581 -15 495 -15 c 0
 415 -15 362 27 345 103 c 1
 282 20 223 -15 143 -15 c 0
 65 -15 22 25 22 95 c 0
 22 123 26 142 42 198 c 2
 78 319 l 2
 90 360 94 376 94 386 c 0
 94 411 82 417 32 417 c 2
 22 417 l 1
 29 464 l 1
 283 478 l 1
 193 177 l 2
 184 144 179 122 179 108 c 0
 179 88 196 71 215 71 c 0
 251 71 288 98 318 145 c 0
 335 172 364 240 377 286 c 2
 430 464 l 1
 587 464 l 1
EndSplineSet
EndChar

StartChar: x
Encoding: 120 120 89
Width: 574
Flags: MW
LayerCount: 2
Fore
SplineSet
212 134 m 1
 175 82 l 2
 133 22 79 -15 32 -15 c 0
 -15 -15 -49 16 -49 61 c 0
 -49 101 -22 129 18 129 c 0
 48 129 69 111 77 79 c 0
 79 71 82 68 86 68 c 0
 101 68 121 88 157 139 c 2
 198 196 l 1
 184 261 l 2
 162 363 155 379 136 379 c 0
 118 379 106 366 66 296 c 0
 65 295 63 291 60 286 c 1
 20 306 l 1
 36 339 52 366 75 395 c 0
 119 453 160 479 207 479 c 0
 266 479 297 441 317 344 c 1
 339 373 l 2
 400 454 435 479 490 479 c 0
 538 479 571 450 571 407 c 0
 571 367 543 338 506 338 c 0
 469 338 447 358 447 393 c 1
 446 401 444 405 438 405 c 0
 420 405 391 372 330 282 c 1
 346 200 l 1
 365 108 373 88 394 88 c 0
 416 88 443 124 469 189 c 1
 508 169 l 1
 495 133 476 97 451 62 c 0
 415 10 376 -15 329 -15 c 0
 298 -15 271 -2 252 22 c 0
 235 42 227 64 215 120 c 2
 212 134 l 1
EndSplineSet
EndChar

StartChar: y
Encoding: 121 121 90
Width: 519
Flags: MW
LayerCount: 2
Fore
SplineSet
270 333 m 2
 326 143 l 1
 376 227 393 267 393 301 c 0
 393 320 390 328 374 354 c 1
 359 376 353 394 353 413 c 0
 353 451 383 479 424 479 c 0
 466 479 492 455 492 417 c 0
 492 360 433 226 345 83 c 0
 285 -16 231 -89 181 -139 c 0
 140 -181 94 -202 40 -202 c 0
 -24 -202 -66 -166 -66 -111 c 0
 -66 -68 -37 -38 5 -38 c 0
 45 -38 74 -65 74 -102 c 0
 74 -110 73 -117 68 -130 c 0
 67 -132 67 -135 67 -136 c 0
 67 -141 73 -146 80 -146 c 0
 107 -146 155 -107 190 -58 c 2
 219 -18 l 1
 119 320 l 2
 108 357 103 365 90 365 c 0
 72 365 64 348 36 258 c 1
 -7 271 l 1
 26 412 78 479 155 479 c 0
 189 479 218 461 233 432 c 0
 244 411 261 365 270 333 c 2
EndSplineSet
EndChar

StartChar: z
Encoding: 122 122 91
Width: 519
Flags: MW
LayerCount: 2
Fore
SplineSet
416 169 m 1
 460 153 l 1
 426 45 354 -15 259 -15 c 0
 206 -15 178 -5 86 49 c 0
 75 55 70 57 65 57 c 0
 56 57 51 48 51 28 c 0
 50 2 36 -15 13 -15 c 0
 -5 -15 -19 0 -19 19 c 0
 -19 44 2 79 47 131 c 0
 104 195 148 230 224 271 c 0
 272 296 304 312 307 314 c 0
 313 318 331 329 350 342 c 1
 320 332 298 328 268 328 c 0
 245 328 235 329 178 338 c 0
 148 343 134 345 122 345 c 0
 90 345 81 337 58 286 c 1
 16 301 l 1
 57 419 124 479 214 479 c 0
 254 479 288 468 348 436 c 0
 372 423 385 418 392 418 c 0
 402 418 407 426 413 450 c 0
 419 470 427 479 441 479 c 0
 457 479 471 464 471 446 c 0
 471 410 428 347 358 280 c 0
 311 236 292 224 174 163 c 0
 146 149 135 142 110 126 c 1
 156 134 176 136 200 136 c 0
 231 136 260 131 295 121 c 0
 342 107 342 107 350 107 c 0
 376 107 396 126 416 169 c 1
EndSplineSet
EndChar

StartChar: braceleft
Encoding: 123 123 92
Width: 407
Flags: MW
LayerCount: 2
Fore
SplineSet
52 285 m 1
 64 329 l 1
 129 345 152 372 172 462 c 1
 202 572 l 2
 232 683 276 722 371 722 c 2
 402 722 l 1
 390 679 l 1
 341 674 319 645 294 553 c 2
 261 432 l 1
 238 355 206 322 140 307 c 1
 184 294 205 273 205 240 c 0
 205 229 201 206 192 175 c 2
 164 71 l 2
 150 19 147 2 147 -16 c 0
 147 -51 158 -63 194 -65 c 1
 182 -108 l 1
 140 -108 l 2
 85 -108 52 -76 52 -21 c 0
 52 4 56 29 69 74 c 1
 90 154 l 2
 102 198 103 205 103 225 c 0
 103 258 89 275 52 285 c 1
EndSplineSet
EndChar

StartChar: bar
Encoding: 124 124 93
Width: 606
Flags: MW
LayerCount: 2
Fore
SplineSet
343 722 m 1
 343 0 l 1
 262 0 l 1
 262 722 l 1
 343 722 l 1
EndSplineSet
EndChar

StartChar: braceright
Encoding: 125 125 94
Width: 407
Flags: MW
LayerCount: 2
Fore
SplineSet
322 329 m 1
 310 285 l 1
 244 271 220 242 200 152 c 1
 170 42 l 2
 140 -69 96 -108 1 -108 c 2
 -30 -108 l 1
 -18 -65 l 1
 31 -60 53 -31 78 61 c 2
 111 182 l 1
 134 259 166 292 232 307 c 1
 188 320 167 341 167 374 c 0
 167 386 171 406 180 439 c 2
 208 543 l 2
 222 595 225 612 225 630 c 0
 225 665 214 677 178 679 c 1
 190 722 l 1
 232 722 l 2
 287 722 320 690 320 635 c 0
 320 610 316 586 304 540 c 2
 282 460 l 2
 270 416 269 410 269 389 c 0
 269 355 284 338 322 329 c 1
EndSplineSet
EndChar

StartChar: asciitilde
Encoding: 126 126 95
Width: 606
Flags: MW
LayerCount: 2
Fore
SplineSet
135 169 m 1
 51 222 l 1
 91 297 140 335 195 335 c 0
 218 335 240 329 285 312 c 2
 338 293 l 1
 381 276 389 274 404 274 c 0
 427 274 443 286 471 326 c 1
 555 273 l 1
 514 198 466 160 411 160 c 0
 388 160 366 165 321 183 c 1
 268 202 l 1
 225 219 217 221 202 221 c 0
 179 221 163 209 135 169 c 1
EndSplineSet
EndChar

StartChar: exclamdown
Encoding: 161 161 97
Width: 333
Flags: MW
LayerCount: 2
Fore
SplineSet
145 331 m 1
 197 318 l 1
 167 183 150 66 146 -33 c 0
 142 -123 139 -143 122 -168 c 0
 107 -190 84 -203 59 -203 c 0
 1 -203 -39 -170 -39 -123 c 0
 -39 -91 -39 -91 16 20 c 0
 76 140 100 199 145 331 c 1
203 549 m 0
 250 549 289 509 289 462 c 0
 289 414 250 375 202 375 c 0
 154 375 115 414 115 462 c 0
 115 510 154 549 203 549 c 0
EndSplineSet
EndChar

StartChar: cent
Encoding: 162 162 98
Width: 574
Flags: MW
LayerCount: 2
Fore
SplineSet
243 -15 m 1
 188 -137 l 1
 134 -137 l 1
 190 -12 l 1
 103 -5 30 80 30 174 c 0
 30 340 175 484 343 484 c 0
 365 484 386 481 408 476 c 1
 457 586 l 1
 511 586 l 1
 454 457 l 1
 492 434 514 395 514 351 c 0
 514 297 478 259 427 259 c 0
 406 259 389 265 374 278 c 1
 271 48 l 1
 278 48 l 2
 308 48 341 62 373 88 c 0
 388 100 400 112 434 147 c 1
 470 116 l 1
 464 109 l 1
 384 18 335 -10 243 -15 c 1
225 66 m 1
 357 360 l 2
 367 381 374 389 397 403 c 0
 400 405 403 409 403 411 c 0
 403 424 381 437 359 437 c 0
 315 437 275 404 244 341 c 0
 216 285 194 198 194 145 c 0
 194 112 205 86 225 66 c 1
EndSplineSet
EndChar

StartChar: sterling
Encoding: 163 163 99
Width: 574
Flags: MW
LayerCount: 2
Fore
SplineSet
435 376 m 1
 426 319 l 1
 298 319 l 1
 295 253 282 205 249 136 c 1
 283 123 329 115 369 115 c 0
 428 115 473 145 499 200 c 1
 542 180 l 1
 530 139 517 109 497 76 c 0
 458 12 414 -15 351 -15 c 0
 295 -15 244 6 197 49 c 1
 160 4 125 -15 77 -15 c 0
 20 -15 -18 20 -18 72 c 0
 -18 128 27 168 89 168 c 0
 110 168 132 164 165 156 c 1
 167 174 168 188 168 197 c 0
 168 232 160 280 148 319 c 1
 18 319 l 1
 26 376 l 1
 140 376 l 1
 139 421 l 1
 139 589 243 705 396 705 c 0
 497 705 566 648 566 564 c 0
 566 509 530 469 479 469 c 0
 435 469 403 498 403 538 c 0
 403 567 414 584 450 609 c 0
 458 615 461 620 461 627 c 0
 461 644 442 655 415 655 c 0
 341 655 296 574 296 444 c 0
 296 432 296 420 298 376 c 1
 435 376 l 1
146 84 m 1
 140 89 l 1
 116 107 90 118 69 118 c 0
 46 118 29 99 29 74 c 0
 29 46 47 28 75 28 c 0
 108 28 126 42 146 84 c 1
EndSplineSet
EndChar

StartChar: currency
Encoding: 164 164 100
Width: 574
Flags: MW
LayerCount: 2
Fore
SplineSet
160 141 m 1
 118 98 l 1
 41 176 l 1
 83 218 l 1
 59 255 45 304 45 350 c 0
 45 396 60 449 83 483 c 1
 40 526 l 1
 117 603 l 1
 160 560 l 1
 198 585 246 599 294 599 c 0
 341 599 381 587 426 561 c 1
 468 603 l 1
 546 526 l 1
 503 483 l 1
 527 445 541 397 541 350 c 0
 541 304 528 258 503 218 c 1
 546 175 l 1
 469 97 l 1
 426 140 l 1
 381 114 340 102 293 102 c 0
 246 102 205 114 160 141 c 1
293 478 m 0
 223 478 166 421 166 351 c 0
 166 281 223 223 292 223 c 0
 363 223 420 280 420 351 c 0
 420 421 363 478 293 478 c 0
EndSplineSet
EndChar

StartChar: yen
Encoding: 165 165 101
Width: 574
Flags: MW
LayerCount: 2
Fore
SplineSet
385 375 m 1
 516 375 l 1
 510 329 l 1
 353 329 l 1
 330 244 l 1
 475 244 l 1
 469 198 l 1
 318 198 l 1
 304 145 l 2
 294 109 290 90 290 81 c 0
 290 59 304 54 369 54 c 2
 382 54 l 1
 374 0 l 1
 36 0 l 1
 44 54 l 1
 56 54 l 2
 90 54 116 59 125 68 c 0
 134 76 134 76 152 145 c 2
 166 198 l 1
 25 198 l 1
 31 244 l 1
 179 244 l 1
 201 329 l 1
 54 329 l 1
 60 375 l 1
 185 375 l 1
 107 595 l 2
 90 641 72 652 23 652 c 1
 30 706 l 1
 321 706 l 1
 313 652 l 1
 291 652 l 2
 257 652 247 647 247 628 c 0
 247 620 247 620 256 594 c 2
 328 384 l 1
 453 573 l 2
 464 590 470 606 470 617 c 0
 470 638 448 652 413 652 c 2
 397 652 l 1
 404 706 l 1
 635 706 l 1
 628 652 l 1
 578 635 557 617 509 552 c 1
 385 375 l 1
EndSplineSet
EndChar

StartChar: brokenbar
Encoding: 166 166 102
Width: 606
Flags: MW
LayerCount: 2
Fore
SplineSet
343 722 m 1
 343 400 l 1
 262 400 l 1
 262 722 l 1
 343 722 l 1
343 322 m 1
 343 0 l 1
 262 0 l 1
 262 322 l 1
 343 322 l 1
EndSplineSet
EndChar

StartChar: section
Encoding: 167 167 103
Width: 500
Flags: MW
LayerCount: 2
Fore
SplineSet
269 141 m 1
 307 98 322 63 322 21 c 0
 322 -72 239 -144 131 -144 c 0
 35 -144 -40 -92 -40 -26 c 0
 -40 20 -12 51 30 51 c 0
 70 51 101 22 101 -15 c 0
 101 -37 93 -52 73 -67 c 0
 65 -73 62 -76 62 -79 c 0
 62 -91 96 -104 129 -104 c 0
 180 -104 213 -77 213 -36 c 0
 213 6 194 34 79 157 c 0
 26 214 8 250 8 297 c 0
 8 382 81 455 166 455 c 0
 172 455 182 454 193 453 c 1
 155 506 143 535 143 576 c 0
 143 670 222 737 333 737 c 0
 431 737 505 685 505 616 c 0
 505 576 473 545 431 545 c 0
 391 545 361 572 361 610 c 0
 361 630 371 649 392 666 c 0
 398 671 400 673 400 676 c 0
 400 687 369 698 339 698 c 0
 290 698 251 667 251 628 c 0
 251 591 272 559 361 463 c 0
 434 384 455 347 455 297 c 0
 455 215 376 140 289 140 c 0
 283 140 278 140 269 141 c 1
177 417 m 0
 141 417 115 392 115 359 c 0
 115 330 127 309 170 260 c 1
 228 196 251 180 283 180 c 0
 319 180 348 204 348 235 c 0
 348 262 331 292 287 342 c 0
 239 396 207 417 177 417 c 0
EndSplineSet
EndChar

StartChar: copyright
Encoding: 169 169 105
Width: 747
Flags: MW
LayerCount: 2
Fore
SplineSet
524 526 m 1
 529 374 l 1
 495 371 l 1
 472 455 437 493 383 493 c 0
 323 493 292 441 292 338 c 0
 292 230 323 179 389 179 c 0
 446 179 484 218 498 290 c 1
 537 281 l 1
 518 185 464 140 372 140 c 0
 260 140 183 217 183 329 c 0
 183 445 264 528 378 528 c 0
 414 528 439 521 470 502 c 1
 497 526 l 1
 524 526 l 1
373 685 m 0
 566 685 723 528 723 336 c 0
 723 140 567 -15 369 -15 c 0
 180 -15 23 144 23 335 c 0
 23 528 180 685 373 685 c 0
374 633 m 0
 213 633 83 499 83 335 c 0
 83 173 214 37 370 37 c 0
 534 37 664 169 664 336 c 0
 664 499 533 633 374 633 c 0
EndSplineSet
EndChar

StartChar: ordfeminine
Encoding: 170 170 106
Width: 412
Flags: MW
LayerCount: 2
Fore
SplineSet
312 728 m 1
 417 728 l 1
 351 529 l 2
 344 506 344 506 344 502 c 0
 344 497 349 492 353 492 c 0
 364 492 399 526 423 559 c 1
 449 545 l 1
 408 481 355 442 308 442 c 0
 277 442 252 462 252 487 c 0
 252 488 252 491 253 493 c 1
 217 455 188 442 145 442 c 0
 77 442 29 487 29 551 c 0
 29 648 121 737 220 737 c 0
 258 737 286 724 302 700 c 1
 312 728 l 1
241 704 m 0
 214 704 191 685 170 647 c 1
 151 610 138 563 138 531 c 0
 138 502 154 484 179 484 c 0
 204 484 228 505 248 542 c 1
 267 580 282 631 282 661 c 0
 282 686 265 704 241 704 c 0
29 293 m 1
 45 351 l 1
 391 351 l 1
 375 293 l 1
 29 293 l 1
EndSplineSet
EndChar

StartChar: logicalnot
Encoding: 172 172 108
Width: 606
Flags: MW
LayerCount: 2
Fore
SplineSet
41 310 m 1
 545 310 l 1
 545 19 l 1
 430 19 l 1
 430 195 l 1
 41 195 l 1
 41 310 l 1
EndSplineSet
EndChar

StartChar: registered
Encoding: 174 174 110
Width: 747
Flags: MW
LayerCount: 2
Fore
SplineSet
333 323 m 1
 333 225 l 2
 333 194 333 192 336 189 c 0
 339 185 350 183 374 183 c 2
 391 183 l 1
 391 148 l 1
 181 148 l 1
 181 183 l 1
 192 183 l 2
 217 183 227 185 231 189 c 0
 234 192 234 192 234 225 c 2
 234 444 l 2
 234 477 234 477 231 480 c 0
 228 484 217 486 192 486 c 2
 181 486 l 1
 181 521 l 1
 401 521 l 2
 450 521 482 515 503 502 c 0
 529 485 545 457 545 425 c 0
 545 397 533 372 511 355 c 0
 497 344 484 339 454 333 c 1
 489 319 508 293 515 252 c 2
 518 232 l 1
 522 213 524 202 524 200 c 1
 527 195 532 192 538 192 c 0
 551 192 557 207 557 238 c 1
 592 238 l 1
 592 227 l 2
 592 173 558 140 502 140 c 0
 457 140 427 162 418 203 c 0
 416 212 413 233 411 267 c 1
 407 312 397 323 357 323 c 2
 333 323 l 1
333 358 m 1
 357 358 l 2
 421 358 441 373 441 422 c 0
 441 467 422 486 377 486 c 2
 365 486 l 2
 335 486 333 484 333 457 c 2
 333 358 l 1
373 685 m 0
 566 685 723 528 723 336 c 0
 723 140 567 -15 369 -15 c 0
 180 -15 23 144 23 335 c 0
 23 528 180 685 373 685 c 0
374 633 m 0
 213 633 83 499 83 335 c 0
 83 173 214 37 370 37 c 0
 534 37 664 169 664 336 c 0
 664 499 533 633 374 633 c 0
EndSplineSet
EndChar

StartChar: macron
Encoding: 175 175 111
Width: 333
Flags: MW
LayerCount: 2
Fore
SplineSet
53 642 m 1
 387 642 l 1
 366 566 l 1
 32 566 l 1
 53 642 l 1
EndSplineSet
EndChar

StartChar: degree
Encoding: 176 176 112
Width: 400
Flags: MW
LayerCount: 2
Fore
SplineSet
223 686 m 0
 306 686 370 619 370 533 c 0
 370 447 304 380 220 380 c 0
 136 380 70 448 70 534 c 0
 70 619 138 686 223 686 c 0
222 629 m 0
 168 629 126 586 126 533 c 0
 126 480 169 437 220 437 c 0
 272 437 313 479 313 533 c 0
 313 586 272 629 222 629 c 0
EndSplineSet
EndChar

StartChar: plusminus
Encoding: 177 177 113
Width: 606
Flags: HMW
LayerCount: 2
Fore
SplineSet
236 300 m 1
 41 300 l 1
 41 415 l 1
 236 415 l 1
 236 610 l 1
 351 610 l 1
 351 415 l 1
 545 415 l 1
 545 300 l 1
 351 300 l 1
 351 158 l 1
 236 158 l 1
 236 300 l 1
EndSplineSet
Refer: 708 8722 S 1 0 0 1 0 -195 2
EndChar

StartChar: twosuperior
Encoding: 178 178 114
Width: 344
Flags: MW
LayerCount: 2
Fore
SplineSet
306 436 m 1
 340 425 l 1
 285 282 l 1
 -16 282 l 1
 -16 287 l 2
 -16 315 9 342 98 414 c 0
 159 463 192 493 211 514 c 0
 234 541 247 572 247 599 c 0
 247 636 219 662 177 662 c 0
 146 662 114 644 114 626 c 0
 114 618 118 615 138 606 c 1
 163 597 174 583 174 561 c 0
 174 530 151 510 118 510 c 0
 79 510 51 539 51 579 c 0
 51 652 121 705 215 705 c 0
 302 705 360 660 360 594 c 0
 360 561 342 526 311 497 c 1
 287 476 269 464 217 436 c 0
 168 409 154 401 102 368 c 1
 221 368 l 2
 263 368 274 375 298 422 c 1
 306 436 l 1
EndSplineSet
EndChar

StartChar: threesuperior
Encoding: 179 179 115
Width: 344
Flags: MW
LayerCount: 2
Fore
SplineSet
242 500 m 1
 241 499 l 2
 240 499 239 499 237 498 c 1
 258 493 269 489 280 482 c 0
 304 468 320 438 320 409 c 0
 320 332 243 274 139 274 c 0
 52 274 -4 313 -4 373 c 0
 -4 410 22 436 59 436 c 0
 91 436 114 415 114 387 c 0
 114 364 101 350 72 341 c 0
 69 340 68 339 68 336 c 0
 68 324 96 310 121 310 c 0
 173 310 207 357 207 428 c 0
 207 463 192 483 166 483 c 0
 160 483 160 483 146 479 c 0
 141 478 135 477 131 477 c 0
 115 477 105 485 105 499 c 0
 105 513 115 523 130 523 c 0
 136 523 140 522 148 520 c 0
 157 518 161 517 168 517 c 0
 206 517 240 561 240 610 c 0
 240 646 220 667 186 667 c 0
 162 667 138 657 138 647 c 0
 138 646 139 644 142 643 c 0
 162 629 171 616 171 599 c 0
 171 574 147 554 118 554 c 0
 85 554 61 577 61 609 c 0
 61 663 125 705 206 705 c 0
 290 705 348 664 348 606 c 0
 348 557 307 515 246 501 c 1
 242 500 l 1
EndSplineSet
EndChar

StartChar: acute
Encoding: 180 180 116
Width: 333
Flags: MW
LayerCount: 2
Fore
SplineSet
123 535 m 1
 247 674 l 2
 281 711 293 719 317 719 c 0
 347 719 371 696 371 667 c 0
 371 648 361 633 343 623 c 2
 177 535 l 1
 123 535 l 1
EndSplineSet
EndChar

StartChar: mu
Encoding: 181 181 117
Width: 685
Flags: MW
LayerCount: 2
Fore
SplineSet
39 417 m 1
 46 464 l 1
 299 478 l 1
 209 174 l 2
 206 165 202 150 197 133 c 0
 195 125 193 118 190 109 c 0
 189 103 188 98 188 95 c 0
 188 82 200 70 212 70 c 0
 239 70 287 108 323 159 c 0
 353 200 375 247 391 299 c 2
 439 464 l 1
 597 464 l 1
 504 152 l 2
 488 96 488 96 488 85 c 0
 488 78 495 71 502 71 c 0
 519 71 558 114 601 180 c 1
 639 152 l 1
 561 31 503 -14 427 -14 c 0
 364 -14 330 15 330 70 c 0
 330 80 330 87 331 97 c 1
 266 19 212 -14 148 -14 c 0
 115 -14 89 -2 68 23 c 1
 62 5 60 -9 60 -21 c 0
 60 -28 61 -38 63 -53 c 0
 67 -82 69 -103 69 -117 c 0
 69 -172 23 -219 -32 -219 c 0
 -66 -219 -90 -199 -90 -171 c 0
 -90 -143 -83 -128 -34 -56 c 0
 -12 -25 0 -1 6 20 c 2
 94 319 l 2
 106 357 110 376 110 386 c 0
 110 397 104 409 96 412 c 0
 88 416 76 417 49 417 c 2
 39 417 l 1
EndSplineSet
EndChar

StartChar: paragraph
Encoding: 182 182 118
Width: 650
Flags: MW
LayerCount: 2
Fore
SplineSet
252 325 m 1
 243 325 l 2
 140 325 77 378 77 465 c 0
 77 533 117 616 171 662 c 0
 221 704 282 722 372 722 c 2
 661 722 l 1
 646 668 l 1
 643 668 l 2
 622 668 595 661 587 654 c 0
 578 646 578 646 561 581 c 2
 404 -3 l 2
 399 -21 394 -42 394 -42 c 2
 391 -52 389 -61 389 -68 c 0
 389 -82 405 -90 440 -90 c 2
 446 -90 l 1
 432 -144 l 1
 67 -144 l 1
 82 -90 l 1
 88 -90 l 2
 115 -90 137 -81 145 -68 c 0
 149 -60 149 -60 164 -3 c 2
 252 325 l 1
483 668 m 1
 445 668 l 1
 242 -89 l 1
 280 -89 l 1
 483 668 l 1
EndSplineSet
EndChar

StartChar: cedilla
Encoding: 184 184 120
Width: 333
Flags: MW
LayerCount: 2
Fore
SplineSet
38 0 m 1
 83 0 l 1
 38 -61 l 1
 51 -59 62 -58 71 -58 c 0
 120 -58 157 -90 157 -133 c 0
 157 -185 102 -220 22 -220 c 0
 -21 -220 -60 -210 -87 -191 c 1
 -65 -156 l 1
 -33 -170 -14 -175 7 -175 c 0
 36 -175 56 -159 56 -137 c 0
 56 -117 38 -102 14 -102 c 0
 6 -102 0 -103 -15 -106 c 1
 -32 -89 l 1
 38 0 l 1
EndSplineSet
EndChar

StartChar: onesuperior
Encoding: 185 185 121
Width: 344
Flags: MW
LayerCount: 2
Fore
SplineSet
323 706 m 1
 230 371 l 2
 223 343 222 340 222 335 c 0
 222 323 230 321 271 321 c 2
 299 321 l 1
 294 282 l 1
 21 282 l 1
 26 321 l 1
 63 321 l 2
 106 321 112 324 118 346 c 0
 120 352 122 361 125 371 c 2
 186 592 l 2
 188 600 190 609 190 614 c 0
 190 624 184 627 164 627 c 2
 102 627 l 1
 112 663 l 1
 179 665 261 685 292 706 c 1
 323 706 l 1
EndSplineSet
EndChar

StartChar: ordmasculine
Encoding: 186 186 122
Width: 356
Flags: MW
LayerCount: 2
Fore
SplineSet
239 737 m 0
 327 737 383 692 383 622 c 0
 383 520 291 442 170 442 c 0
 83 442 29 489 29 563 c 0
 29 657 125 737 239 737 c 0
236 709 m 0
 208 709 183 686 163 643 c 0
 146 606 133 552 133 516 c 0
 133 485 148 468 175 468 c 0
 205 468 228 489 247 531 c 0
 266 574 280 630 280 663 c 0
 280 691 263 709 236 709 c 0
29 293 m 1
 45 351 l 1
 349 351 l 1
 333 293 l 1
 29 293 l 1
EndSplineSet
EndChar

StartChar: onequarter
Encoding: 188 188 124
Width: 861
Flags: MW
LayerCount: 2
Fore
SplineSet
601 722 m 1
 680 722 l 1
 261 0 l 1
 181 0 l 1
 601 722 l 1
819 155 m 1
 811 109 l 1
 735 109 l 1
 729 88 l 2
 723 67 721 57 721 52 c 0
 721 41 729 39 768 39 c 2
 783 39 l 1
 777 0 l 1
 542 0 l 1
 548 39 l 1
 566 39 l 2
 591 39 606 41 612 46 c 0
 616 50 616 50 628 90 c 1
 633 109 l 1
 467 109 l 1
 467 147 l 1
 760 424 l 1
 826 424 l 1
 748 155 l 1
 819 155 l 1
646 155 m 1
 688 303 l 1
 535 155 l 1
 646 155 l 1
EndSplineSet
Refer: 121 185 S 1 0 0 1 0 0 2
EndChar

StartChar: onehalf
Encoding: 189 189 125
Width: 861
Flags: MW
LayerCount: 2
Fore
SplineSet
605 722 m 1
 685 722 l 1
 265 0 l 1
 186 0 l 1
 605 722 l 1
803 154 m 1
 837 143 l 1
 782 0 l 1
 481 0 l 1
 481 5 l 2
 481 32 509 63 595 132 c 0
 656 181 689 210 708 232 c 0
 731 258 744 290 744 316 c 0
 744 353 716 379 674 379 c 0
 643 379 611 361 611 343 c 0
 611 335 615 332 635 324 c 0
 660 314 671 300 671 279 c 0
 671 248 648 228 615 228 c 0
 576 228 548 257 548 297 c 0
 548 369 618 422 712 422 c 0
 799 422 857 377 857 311 c 0
 857 279 839 244 808 215 c 0
 784 193 766 181 714 154 c 1
 665 127 651 119 599 86 c 1
 718 86 l 2
 760 86 771 93 795 139 c 2
 803 154 l 1
EndSplineSet
Refer: 121 185 S 1 0 0 1 0 0 2
EndChar

StartChar: threequarters
Encoding: 190 190 126
Width: 861
Flags: MW
LayerCount: 2
Fore
SplineSet
615 722 m 1
 694 722 l 1
 275 0 l 1
 195 0 l 1
 615 722 l 1
819 155 m 1
 811 109 l 1
 735 109 l 1
 729 88 l 2
 723 67 721 57 721 52 c 0
 721 41 729 39 768 39 c 2
 783 39 l 1
 777 0 l 1
 542 0 l 1
 548 39 l 1
 566 39 l 2
 591 39 606 41 612 46 c 0
 616 50 616 50 628 90 c 1
 633 109 l 1
 467 109 l 1
 467 147 l 1
 760 424 l 1
 826 424 l 1
 748 155 l 1
 819 155 l 1
646 155 m 1
 688 303 l 1
 535 155 l 1
 646 155 l 1
EndSplineSet
Refer: 115 179 S 1 0 0 1 0 0 2
EndChar

StartChar: questiondown
Encoding: 191 191 127
Width: 481
Flags: MW
LayerCount: 2
Fore
SplineSet
128 199 m 1
 79 211 l 1
 100 279 154 322 220 322 c 0
 288 322 341 269 341 202 c 0
 341 124 288 52 189 -4 c 0
 124 -41 107 -60 107 -91 c 0
 107 -129 136 -155 180 -155 c 0
 246 -155 306 -84 306 -5 c 0
 306 -1 305 4 304 14 c 1
 352 14 l 1
 353 2 354 -8 354 -12 c 0
 354 -52 338 -98 311 -134 c 0
 279 -178 227 -203 168 -203 c 0
 72 -203 1 -138 1 -48 c 0
 1 35 49 93 172 158 c 0
 235 191 248 204 248 230 c 0
 248 256 230 272 202 272 c 0
 169 272 146 249 128 199 c 1
282 549 m 0
 329 549 368 509 368 462 c 0
 368 414 329 375 281 375 c 0
 233 375 194 414 194 462 c 0
 194 510 233 549 282 549 c 0
EndSplineSet
EndChar

StartChar: AE
Encoding: 198 198 134
Width: 889
Flags: MW
LayerCount: 2
Fore
SplineSet
903 722 m 1
 863 477 l 1
 814 477 l 1
 814 549 809 578 796 604 c 0
 775 646 733 668 676 668 c 2
 665 668 l 2
 630 668 619 658 608 620 c 2
 550 401 l 1
 559 401 l 2
 632 401 681 440 712 523 c 1
 759 516 l 1
 669 181 l 1
 622 188 l 1
 627 217 628 232 628 250 c 0
 628 292 617 316 592 332 c 0
 576 342 560 347 547 347 c 2
 535 347 l 1
 472 111 l 2
 469 99 467 88 467 79 c 0
 467 63 483 54 514 54 c 2
 526 54 l 2
 632 54 743 137 801 259 c 1
 850 248 l 1
 784 0 l 1
 190 0 l 1
 198 54 l 1
 202 54 l 2
 244 54 268 58 278 68 c 0
 286 76 286 76 305 144 c 2
 339 271 l 1
 168 271 l 1
 77 126 l 2
 69 113 65 102 65 92 c 0
 65 66 89 55 145 54 c 1
 138 0 l 1
 -81 0 l 1
 -74 54 l 1
 -46 60 -36 70 -3 122 c 2
 291 572 l 2
 305 593 311 609 311 624 c 0
 311 651 283 668 239 668 c 2
 208 668 l 1
 215 722 l 1
 903 722 l 1
353 325 m 1
 442 657 l 2
 443 659 443 661 443 661 c 2
 443 664 438 667 434 667 c 0
 429 667 425 664 421 658 c 2
 205 325 l 1
 353 325 l 1
EndSplineSet
EndChar

StartChar: Eth
Encoding: 208 208 144
Width: 833
Flags: MW
LayerCount: 2
Fore
SplineSet
116 339 m 1
 23 339 l 1
 40 402 l 1
 133 402 l 1
 182 578 l 2
 190 607 195 632 195 641 c 0
 195 663 181 668 116 668 c 2
 98 668 l 1
 105 722 l 1
 463 722 l 2
 572 722 633 707 691 666 c 0
 760 618 796 540 796 438 c 0
 796 305 740 180 645 100 c 0
 560 28 459 0 285 0 c 2
 -49 0 l 1
 -42 54 l 1
 -38 54 l 2
 4 54 28 58 39 68 c 0
 47 76 47 76 66 144 c 1
 116 339 l 1
292 339 m 1
 237 127 l 2
 228 91 228 89 228 81 c 0
 228 62 243 54 281 54 c 2
 310 54 l 2
 396 54 467 91 515 162 c 1
 569 244 610 388 610 501 c 0
 610 610 558 668 461 668 c 2
 439 668 l 2
 393 668 379 656 365 605 c 2
 309 402 l 1
 460 402 l 1
 443 339 l 1
 292 339 l 1
EndSplineSet
EndChar

StartChar: multiply
Encoding: 215 215 151
Width: 606
Flags: MW
LayerCount: 2
Fore
SplineSet
294 171 m 1
 122 0 l 1
 41 81 l 1
 213 253 l 1
 41 424 l 1
 122 506 l 1
 294 334 l 1
 466 506 l 1
 547 424 l 1
 375 253 l 1
 547 81 l 1
 466 0 l 1
 294 171 l 1
EndSplineSet
EndChar

StartChar: Oslash
Encoding: 216 216 152
Width: 833
Flags: MW
LayerCount: 2
Fore
SplineSet
652 697 m 1
 713 773 l 1
 778 773 l 1
 692 667 l 1
 761 607 797 530 797 441 c 0
 797 194 589 -15 344 -15 c 0
 279 -15 216 0 172 27 c 1
 82 -83 l 1
 17 -83 l 1
 131 57 l 1
 69 111 36 192 36 286 c 0
 36 531 241 737 485 737 c 0
 549 737 604 724 652 697 c 1
217 163 m 1
 591 623 l 1
 569 661 531 682 487 682 c 0
 413 682 352 631 300 528 c 1
 252 429 215 288 215 197 c 0
 215 187 216 175 217 163 c 1
610 566 m 1
 234 104 l 1
 256 62 293 40 341 40 c 0
 415 40 477 91 533 197 c 0
 581 289 613 416 613 514 c 0
 613 532 612 544 610 566 c 1
EndSplineSet
EndChar

StartChar: Thorn
Encoding: 222 222 158
Width: 741
Flags: MW
LayerCount: 2
Fore
SplineSet
335 0 m 1
 -38 0 l 1
 -31 54 l 1
 -24 54 l 2
 18 54 42 58 52 68 c 0
 61 76 61 76 79 144 c 2
 195 578 l 2
 205 612 209 633 209 641 c 0
 209 663 195 668 130 668 c 2
 108 668 l 1
 116 722 l 1
 489 722 l 1
 482 668 l 1
 475 668 l 2
 406 668 394 662 383 620 c 2
 372 578 l 1
 433 578 l 2
 526 578 578 567 619 538 c 0
 665 506 690 453 690 391 c 0
 690 303 646 235 567 200 c 0
 514 176 446 166 336 166 c 2
 261 166 l 1
 256 144 l 1
 242 89 242 89 242 81 c 0
 242 59 256 54 321 54 c 2
 343 54 l 1
 335 0 l 1
276 220 m 1
 319 220 l 2
 375 220 418 232 446 255 c 0
 484 286 511 355 511 419 c 0
 511 455 500 485 480 502 c 0
 466 514 438 524 418 524 c 2
 407 524 l 2
 365 524 355 516 343 471 c 2
 276 220 l 1
EndSplineSet
EndChar

StartChar: germandbls
Encoding: 223 223 159
Width: 574
Flags: MW
LayerCount: 2
Fore
SplineSet
46 186 m 2
 92 415 l 1
 139 643 212 737 344 737 c 0
 449 737 523 672 523 579 c 0
 523 526 498 477 455 446 c 0
 430 428 409 419 365 410 c 1
 400 396 414 389 433 376 c 0
 482 342 508 288 508 221 c 0
 508 82 415 -15 284 -15 c 0
 250 -15 229 -11 198 1 c 1
 214 55 l 1
 230 38 242 32 259 32 c 0
 287 32 309 57 324 104 c 0
 344 167 358 248 358 299 c 0
 358 340 346 372 325 386 c 0
 318 391 315 393 297 398 c 1
 279 405 272 410 272 420 c 0
 272 433 280 438 300 438 c 0
 329 438 343 442 354 454 c 0
 377 477 395 539 395 597 c 0
 395 655 373 692 339 692 c 0
 292 692 266 641 242 506 c 2
 184 169 l 2
 172 94 129 -79 98 -180 c 1
 -66 -205 l 1
 -9 -64 8 -2 46 186 c 2
EndSplineSet
EndChar

StartChar: ae
Encoding: 230 230 166
Width: 815
Flags: MW
LayerCount: 2
Fore
SplineSet
691 126 m 1
 726 91 l 1
 662 19 589 -15 495 -15 c 0
 401 -15 341 23 319 98 c 1
 276 23 209 -15 118 -15 c 0
 32 -15 -19 24 -19 90 c 0
 -19 153 27 196 128 228 c 0
 184 245 204 249 324 264 c 1
 337 314 341 334 341 360 c 0
 341 404 303 432 245 432 c 0
 215 432 194 425 194 415 c 0
 194 411 195 409 201 402 c 0
 216 384 223 369 223 354 c 0
 223 318 190 290 146 290 c 0
 102 290 68 323 68 366 c 0
 68 433 139 479 241 479 c 0
 328 479 379 459 421 410 c 1
 471 452 545 479 614 479 c 0
 704 479 774 426 774 358 c 0
 774 288 718 238 604 205 c 0
 558 191 514 184 456 181 c 1
 453 158 453 150 453 136 c 0
 453 79 486 44 539 44 c 0
 591 44 633 66 691 126 c 1
311 214 m 1
 200 204 139 167 139 109 c 0
 139 78 161 56 190 56 c 0
 222 56 253 77 277 113 c 1
 289 133 296 154 311 214 c 1
464 228 m 1
 478 230 486 231 495 233 c 0
 582 251 652 318 652 385 c 0
 652 414 635 432 609 432 c 0
 546 432 488 350 464 228 c 1
EndSplineSet
EndChar

StartChar: eth
Encoding: 240 240 176
Width: 574
Flags: MW
LayerCount: 2
Fore
SplineSet
507 737 m 1
 383 673 l 1
 500 539 540 448 540 310 c 0
 540 217 517 148 467 92 c 1
 409 25 317 -14 220 -14 c 0
 157 -14 105 4 70 37 c 0
 33 71 10 129 10 187 c 0
 10 344 154 479 321 479 c 0
 345 479 368 476 392 470 c 1
 382 524 360 569 313 638 c 1
 174 567 l 1
 148 618 l 1
 275 682 l 1
 260 701 237 720 195 747 c 1
 229 780 l 1
 271 762 301 744 338 715 c 1
 481 788 l 1
 507 737 l 1
320 432 m 0
 277 432 240 394 210 322 c 0
 184 259 165 168 165 107 c 0
 165 58 189 29 228 29 c 0
 272 29 308 63 335 134 c 0
 363 205 385 302 385 356 c 0
 385 401 358 432 320 432 c 0
EndSplineSet
EndChar

StartChar: divide
Encoding: 247 247 183
Width: 606
Flags: HMW
LayerCount: 2
Fore
SplineSet
295 136 m 0
 339 136 377 98 377 53 c 0
 377 7 339 -31 294 -31 c 0
 247 -31 210 7 210 53 c 0
 210 99 248 136 295 136 c 0
295 536 m 0
 339 536 377 498 377 453 c 0
 377 407 339 369 294 369 c 0
 247 369 210 407 210 453 c 0
 210 499 248 536 295 536 c 0
EndSplineSet
Refer: 708 8722 S 1 0 0 1 0 0 2
EndChar

StartChar: oslash
Encoding: 248 248 184
Width: 574
Flags: MW
LayerCount: 2
Fore
SplineSet
388 471 m 1
 449 578 l 1
 503 578 l 1
 433 457 l 1
 503 426 540 367 540 285 c 0
 540 116 401 -14 221 -14 c 0
 202 -14 187 -13 167 -10 c 1
 100 -126 l 1
 46 -126 l 1
 120 4 l 1
 50 35 10 101 10 187 c 0
 10 342 154 478 319 478 c 0
 340 478 360 476 388 471 c 1
167 86 m 1
 358 419 l 1
 346 427 333 431 319 431 c 0
 278 431 240 393 210 322 c 0
 184 259 165 167 165 108 c 0
 165 102 166 96 167 86 c 1
384 370 m 1
 194 38 l 1
 204 32 214 29 228 29 c 0
 273 29 308 63 335 133 c 0
 363 203 385 301 385 353 c 0
 385 356 385 361 384 370 c 1
EndSplineSet
EndChar

StartChar: thorn
Encoding: 254 254 190
Width: 648
Flags: MW
LayerCount: 2
Fore
SplineSet
380 737 m 1
 289 428 l 1
 334 465 370 479 418 479 c 0
 521 479 590 407 590 298 c 0
 590 134 453 -15 303 -15 c 0
 243 -15 205 5 177 50 c 1
 143 -65 l 2
 127 -120 127 -120 127 -129 c 0
 127 -147 144 -155 184 -155 c 2
 199 -155 l 1
 192 -202 l 1
 -118 -202 l 1
 -111 -155 l 1
 -107 -155 l 2
 -80 -155 -52 -149 -44 -141 c 0
 -35 -133 -35 -133 -15 -65 c 2
 177 581 l 2
 189 623 192 635 192 645 c 0
 192 670 180 676 130 676 c 2
 106 676 l 1
 113 722 l 1
 380 737 l 1
366 409 m 0
 329 409 299 386 270 335 c 0
 239 280 206 169 206 117 c 0
 206 76 237 43 275 43 c 0
 313 43 344 68 372 122 c 0
 405 187 430 279 430 336 c 0
 430 380 404 409 366 409 c 0
EndSplineSet
EndChar

StartChar: Aogonek
Encoding: 260 260 196
Width: 741
Flags: MW
LayerCount: 2
Fore
SplineSet
716 54 m 1
 709 0 l 1
 686 -22 677 -39 677 -62 c 0
 677 -84 689 -98 707 -98 c 0
 722 -98 736 -91 757 -75 c 1
 775 -106 l 1
 745 -151 711 -173 675 -173 c 0
 630 -173 598 -138 598 -91 c 0
 598 -56 612 -27 642 0 c 1
 335 0 l 1
 342 54 l 1
 358 54 l 2
 399 54 410 55 424 62 c 0
 434 66 441 76 441 85 c 0
 441 92 440 103 437 117 c 2
 417 220 l 1
 185 220 l 1
 139 139 l 2
 130 124 125 108 125 96 c 0
 125 67 150 54 206 54 c 2
 219 54 l 1
 211 0 l 1
 -75 0 l 1
 -68 54 l 1
 -62 54 l 2
 -18 54 33 93 71 157 c 2
 419 736 l 1
 481 736 l 1
 612 114 l 2
 622 67 641 54 702 54 c 2
 716 54 l 1
404 274 m 1
 358 515 l 1
 217 274 l 1
 404 274 l 1
EndSplineSet
Ligature2: "CCMP" A uni0328
EndChar

StartChar: aogonek
Encoding: 261 261 197
Width: 667
Flags: MW
LayerCount: 2
Fore
SplineSet
607 182 m 1
 646 157 l 1
 643 151 640 147 640 147 c 1
 592 78 l 1
 551 17 l 2
 522 -25 514 -43 514 -64 c 0
 514 -84 527 -99 544 -99 c 0
 559 -99 573 -92 594 -75 c 1
 612 -106 l 1
 582 -150 548 -173 512 -173 c 0
 467 -173 435 -138 435 -91 c 0
 435 -61 445 -36 467 -11 c 1
 453 -14 446 -15 437 -15 c 0
 396 -15 363 7 354 41 c 0
 351 49 351 51 351 73 c 1
 303 11 257 -14 188 -14 c 0
 87 -14 15 61 15 167 c 0
 15 329 153 479 301 479 c 0
 360 479 402 458 426 416 c 1
 440 464 l 1
 597 464 l 1
 499 132 l 1
 489 93 489 93 489 86 c 0
 489 78 496 70 503 70 c 0
 520 70 570 124 607 182 c 1
333 424 m 0
 292 424 258 393 227 328 c 0
 198 268 178 188 178 135 c 0
 178 87 202 56 239 56 c 0
 278 56 314 89 343 153 c 0
 373 217 395 301 395 351 c 0
 395 394 370 424 333 424 c 0
EndSplineSet
Ligature2: "CCMP" a uni0328
EndChar

StartChar: dcaron
Encoding: 271 271 207
Width: 780
Flags: MW
LayerCount: 2
Fore
SplineSet
651 411 m 1
 632 448 l 1
 715 485 755 526 755 572 c 1
 745 570 739 569 731 569 c 0
 687 569 661 595 661 640 c 0
 661 688 696 722 746 722 c 0
 802 722 840 680 840 618 c 0
 840 531 774 459 651 411 c 1
EndSplineSet
Refer: 69 100 S 1 0 0 1 0 0 2
LCarets2: 1 0 
Ligature2: "CCMP" d uni030C
EndChar

StartChar: dcroat
Encoding: 273 273 209
Width: 667
Flags: MW
LayerCount: 2
Fore
SplineSet
625 608 m 1
 695 608 l 1
 677 545 l 1
 606 545 l 1
 484 132 l 1
 474 93 474 93 474 85 c 0
 474 77 481 69 488 69 c 0
 506 69 554 121 593 182 c 1
 632 157 l 1
 615 128 593 97 566 66 c 0
 517 11 472 -15 422 -15 c 0
 369 -15 337 15 336 64 c 1
 336 71 l 1
 281 8 239 -14 174 -14 c 0
 72 -14 0 61 0 167 c 0
 0 328 138 478 286 478 c 0
 345 478 386 458 411 416 c 1
 449 545 l 1
 324 545 l 1
 342 608 l 1
 467 608 l 1
 473 630 474 636 474 644 c 0
 474 669 462 675 413 675 c 2
 381 675 l 1
 388 722 l 1
 663 736 l 1
 625 608 l 1
319 423 m 0
 278 423 243 392 213 328 c 0
 184 267 164 188 164 135 c 0
 164 86 187 56 224 56 c 0
 263 56 299 89 329 153 c 0
 358 216 380 300 380 351 c 0
 380 393 355 423 319 423 c 0
EndSplineSet
EndChar

StartChar: Eogonek
Encoding: 280 280 216
Width: 741
Flags: MW
LayerCount: 2
Fore
SplineSet
668 248 m 1
 602 0 l 1
 579 -22 570 -39 570 -62 c 0
 570 -84 582 -98 600 -98 c 0
 615 -98 629 -92 650 -75 c 1
 668 -106 l 1
 638 -150 604 -173 568 -173 c 0
 523 -173 491 -138 491 -91 c 0
 491 -56 505 -27 535 0 c 1
 -41 0 l 1
 -34 54 l 1
 -30 54 l 2
 39 54 51 60 62 102 c 2
 73 144 l 1
 190 578 l 2
 199 613 203 632 203 641 c 0
 203 663 189 668 124 668 c 2
 105 668 l 1
 113 722 l 1
 728 722 l 1
 688 477 l 1
 636 477 l 1
 635 540 629 577 615 604 c 1
 595 646 548 668 478 668 c 2
 440 668 l 2
 399 668 388 659 377 620 c 2
 318 401 l 1
 339 401 l 2
 426 401 471 434 505 523 c 1
 558 516 l 1
 468 181 l 1
 415 188 l 1
 419 218 420 232 420 250 c 0
 420 315 389 347 326 347 c 2
 304 347 l 1
 241 111 l 2
 237 98 235 85 235 79 c 0
 235 61 251 54 289 54 c 2
 325 54 l 2
 405 54 463 79 528 141 c 0
 566 177 593 213 616 259 c 1
 668 248 l 1
EndSplineSet
Ligature2: "CCMP" E uni0328
EndChar

StartChar: eogonek
Encoding: 281 281 217
Width: 519
Flags: MW
LayerCount: 2
Fore
SplineSet
395 126 m 1
 430 91 l 1
 423 83 418 78 417 77 c 2
 360 30 l 2
 329 5 307 -35 307 -65 c 0
 307 -84 320 -99 337 -99 c 0
 352 -99 366 -92 386 -75 c 1
 405 -106 l 1
 375 -151 341 -173 304 -173 c 0
 260 -173 228 -138 228 -91 c 0
 228 -60 238 -36 262 -9 c 1
 238 -13 223 -14 202 -14 c 0
 70 -14 -2 51 -2 171 c 0
 -2 335 146 479 314 479 c 0
 408 479 478 427 478 358 c 0
 478 288 422 238 308 205 c 0
 261 191 218 184 159 181 c 1
 157 155 157 149 157 137 c 0
 157 80 190 45 243 45 c 0
 295 45 335 66 395 126 c 1
168 228 m 1
 201 233 218 237 238 244 c 0
 306 270 356 330 356 385 c 0
 356 414 339 432 312 432 c 0
 250 432 191 350 168 228 c 1
EndSplineSet
Ligature2: "CCMP" e uni0328
EndChar

StartChar: Gbreve
Encoding: 286 286 222
Width: 815
Flags: MW
LayerCount: 2
Fore
SplineSet
369 941 m 1
 418 941 l 1
 423 882 454 856 518 856 c 0
 580 856 632 891 645 941 c 1
 691 941 l 1
 688 905 674 869 648 839 c 1
 614 797 567 777 506 777 c 0
 416 777 367 826 367 915 c 0
 367 923 367 929 369 941 c 1
EndSplineSet
Refer: 40 71 S 1 0 0 1 0 0 2
Ligature2: "CCMP" G uni0306
EndChar

StartChar: gcommaaccent
Encoding: 291 291 227
Width: 630
Flags: HMW
LayerCount: 2
Fore
SplineSet
446 842 m 1
 465 806 l 1
 382 768 342 728 341 682 c 1
 352 684 358 685 366 685 c 0
 410 685 436 659 436 614 c 0
 436 565 401 531 351 531 c 0
 295 531 257 573 257 635 c 0
 257 722 323 794 446 842 c 1
EndSplineSet
Refer: 72 103 S 1 0 0 1 0 0 2
Ligature2: "CCMP" g uni0327
EndChar

StartChar: Hbar
Encoding: 294 294 230
Width: 870
Flags: MW
LayerCount: 2
Fore
SplineSet
778 504 m 1
 681 144 l 2
 673 112 668 90 668 81 c 0
 668 59 682 54 747 54 c 2
 769 54 l 1
 762 0 l 1
 383 0 l 1
 390 54 l 1
 402 54 l 2
 444 54 468 58 478 68 c 0
 487 76 487 76 505 144 c 2
 558 340 l 1
 302 340 l 1
 250 144 l 2
 240 110 236 89 236 81 c 0
 236 59 250 54 315 54 c 2
 326 54 l 1
 318 0 l 1
 -41 0 l 1
 -34 54 l 1
 -30 54 l 2
 39 54 51 60 62 102 c 0
 65 114 70 130 73 144 c 2
 170 504 l 1
 83 504 l 1
 104 580 l 1
 191 580 l 1
 199 613 203 632 203 641 c 0
 203 663 189 668 124 668 c 2
 105 668 l 1
 113 722 l 1
 488 722 l 1
 481 668 l 1
 469 668 l 2
 427 668 403 664 393 654 c 1
 384 647 384 647 367 580 c 1
 622 580 l 1
 631 614 635 632 635 641 c 0
 635 663 621 668 556 668 c 2
 545 668 l 1
 553 722 l 1
 912 722 l 1
 905 668 l 1
 901 668 l 2
 859 668 835 664 824 654 c 0
 816 647 816 647 799 580 c 1
 881 580 l 1
 860 504 l 1
 778 504 l 1
601 504 m 1
 346 504 l 1
 318 401 l 1
 574 401 l 1
 601 504 l 1
EndSplineSet
EndChar

StartChar: hbar
Encoding: 295 295 231
Width: 685
Flags: MW
LayerCount: 2
Fore
SplineSet
154 519 m 1
 70 519 l 1
 91 595 l 1
 176 595 l 1
 185 623 187 636 187 644 c 0
 187 669 175 675 125 675 c 2
 101 675 l 1
 108 722 l 1
 376 736 l 1
 334 595 l 1
 425 595 l 1
 404 519 l 1
 311 519 l 1
 266 366 l 1
 329 444 388 479 454 479 c 0
 519 479 566 436 566 376 c 0
 566 343 557 307 536 248 c 2
 489 120 l 2
 478 90 478 90 478 82 c 0
 478 74 485 66 492 66 c 0
 510 66 535 91 589 166 c 0
 592 169 595 173 598 177 c 1
 637 152 l 1
 559 32 499 -15 426 -15 c 0
 364 -15 324 20 324 76 c 0
 324 102 327 114 345 163 c 2
 406 332 l 2
 412 348 415 361 415 368 c 0
 415 382 400 395 386 395 c 0
 362 395 329 370 292 325 c 0
 249 273 223 221 195 127 c 2
 157 0 l 1
 0 0 l 1
 154 519 l 1
EndSplineSet
EndChar

StartChar: Iogonek
Encoding: 302 302 238
Width: 444
Flags: MW
LayerCount: 2
Fore
SplineSet
486 722 m 1
 479 668 l 1
 472 668 l 2
 430 668 406 664 396 654 c 1
 387 647 387 647 369 578 c 2
 253 144 l 2
 239 89 239 89 239 81 c 0
 239 59 253 54 318 54 c 2
 340 54 l 1
 332 0 l 1
 309 -22 300 -39 300 -62 c 0
 300 -84 312 -98 330 -98 c 0
 345 -98 359 -92 380 -75 c 1
 398 -106 l 1
 368 -150 335 -173 298 -173 c 0
 253 -173 221 -138 221 -91 c 0
 221 -56 235 -27 265 0 c 1
 -41 0 l 1
 -34 54 l 1
 -27 54 l 2
 15 54 39 58 49 68 c 0
 58 76 58 76 76 144 c 2
 192 578 l 2
 202 612 206 632 206 641 c 0
 206 663 192 668 127 668 c 2
 105 668 l 1
 113 722 l 1
 486 722 l 1
EndSplineSet
Ligature2: "CCMP" I uni0328
EndChar

StartChar: iogonek
Encoding: 303 303 239
Width: 389
Flags: MW
LayerCount: 2
Fore
SplineSet
304 177 m 1
 343 149 l 1
 309 93 299 81 239 21 c 0
 211 -7 195 -38 195 -65 c 0
 195 -84 208 -99 225 -99 c 0
 240 -99 254 -92 275 -75 c 1
 293 -106 l 1
 263 -150 229 -173 193 -173 c 0
 148 -173 116 -138 116 -91 c 0
 116 -62 125 -38 145 -14 c 1
 115 -14 98 -11 79 -2 c 0
 52 12 32 45 32 76 c 0
 32 95 34 104 47 149 c 2
 98 319 l 2
 109 356 113 375 113 386 c 0
 113 411 101 417 52 417 c 2
 28 417 l 1
 35 464 l 1
 302 478 l 1
 197 122 l 2
 188 91 187 88 187 80 c 0
 187 71 194 64 203 64 c 0
 223 64 256 101 304 177 c 1
248 737 m 0
 295 737 333 699 333 652 c 0
 333 605 295 567 247 567 c 0
 202 567 163 606 163 652 c 0
 163 699 201 737 248 737 c 0
EndSplineSet
Ligature2: "CCMP" dotlessi uni0328
EndChar

StartChar: dotlessi
Encoding: 305 305 241
Width: 389
Flags: MW
LayerCount: 2
Fore
SplineSet
312 478 m 1
 207 122 l 2
 198 91 197 88 197 80 c 0
 197 71 204 64 213 64 c 0
 233 64 266 101 314 177 c 1
 353 149 l 1
 285 35 222 -15 146 -15 c 0
 86 -15 42 23 42 75 c 0
 42 94 44 105 57 149 c 2
 108 319 l 2
 119 356 123 375 123 386 c 0
 123 411 111 417 62 417 c 2
 38 417 l 1
 45 464 l 1
 312 478 l 1
EndSplineSet
EndChar

StartChar: kgreenlandic
Encoding: 312 312 248
Width: 701
Flags: MW
LayerCount: 2
Fore
SplineSet
323 478 m 1
 268 272 l 1
 330 272 l 2
 404 272 363 492 565 492 c 0
 602 492 642 486 642 446 c 0
 642 440 641 434 639 426 c 0
 621 362 582 356 552 354 c 1
 519 355 499 366 499 388 c 0
 499 392 500 396 501 400 c 0
 506 418 528 430 528 436 c 0
 528 439 523 440 509 440 c 0
 471 440 487 268 354 238 c 1
 454 238 469 188 469 139 c 0
 469 118 466 98 466 82 c 0
 466 63 470 51 486 51 c 0
 513 51 527 84 533 116 c 1
 596 115 l 1
 562 -12 497 -14 430 -14 c 0
 358 -14 321 26 321 77 c 0
 321 87 322 97 325 107 c 0
 330 124 335 145 335 162 c 0
 335 183 327 200 297 200 c 2
 248 200 l 1
 194 0 l 1
 38 0 l 1
 124 319 l 2
 134 357 139 375 139 386 c 0
 139 411 127 417 78 417 c 2
 54 417 l 1
 61 464 l 1
 323 478 l 1
EndSplineSet
EndChar

StartChar: Lcaron
Encoding: 317 317 253
Width: 704
Flags: MW
LayerCount: 2
Fore
SplineSet
595 411 m 1
 576 448 l 1
 659 485 699 526 699 572 c 1
 689 570 683 569 675 569 c 0
 631 569 605 595 605 640 c 0
 605 688 640 722 690 722 c 0
 746 722 784 680 784 618 c 0
 784 531 718 459 595 411 c 1
EndSplineSet
Refer: 45 76 S 1 0 0 1 0 0 2
LCarets2: 1 0 
Ligature2: "CCMP" L uni030C
EndChar

StartChar: lcaron
Encoding: 318 318 254
Width: 486
Flags: MW
LayerCount: 2
Fore
SplineSet
357 411 m 1
 338 448 l 1
 421 485 461 526 461 572 c 1
 451 570 445 569 437 569 c 0
 393 569 367 595 367 640 c 0
 367 688 402 722 452 722 c 0
 508 722 546 680 546 618 c 0
 546 531 480 459 357 411 c 1
EndSplineSet
Refer: 77 108 S 1 0 0 1 0 0 2
LCarets2: 1 0 
Ligature2: "CCMP" l uni030C
EndChar

StartChar: Ldot
Encoding: 319 319 255
Width: 704
Flags: HMW
LayerCount: 2
Fore
SplineSet
474 446 m 0
 522 446 561 407 561 359 c 0
 561 311 522 272 473 272 c 0
 426 272 387 312 387 359 c 0
 387 407 426 446 474 446 c 0
EndSplineSet
Refer: 45 76 N 1 0 0 1 0 0 2
LCarets2: 1 0 
Ligature2: "CCMP" L periodcentered
EndChar

StartChar: ldot
Encoding: 320 320 256
Width: 564
Flags: HMW
LayerCount: 2
Fore
SplineSet
429 435 m 0
 477 435 516 396 516 348 c 0
 516 300 477 261 428 261 c 0
 381 261 342 301 342 348 c 0
 342 396 381 435 429 435 c 0
EndSplineSet
Refer: 77 108 N 1 0 0 1 0 0 2
LCarets2: 1 0 
Ligature2: "CCMP" l periodcentered
EndChar

StartChar: Lslash
Encoding: 321 321 257
Width: 704
Flags: MW
LayerCount: 2
Fore
SplineSet
100 243 m 1
 0 185 l 1
 16 267 l 1
 122 326 l 1
 190 578 l 2
 199 613 203 632 203 641 c 0
 203 663 189 668 124 668 c 2
 105 668 l 1
 113 722 l 1
 495 722 l 1
 487 668 l 1
 469 668 l 2
 400 668 388 662 377 620 c 2
 366 578 l 1
 319 407 l 1
 508 513 l 1
 486 431 l 1
 297 324 l 1
 250 144 l 2
 240 107 236 89 236 80 c 0
 236 60 249 54 289 54 c 2
 325 54 l 2
 405 54 463 79 528 141 c 0
 570 180 596 217 618 266 c 1
 670 255 l 1
 602 0 l 1
 -41 0 l 1
 -34 54 l 1
 -30 54 l 2
 39 54 51 60 62 102 c 0
 67 119 70 131 73 144 c 2
 100 243 l 1
EndSplineSet
EndChar

StartChar: lslash
Encoding: 322 322 258
Width: 389
Flags: MW
LayerCount: 2
Fore
SplineSet
307 441 m 1
 397 495 l 1
 371 410 l 1
 281 355 l 1
 212 122 l 2
 203 91 202 88 202 79 c 0
 202 70 209 63 218 63 c 0
 233 63 251 78 278 112 c 0
 300 139 313 158 324 176 c 1
 363 149 l 1
 342 111 312 74 277 41 c 0
 236 2 198 -15 151 -15 c 0
 91 -15 50 22 50 76 c 0
 50 98 56 128 72 182 c 2
 106 295 l 1
 26 246 l 1
 50 331 l 1
 131 380 l 1
 190 578 l 2
 202 617 206 634 206 644 c 0
 206 669 194 675 145 675 c 2
 121 675 l 1
 128 722 l 1
 395 736 l 1
 307 441 l 1
EndSplineSet
EndChar

StartChar: Eng
Encoding: 330 330 266
Width: 704
Flags: MW
LayerCount: 2
Fore
SplineSet
562 0 m 1
 240 526 l 1
 147 124 l 2
 143 108 142 96 142 87 c 0
 142 53 165 53 225 46 c 1
 215 0 l 1
 -16 0 l 1
 -10 44 l 1
 67 53 85 48 98 105 c 2
 208 579 l 1
 171 636 156 642 136 642 c 1
 143 676 l 1
 358 676 l 1
 616 247 l 1
 687 552 l 2
 690 567 692 579 692 589 c 0
 692 627 667 633 609 639 c 1
 621 676 l 1
 840 676 l 1
 831 641 l 1
 762 631 749 628 736 571 c 2
 602 -8 l 2
 572 -137 547 -227 437 -227 c 2
 435 -227 l 2
 394 -227 356 -218 332 -204 c 1
 304 -185 287 -151 287 -116 c 0
 287 -109 287 -102 289 -95 c 0
 298 -57 339 -23 377 -23 c 0
 411 -23 436 -49 436 -81 c 0
 436 -87 435 -92 434 -98 c 0
 431 -113 426 -121 411 -136 c 0
 399 -148 395 -154 393 -162 c 0
 392 -164 392 -167 392 -169 c 0
 392 -184 407 -194 431 -194 c 0
 476 -194 523 -169 537 -107 c 2
 562 0 l 1
EndSplineSet
EndChar

StartChar: eng
Encoding: 331 331 267
Width: 542
Flags: MW
LayerCount: 2
Fore
SplineSet
28 0 m 1
 122 378 l 2
 124 387 126 394 126 399 c 0
 126 416 110 410 76 415 c 1
 88 461 l 1
 292 461 l 1
 273 386 l 1
 327 445 382 473 446 473 c 0
 519 473 561 435 561 373 c 0
 561 360 559 346 556 332 c 2
 471 2 l 1
 457 -57 438 -95 409 -127 c 1
 367 -176 304 -203 230 -203 c 0
 153 -203 104 -171 104 -123 c 0
 104 -117 105 -110 107 -103 c 0
 116 -67 149 -42 188 -42 c 0
 218 -42 239 -60 239 -85 c 0
 239 -88 239 -92 238 -96 c 0
 235 -106 228 -117 213 -133 c 0
 202 -146 199 -153 199 -157 c 0
 199 -166 210 -172 228 -172 c 0
 262 -172 284 -149 297 -96 c 2
 404 323 l 1
 407 339 409 352 409 363 c 0
 409 392 397 406 371 406 c 0
 347 406 318 394 288 371 c 0
 275 362 265 352 264 348 c 2
 180 0 l 1
 28 0 l 1
EndSplineSet
EndChar

StartChar: OE
Encoding: 338 338 274
Width: 963
Flags: MW
LayerCount: 2
Fore
SplineSet
980 722 m 1
 940 477 l 1
 891 477 l 1
 891 549 887 578 873 604 c 0
 851 646 814 668 764 668 c 2
 747 668 l 2
 719 668 706 655 697 620 c 2
 638 401 l 1
 648 401 l 2
 713 401 759 441 791 523 c 1
 837 516 l 1
 747 181 l 1
 701 188 l 1
 705 218 706 231 706 249 c 0
 706 306 676 347 635 347 c 2
 624 347 l 1
 560 111 l 2
 557 99 555 86 555 79 c 0
 555 64 571 54 596 54 c 2
 624 54 l 2
 673 54 746 91 795 141 c 1
 832 177 857 214 879 259 c 1
 928 248 l 1
 862 0 l 1
 307 0 l 2
 231 0 172 16 125 48 c 0
 58 94 19 181 19 281 c 0
 19 418 88 557 199 642 c 0
 277 701 349 722 478 722 c 2
 980 722 l 1
397 157 m 2
 498 534 l 2
 505 560 509 589 509 609 c 0
 509 648 485 668 440 668 c 0
 374 668 327 633 280 551 c 0
 225 453 189 322 189 218 c 0
 189 167 197 130 216 99 c 0
 235 67 261 54 304 54 c 0
 354 54 375 78 397 157 c 2
EndSplineSet
EndChar

StartChar: oe
Encoding: 339 339 275
Width: 852
Flags: MW
LayerCount: 2
Fore
SplineSet
727 126 m 1
 761 91 l 1
 700 21 625 -15 539 -15 c 0
 470 -15 431 1 385 46 c 1
 323 -1 283 -14 208 -14 c 0
 142 -14 90 3 55 37 c 1
 17 72 -5 129 -5 188 c 0
 -5 344 139 479 307 479 c 0
 377 479 424 459 465 412 c 1
 519 458 575 479 644 479 c 0
 740 479 810 428 810 358 c 0
 810 288 754 238 640 205 c 0
 593 191 550 184 491 181 c 1
 489 159 488 150 488 137 c 0
 488 79 521 44 575 44 c 0
 627 44 669 67 727 126 c 1
305 432 m 0
 262 432 225 394 195 322 c 0
 169 259 150 168 150 108 c 0
 150 58 174 29 214 29 c 0
 258 29 293 64 320 134 c 0
 348 204 370 302 370 354 c 0
 370 401 344 432 305 432 c 0
500 228 m 1
 532 233 550 237 569 244 c 0
 638 270 688 330 688 385 c 0
 688 413 671 432 644 432 c 0
 582 432 524 350 500 228 c 1
EndSplineSet
EndChar

StartChar: tcaron
Encoding: 357 357 293
Width: 483
Flags: MW
LayerCount: 2
Fore
SplineSet
300 183 m 1
 337 156 l 1
 299 98 289 86 269 64 c 0
 220 12 170 -14 119 -14 c 0
 66 -14 24 23 24 69 c 0
 24 88 29 116 38 146 c 0
 41 155 45 168 49 183 c 2
 114 403 l 1
 27 403 l 1
 45 464 l 1
 132 464 l 1
 188 650 l 1
 345 650 l 1
 290 464 l 1
 367 464 l 1
 425 494 459 533 459 570 c 2
 459 572 l 1
 448 570 442 569 434 569 c 0
 390 569 364 595 364 640 c 0
 364 688 399 722 449 722 c 0
 505 722 543 680 543 618 c 0
 543 541 493 478 394 429 c 1
 386 403 l 1
 272 403 l 1
 202 167 l 2
 190 126 181 91 181 84 c 0
 181 75 188 66 196 66 c 0
 216 66 262 117 300 183 c 1
EndSplineSet
LCarets2: 1 0 
Ligature2: "CCMP" t uni030C
EndChar

StartChar: Tbar
Encoding: 358 358 294
Width: 722
Flags: MW
LayerCount: 2
Fore
SplineSet
258 348 m 1
 180 348 l 1
 201 424 l 1
 278 424 l 1
 333 629 l 2
 336 639 337 648 337 653 c 0
 337 663 327 668 309 668 c 0
 224 668 163 603 94 439 c 1
 44 455 l 1
 115 722 l 1
 762 722 l 1
 718 439 l 1
 665 444 l 1
 667 467 668 492 668 504 c 0
 668 609 626 668 550 668 c 0
 521 668 519 666 507 623 c 2
 454 424 l 1
 535 424 l 1
 514 348 l 1
 434 348 l 1
 379 144 l 2
 367 100 365 90 365 81 c 0
 365 59 379 54 445 54 c 2
 470 54 l 1
 463 0 l 1
 66 0 l 1
 73 54 l 1
 100 54 l 2
 142 54 166 58 176 68 c 0
 185 76 185 76 203 144 c 2
 258 348 l 1
EndSplineSet
EndChar

StartChar: tbar
Encoding: 359 359 295
Width: 407
Flags: MW
LayerCount: 2
Fore
SplineSet
232 269 m 1
 202 167 l 2
 190 126 181 91 181 84 c 0
 181 75 188 66 196 66 c 0
 216 66 262 117 300 183 c 1
 337 156 l 1
 299 98 289 86 269 64 c 0
 220 12 170 -14 119 -14 c 0
 66 -14 24 23 24 69 c 0
 24 88 29 116 38 146 c 0
 41 155 45 168 49 183 c 2
 74 269 l 1
 4 269 l 1
 25 345 l 1
 97 345 l 1
 114 403 l 1
 27 403 l 1
 45 464 l 1
 132 464 l 1
 188 650 l 1
 345 650 l 1
 290 464 l 1
 404 464 l 1
 386 403 l 1
 272 403 l 1
 255 345 l 1
 359 345 l 1
 338 269 l 1
 232 269 l 1
EndSplineSet
EndChar

StartChar: Uogonek
Encoding: 370 370 306
Width: 833
Flags: MW
LayerCount: 2
Fore
SplineSet
621 722 m 1
 895 722 l 1
 888 668 l 1
 885 668 l 2
 859 668 828 657 810 641 c 0
 782 616 779 609 749 506 c 1
 675 227 l 1
 644 120 636 108 541 24 c 0
 518 3 497 -39 497 -63 c 0
 497 -83 510 -98 528 -98 c 0
 542 -98 556 -92 577 -75 c 1
 595 -106 l 1
 565 -150 531 -173 495 -173 c 0
 450 -173 418 -138 418 -91 c 0
 418 -59 428 -35 453 -8 c 1
 423 -13 400 -15 369 -15 c 0
 301 -15 243 -3 200 19 c 1
 135 54 88 127 88 196 c 0
 88 224 94 261 105 303 c 2
 179 578 l 2
 191 624 193 632 193 641 c 0
 193 663 179 668 113 668 c 2
 95 668 l 1
 102 722 l 1
 478 722 l 1
 470 668 l 1
 458 668 l 2
 416 668 392 664 382 654 c 0
 373 646 373 646 355 578 c 2
 274 274 l 2
 263 234 259 210 259 186 c 0
 259 98 314 47 409 47 c 0
 464 47 506 65 544 106 c 1
 578 140 594 175 615 254 c 2
 682 506 l 2
 703 585 704 592 704 613 c 0
 704 651 675 668 614 668 c 1
 621 722 l 1
EndSplineSet
Ligature2: "CCMP" U uni0328
EndChar

StartChar: uogonek
Encoding: 371 371 307
Width: 685
Flags: MW
LayerCount: 2
Fore
SplineSet
439 464 m 1
 597 464 l 1
 504 152 l 2
 488 96 488 96 488 85 c 0
 488 78 495 71 502 71 c 0
 519 71 559 114 601 180 c 1
 639 152 l 1
 626 133 622 126 611 111 c 0
 606 103 601 96 596 91 c 0
 583 75 569 60 556 45 c 0
 527 11 503 -39 503 -65 c 0
 503 -84 516 -99 533 -99 c 0
 548 -99 562 -92 583 -75 c 1
 601 -106 l 1
 571 -150 537 -173 501 -173 c 0
 456 -173 424 -138 424 -91 c 0
 424 -61 434 -37 455 -12 c 1
 443 -14 436 -14 427 -14 c 0
 363 -14 330 15 330 71 c 0
 330 79 330 87 331 97 c 1
 266 19 212 -14 148 -14 c 0
 82 -14 38 30 38 95 c 0
 38 122 42 142 59 198 c 2
 94 319 l 2
 106 358 110 376 110 386 c 0
 110 411 98 417 49 417 c 2
 39 417 l 1
 46 464 l 1
 299 478 l 1
 209 174 l 2
 206 166 202 150 197 133 c 0
 195 126 193 118 190 109 c 0
 189 103 188 98 188 95 c 0
 188 82 200 70 213 70 c 0
 239 70 287 109 323 159 c 0
 353 200 375 247 391 299 c 2
 439 464 l 1
EndSplineSet
Ligature2: "CCMP" u uni0328
EndChar

StartChar: longs
Encoding: 383 383 319
Width: 389
Flags: MW
LayerCount: 2
Fore
SplineSet
234 189 m 1
 204 48 168 -83 133 -179 c 1
 -48 -205 l 1
 -20 -161 21 -42 69 133 c 1
 133 403 l 1
 34 403 l 1
 51 464 l 1
 149 464 l 1
 176 561 201 614 241 658 c 0
 291 712 346 737 413 737 c 0
 493 737 550 691 550 627 c 0
 550 581 517 548 472 548 c 0
 433 548 404 576 404 614 c 0
 404 634 408 645 428 671 c 0
 431 674 433 678 433 680 c 0
 433 686 423 690 411 690 c 0
 363 690 341 651 305 505 c 0
 279 402 258 294 234 189 c 1
EndSplineSet
EndChar

StartChar: uni018F
Encoding: 399 399 320
Width: 691
Flags: MW
LayerCount: 2
Fore
SplineSet
108 452 m 1
 61 499 l 1
 145 593 244 639 365 639 c 0
 541 639 637 552 637 392 c 0
 637 173 440 -19 216 -19 c 0
 91 -19 -3 51 -3 143 c 0
 -3 236 72 303 224 347 c 0
 287 365 344 375 423 379 c 1
 425 413 425 421 425 437 c 0
 425 513 381 560 311 560 c 0
 241 560 188 532 108 452 c 1
411 316 m 1
 367 309 344 304 317 295 c 1
 227 260 160 180 160 107 c 0
 160 68 183 44 219 44 c 0
 301 44 380 153 411 316 c 1
EndSplineSet
EndChar

StartChar: florin
Encoding: 402 402 321
Width: 574
Flags: MW
LayerCount: 2
Fore
SplineSet
518 446 m 1
 510 389 l 1
 371 389 l 1
 355 298 l 2
 353 284 320 116 314 83 c 0
 276 -100 189 -204 74 -204 c 0
 14 -204 -27 -169 -27 -119 c 0
 -27 -74 6 -40 50 -40 c 0
 83 -40 107 -61 107 -90 c 0
 107 -107 99 -129 89 -140 c 0
 82 -147 81 -148 81 -150 c 0
 81 -155 87 -159 95 -159 c 0
 120 -159 140 -136 150 -96 c 0
 158 -66 160 -59 171 13 c 2
 198 179 l 1
 232 389 l 1
 114 389 l 1
 123 446 l 1
 244 446 l 1
 265 539 283 588 315 636 c 0
 357 699 422 737 485 737 c 0
 546 737 588 701 588 649 c 0
 588 604 558 573 516 573 c 0
 479 573 454 596 454 630 c 0
 454 647 457 653 474 673 c 0
 476 676 478 682 478 685 c 0
 478 688 473 691 467 691 c 0
 453 691 437 681 428 666 c 0
 413 641 407 618 395 537 c 2
 381 446 l 1
 518 446 l 1
EndSplineSet
EndChar

StartChar: uni0237
Encoding: 567 567 345
Width: 370
Flags: MW
LayerCount: 2
Fore
SplineSet
359 478 m 1
 240 75 l 6
 209 -28 193 -65 154 -112 c 5
 107 -171 45 -202 -24 -202 c 4
 -108 -202 -170 -155 -170 -90 c 4
 -170 -41 -138 -7 -92 -7 c 4
 -46 -7 -18 -36 -18 -82 c 4
 -18 -108 -23 -117 -46 -131 c 4
 -50 -133 -52 -137 -52 -141 c 4
 -52 -148 -45 -153 -35 -153 c 4
 4 -153 25 -119 60 0 c 6
 155 319 l 2
 166 357 170 375 170 386 c 0
 170 411 158 417 109 417 c 2
 77 417 l 1
 84 464 l 1
 359 478 l 1
EndSplineSet
EndChar

StartChar: uni0259
Encoding: 601 601 346
Width: 519
Flags: MW
LayerCount: 2
Fore
SplineSet
81 339 m 1
 46 374 l 1
 109 445 183 479 274 479 c 0
 406 479 478 414 478 294 c 0
 478 130 330 -14 162 -14 c 0
 68 -14 -2 38 -2 107 c 0
 -2 177 54 227 168 260 c 0
 215 274 258 281 317 284 c 1
 319 310 319 316 319 328 c 0
 319 385 286 420 233 420 c 0
 181 420 141 399 81 339 c 1
308 237 m 1
 275 232 258 228 238 221 c 0
 170 195 120 135 120 80 c 0
 120 51 137 33 164 33 c 0
 226 33 285 115 308 237 c 1
EndSplineSet
EndChar

StartChar: circumflex
Encoding: 710 710 347
Width: 333
Flags: MW
LayerCount: 2
Fore
SplineSet
23 535 m 1
 180 709 l 1
 281 709 l 1
 365 535 l 1
 306 535 l 1
 216 621 l 1
 90 535 l 1
 23 535 l 1
EndSplineSet
EndChar

StartChar: caron
Encoding: 711 711 348
Width: 333
Flags: MW
LayerCount: 2
Fore
SplineSet
403 711 m 1
 246 535 l 1
 144 535 l 1
 60 711 l 1
 119 711 l 1
 209 623 l 1
 335 711 l 1
 403 711 l 1
EndSplineSet
EndChar

StartChar: breve
Encoding: 728 728 349
Width: 333
Flags: MW
LayerCount: 2
Fore
SplineSet
69 701 m 1
 115 701 l 1
 120 641 150 616 216 616 c 0
 278 616 330 650 343 701 c 1
 390 701 l 1
 387 665 373 629 348 599 c 0
 313 557 267 537 206 537 c 0
 118 537 67 586 67 672 c 0
 67 678 68 688 69 701 c 1
EndSplineSet
EndChar

StartChar: dotaccent
Encoding: 729 729 350
Width: 333
Flags: MW
LayerCount: 2
Fore
SplineSet
217 685 m 0
 256 685 288 653 288 614 c 0
 288 574 256 542 216 542 c 0
 177 542 145 575 145 614 c 0
 145 653 177 685 217 685 c 0
EndSplineSet
EndChar

StartChar: ring
Encoding: 730 730 351
Width: 333
Flags: MW
LayerCount: 2
Fore
SplineSet
225 745 m 0
 284 745 332 697 332 638 c 0
 332 578 284 530 223 530 c 0
 166 530 117 579 117 638 c 0
 117 696 166 745 225 745 c 0
225 691 m 0
 195 691 171 667 171 637 c 0
 171 609 195 584 224 584 c 0
 254 584 278 608 278 638 c 0
 278 667 254 691 225 691 c 0
EndSplineSet
EndChar

StartChar: ogonek
Encoding: 731 731 352
Width: 333
Flags: MW
LayerCount: 2
Fore
SplineSet
112 0 m 1
 179 0 l 1
 156 -22 147 -39 147 -63 c 0
 147 -84 159 -99 177 -99 c 0
 192 -99 206 -92 227 -75 c 1
 245 -106 l 1
 215 -150 181 -173 145 -173 c 0
 100 -173 68 -138 68 -91 c 0
 68 -56 82 -27 112 0 c 1
EndSplineSet
EndChar

StartChar: tilde
Encoding: 732 732 353
Width: 333
Flags: MW
LayerCount: 2
Fore
SplineSet
357 683 m 1
 404 683 l 1
 401 616 343 557 280 557 c 0
 259 557 234 563 195 578 c 0
 150 596 138 599 123 599 c 0
 101 599 86 584 81 557 c 1
 34 557 l 1
 39 630 92 683 158 683 c 0
 178 683 204 677 237 664 c 0
 285 645 292 643 307 643 c 0
 332 643 349 657 357 683 c 1
EndSplineSet
EndChar

StartChar: hungarumlaut
Encoding: 733 733 354
Width: 333
Flags: MW
LayerCount: 2
Fore
SplineSet
23 542 m 1
 146 664 l 2
 186 705 193 709 217 709 c 0
 247 709 271 686 271 657 c 0
 271 639 259 620 243 613 c 2
 77 542 l 1
 23 542 l 1
224 542 m 1
 347 664 l 2
 387 705 394 709 418 709 c 0
 448 709 472 686 472 657 c 0
 472 639 460 620 444 613 c 2
 278 542 l 1
 224 542 l 1
EndSplineSet
EndChar

StartChar: uni0324
Encoding: 804 804 368
Width: 0
Flags: MW
LayerCount: 2
Fore
SplineSet
-381 -113 m 0
 -350 -113 -325 -138 -325 -169 c 0
 -325 -201 -350 -226 -382 -226 c 0
 -413 -226 -438 -200 -438 -169 c 0
 -438 -138 -413 -113 -381 -113 c 0
-209 -113 m 0
 -178 -113 -153 -138 -153 -169 c 0
 -153 -201 -178 -226 -210 -226 c 0
 -241 -226 -266 -200 -266 -169 c 0
 -266 -138 -241 -113 -209 -113 c 0
EndSplineSet
EndChar

StartChar: uni0325
Encoding: 805 805 369
Width: 0
Flags: MW
LayerCount: 2
Fore
SplineSet
-288 -68 m 2
 -289 -68 l 2
 -242 -68 -204 -106 -204 -153 c 0
 -204 -201 -242 -239 -290 -239 c 0
 -335 -239 -374 -200 -374 -153 c 0
 -374 -107 -335 -68 -288 -68 c 2
-289 -111 m 0
 -313 -111 -332 -130 -332 -154 c 0
 -332 -176 -313 -196 -290 -196 c 0
 -266 -196 -247 -177 -247 -153 c 0
 -247 -130 -266 -111 -289 -111 c 0
EndSplineSet
EndChar

StartChar: uni0326
Encoding: 806 806 370
Width: 0
Flags: MW
AnchorPoint: "Bottom" -275 0 mark 0
LayerCount: 2
Fore
SplineSet
-390 -371 m 1
 -409 -334 l 1
 -326 -297 -286 -256 -286 -211 c 1
 -296 -212 -302 -213 -310 -213 c 0
 -354 -213 -380 -187 -380 -142 c 0
 -380 -94 -345 -60 -295 -60 c 0
 -239 -60 -201 -102 -201 -164 c 0
 -201 -251 -267 -323 -390 -371 c 1
EndSplineSet
EndChar

StartChar: uni032E
Encoding: 814 814 373
Width: 0
Flags: MW
LayerCount: 2
Fore
SplineSet
-411 -102 m 1
 -373 -101 l 1
 -369 -149 -345 -169 -293 -169 c 0
 -244 -169 -203 -142 -193 -102 c 1
 -156 -102 l 1
 -158 -130 -169 -158 -189 -182 c 0
 -217 -215 -253 -231 -301 -231 c 0
 -371 -231 -411 -192 -411 -124 c 2
 -411 -102 l 1
EndSplineSet
EndChar

StartChar: uni0330
Encoding: 816 816 374
Width: 0
Flags: MW
LayerCount: 2
Fore
SplineSet
-176 -111 m 1
 -138 -111 l 1
 -140 -164 -186 -211 -236 -211 c 0
 -252 -211 -272 -207 -303 -195 c 0
 -339 -181 -348 -179 -360 -179 c 0
 -377 -179 -389 -191 -393 -212 c 1
 -430 -212 l 1
 -426 -154 -384 -112 -332 -112 c 0
 -316 -112 -296 -116 -270 -126 c 0
 -232 -141 -227 -142 -215 -142 c 0
 -195 -142 -182 -131 -176 -111 c 1
EndSplineSet
EndChar

StartChar: uni0331
Encoding: 817 817 375
Width: 0
Flags: MW
LayerCount: 2
Fore
SplineSet
-300 -82 m 1
 -70 -82 l 1
 -70 -154 l 1
 -300 -154 l 1
 -300 -82 l 1
EndSplineSet
EndChar

StartChar: uni0394
Encoding: 916 916 380
Width: 672
VWidth: 1093
Flags: HMW
LayerCount: 2
Fore
SplineSet
-141.126 -8.75195 m 1
 419.002 794.244 l 1
 561.222 -8.75195 l 1
 -141.126 -8.75195 l 1
313.978 515.274 m 1
 21.8799 91.8965 l 1
 388.37 91.8965 l 1
 313.978 515.274 l 1
EndSplineSet
EndChar

StartChar: Theta
Encoding: 920 920 384
Width: 833
VWidth: 1093
Flags: HMW
LayerCount: 2
Fore
SplineSet
567.306 522.932 m 5
 497.29 225.364 l 5
 457.274 225.364 l 1
 460.556 248.338 l 2
 462.744 261.466 463.838 272.406 463.838 280.064 c 0
 463.838 300.85 459.462 308.508 405.856 308.508 c 2
 405.66 308.508 l 2
 343.302 308.566 332.362 300.85 314.858 245.056 c 1
 309.388 225.364 l 1
 269.372 225.364 l 1
 340.482 522.932 l 1
 379.404 522.932 l 1
 376.122 499.958 l 1
 372.84 485.736 372.84 476.984 372.84 471.514 c 0
 372.84 446.352 382.686 439.785 429.728 439.788 c 2
 431.018 439.788 l 2
 494.47 439.788 504.316 450.728 521.82 503.24 c 1
 527.29 522.932 l 1
 567.306 522.932 l 5
EndSplineSet
Refer: 391 927 N 1 0 0 1 0 0 2
EndChar

StartChar: Lambda
Encoding: 923 923 387
Width: 741
Flags: HMW
LayerCount: 2
Fore
SplineSet
481 736 m 1
 612 114 l 2
 622 67 641 54 702 54 c 2
 716 54 l 1
 709 0 l 1
 335 0 l 1
 342 54 l 1
 358 54 l 2
 399 54 410 55 424 62 c 0
 434 66 441 76 441 85 c 0
 441 92 439.787 102.961 437 117 c 2
 358 515 l 1
 185 220 l 1
 139 139 l 2
 130 124 125 108 125 96 c 0
 125 67 150 54 206 54 c 2
 219 54 l 1
 211 0 l 1
 -75 0 l 1
 -68 54 l 1
 -62 54 l 2
 -18 54 33 93 71 157 c 2
 419 736 l 1
 481 736 l 1
EndSplineSet
EndChar

StartChar: Xi
Encoding: 926 926 390
Width: 737
VWidth: 1093
Flags: HMW
LayerCount: 2
Fore
SplineSet
772.364 736.262 m 1
 731.886 508.71 l 1
 666.246 508.71 l 1
 666.246 528.402 l 1
 667.34 538.248 667.34 547 667.34 553.564 c 0
 667.34 592.948 658.588 600.606 586.384 600.606 c 2
 331.482 600.606 l 2
 245.056 600.606 236.304 590.76 210.048 525.12 c 2
 203.484 508.71 l 1
 134.562 508.71 l 1
 200.202 736.262 l 1
 772.364 736.262 l 1
629.05 240.68 m 1
 700.16 240.68 l 1
 594.042 0 l 1
 29.5381 0 l 1
 38.29 240.68 l 1
 105.024 240.68 l 1
 105.024 223.176 l 1
 109.4 148.784 119.246 135.656 234.116 135.656 c 2
 428.848 135.656 l 2
 561.222 135.656 579.82 148.784 621.392 226.458 c 2
 629.05 240.68 l 1
601.7 522.932 m 1
 530.59 225.364 l 1
 459.48 225.364 l 1
 463.856 248.338 l 2
 466.044 261.466 467.138 272.406 467.138 280.064 c 0
 467.138 303.038 458.386 308.508 406.968 308.508 c 2
 369.772 308.508 l 2
 304.132 308.508 295.38 298.662 277.876 245.056 c 2
 271.312 225.364 l 1
 200.202 225.364 l 1
 270.218 522.932 l 1
 341.328 522.932 l 1
 338.046 499.958 l 2
 335.858 489.018 334.764 479.172 334.764 472.608 c 0
 334.764 446.352 345.704 439.788 393.84 439.788 c 2
 432.13 439.788 l 2
 497.77 439.788 507.616 451.822 525.12 503.24 c 1
 529.496 522.932 l 1
 601.7 522.932 l 1
EndSplineSet
EndChar

StartChar: Sigma
Encoding: 931 931 394
Width: 741
Flags: HMW
LayerCount: 2
Fore
SplineSet
29.4297 78.418 m 1
 313.226 353.362 l 1
 105 668 l 1
 113 722 l 1
 728 722 l 1
 688 477 l 1
 636 477 l 1
 635 540 629 577 615 604 c 1
 595 646 548 668.146 478 668 c 2
 301.699 667.631 l 2
 469.326 400.404 l 1
 101.699 53.6309 l 2
 325 54 l 2
 404.999 54.1318 463 79 528 141 c 0
 566 177 593 213 616 259 c 1
 668 248 l 1
 602 0 l 1
 2.76953 0 l 1
 29.4297 78.418 l 1
EndSplineSet
EndChar

StartChar: Psi
Encoding: 936 936 399
Width: 891
VWidth: 1093
Flags: HMW
LayerCount: 2
Fore
SplineSet
388.725 367.811 m 1
 356.043 368.919 334.294 373.967 322.73 380.712 c 0
 299.756 396.028 287.722 405.874 287.722 439.788 c 0
 287.722 462.762 292.098 493.394 300.85 540.436 c 0
 306.32 568.88 309.602 592.948 309.602 614.828 c 0
 309.602 704.536 263.654 743.92 157.536 750.484 c 2
 136.75 751.578 l 1
 122.528 689.22 l 1
 140.032 685.938 l 2
 153.16 682.656 163.006 679.374 163.006 656.4 c 0
 163.006 643.271 161.912 624.674 155.348 599.512 c 2
 132.374 513.086 l 2
 127.998 493.394 124.716 473.702 124.716 456.198 c 0
 124.716 378.524 167.382 341.328 185.98 327.106 c 0
 226.421 298.072 283.57 284.763 365.811 282.522 c 1
 319.999 112 l 1
 314.838 88.7652 309.134 76.2303 301 69 c 0
 289 58 267 54 215 54 c 2
 200 54 l 1
 185 0 l 1
 574 0 l 1
 589 54 l 1
 574 54 l 2
 522 54 501 58 495 69 c 0
 493 72 492 74 492 77 c 0
 492 78.5992 497.524 100.856 500 112 c 2
 545.747 282.57 l 1
 616.17 284.559 671.828 293.542 719.852 313.978 c 1
 807.372 348.986 869.73 417.908 890.516 508.71 c 1
 909.114 595.136 l 2
 925.524 667.34 938.652 679.374 969.284 685.938 c 2
 985.694 689.22 l 1
 999.916 752.672 l 1
 974.754 750.484 l 1
 844.568 741.732 778.928 689.22 737.356 544.812 c 0
 705.63 434.318 695.784 414.626 646.554 386.182 c 1
 633.82 377.367 612.317 370.305 568.696 368.138 c 1
 640 634 l 1
 644 648 l 2
 652 677 652 682 661 690 c 0
 673 701 696 705 748 705 c 2
 763 705 l 1
 778 759 l 1
 389 759 l 1
 374 705 l 1
 389 705 l 2
 441 705 461 701 467 690 c 0
 469 687 470 684 470 679 c 0
 470 673 468.279 663.927 464 648 c 2
 388.725 367.811 l 1
EndSplineSet
EndChar

StartChar: uni03A9
Encoding: 937 937 400
Width: 830
VWidth: 1093
Flags: HMW
LayerCount: 2
Fore
SplineSet
321.636 -8.75195 m 1
 -30.6318 -8.75195 l 1
 17.5039 203.484 l 1
 80.9561 203.484 l 1
 79.8623 193.638 l 1
 78.7676 182.698 l 1
 78.7676 170.664 l 2
 78.7676 146.596 85.332 133.468 115.964 133.468 c 2
 249.432 133.468 l 1
 249.432 137.844 l 1
 220.988 149.878 202.39 160.818 182.698 175.04 c 0
 125.81 218.8 94.084 284.44 94.084 356.644 c 0
 94.084 378.524 97.3662 399.31 102.836 421.19 c 0
 118.152 492.3 167.382 574.35 236.304 637.802 c 0
 262.56 662.964 371.96 759.236 534.966 759.236 c 0
 697.972 759.236 765.8 662.964 781.116 636.708 c 0
 808.466 592.948 822.688 538.248 822.688 484.642 c 0
 822.688 461.668 819.406 438.694 813.936 416.814 c 0
 792.056 319.448 719.852 228.646 623.58 173.946 c 1
 596.23 159.724 571.068 148.784 537.154 136.75 c 1
 536.06 133.468 l 1
 666.246 133.468 l 2
 699.066 133.468 715.476 149.878 729.698 185.98 c 2
 736.262 203.484 l 1
 798.62 203.484 l 1
 750.484 -8.75195 l 1
 398.216 -8.75195 l 1
 467.138 189.262 l 1
 476.984 194.732 l 1
 564.504 238.492 633.426 324.918 655.306 416.814 c 0
 660.776 439.788 662.964 463.856 662.964 487.924 c 0
 662.964 529.496 656.4 555.752 650.93 572.162 c 0
 630.144 632.332 582.008 667.34 517.462 667.34 c 0
 452.916 667.34 387.276 632.332 336.952 568.88 c 0
 300.85 522.932 271.312 463.856 259.278 412.438 c 0
 254.902 393.84 253.808 373.054 253.808 355.55 c 0
 253.808 286.628 282.252 227.552 333.67 193.638 c 1
 343.516 188.168 l 1
 321.636 -8.75195 l 1
EndSplineSet
EndChar

StartChar: alpha
Encoding: 945 945 401
Width: 656
Flags: HW
LayerCount: 2
Fore
SplineSet
670.524414062 471 m 0
 684.6171875 471 697.030273438 463.42578125 696.15625 448.073242188 c 0
 696.041992188 446.068359375 696.098632812 447.068359375 695.984375 445.072265625 c 0
 695.946289062 444.392578125 l 1
 695.78515625 443.731445312 l 0
 672.170898438 346.41015625 628.709960938 255.828125 566.091461061 173.779296875 c 1
 565.752603184 168.072265625 l 0
 564.516229849 147.272460938 563.886340883 128.98046875 563.8843057 113.216796875 c 0
 563.878200153 57.8818359375 573.380466983 43 577.095703125 43 c 0
 579.426757812 43 590.151367188 48.70703125 603.897460938 63.5888671875 c 0
 617.643554688 78.46875 627.7578125 88 638.6640625 88 c 0
 654.427734375 88 666.65625 80.8505859375 667.30078125 65.8212890625 c 0
 667.31640625 65.447265625 l 1
 667.294921875 65.072265625 l 0
 665.9609375 41.6943359375 650.577148438 22.6865234375 624.713867188 7.0791015625 c 0
 624.532226562 6.9697265625 l 1
 624.345703125 6.8701171875 l 0
 600.8671875 -5.5498046875 578.274414062 -12 554.954942728 -12 c 0
 527.405695578 -12 501.925211382 -4.466796875 479.555503552 12.6337890625 c 0
 460.615078139 27.111328125 445.897656297 44.126953125 436.450339393 64.3447265625 c 1
 367.920658555 13.5283203125 313.704415844 -12 268.401254646 -12 c 0
 207.689727166 -12 161.07421875 3.4404296875 128.122070312 37.2666015625 c 0
 95.1171875 71.146484375 81.326171875 118.58203125 84.654296875 176.927734375 c 0
 89.1982421875 256.505859375 117.83203125 327.248046875 171.302734375 387.491210938 c 1
 229.04591414 450.833007812 300.932628418 484 383.496927388 484 c 0
 444.305126034 484 493.567734677 458.560546875 527.493208423 408.569335938 c 1
 552.329557376 371.362304688 565.21633261 328.568359375 566.947255278 280.46875 c 1
 583.833007812 313.055664062 606 365.833984375 633.966796875 439.999023438 c 1
 637.744140625 451.450195312 640.583984375 458.11328125 645.129882812 463.115234375 c 1
 651.158203125 469.54296875 660.350585938 471 670.524414062 471 c 0
282.361588619 45 m 0
 313.581287306 45 362.530477853 70.13671875 423.23997015 122.828125 c 1
 423.521842919 180.95703125 422.934692784 238.477539062 422.288522358 296.306640625 c 1
 418.297529586 390.318359375 398.581699662 427 377.872700705 427 c 0
 351.399047476 427 321.296663951 404.2421875 289.310719073 353.595703125 c 0
 265.445152146 316.03125 246.823232786 277.75 235.161637383 236.505859375 c 0
 226.084723684 204.92578125 220.239679705 176.026367188 217.802548729 151.923828125 c 1
 217.480989903 146.530273438 217.289682753 140.7421875 217.271366111 135.575195312 c 0
 217.040372904 71.4970703125 238.933848043 45 282.361588619 45 c 0
EndSplineSet
EndChar

StartChar: beta
Encoding: 946 946 402
Width: 625
Flags: HW
LayerCount: 2
Fore
SplineSet
629.302734375 690.208984375 m 0
 661.48046875 662.79296875 677.623046875 626.200195312 675.047851562 581.072265625 c 0
 671.317382812 517.311523438 646.623046875 462.5 602.510742188 415.948242188 c 1
 637.459960938 382.112304688 651.736328125 336.46484375 648.41015625 279.608398438 c 0
 643.8125 201.02734375 615.165039062 131.056640625 562.712890625 73.2119140625 c 1
 505.112507967 12.353515625 434.484789071 -19 352.224627544 -19 c 0
 276.612735741 -19 219.055279716 5.32421875 182.891614729 54 c 1
 109.319335938 -202 l 1
 36.150390625 -202 l 1
 36.603515625 -194.072265625 l 0
 36.986328125 -187.373046875 44.9482421875 -160.698242188 53.6640625 -131.493164062 c 1
 57.458984375 -117.010742188 71.5068359375 -65.705078125 95.599609375 22.4228515625 c 1
 121.303710938 120.5078125 161.058461544 267.69140625 218.671725694 464.006835938 c 1
 240.969608356 536.609375 275.171871423 595.59375 322.567175236 642.66015625 c 0
 377.832439364 698.767578125 440.825606762 728.96484375 512.959130339 730 c 1
 560.185546875 730 598.27734375 716.435546875 629.302734375 690.208984375 c 0
423.652939359 404.5 m 0
 434.680624855 404.5 445.409990556 406.791992188 453.676695905 410.080078125 c 1
 448.183147021 411.052734375 443.352192784 411.5 437.425369911 411.5 c 0
 418.722545191 411.5 l 0
 403.57926415 411.5 392.53737295 409.188476562 386.735357338 406.59765625 c 1
 395.510423972 405.184570312 407.533523479 404.5 423.652939359 404.5 c 0
503.825877012 457.772460938 m 1
 533.509711343 512.100585938 549.466776314 558.708007812 551.855364064 597.927734375 c 0
 555.01816271 651.260742188 534.876503058 674 489.805861324 674 c 0
 442.219795194 674 399.266818129 648.166992188 361.408615529 593.311523438 c 1
 333.578625641 555.077148438 310.11384582 507.049804688 291.170538816 449.241210938 c 1
 266.713389063 370.657226562 246.455039695 293.799804688 227.457953952 220.760742188 c 0
 222.117623738 200.548828125 219.193277989 185.232421875 218.592579625 175.362304688 c 0
 216.230373899 136.572265625 224.304287544 105.424804688 243.351093253 80.66015625 c 1
 264.1482447 52.201171875 292.506889736 38 331.930763915 38 c 1
 382.941419533 37.0966796875 427.258144233 68.1962890625 464.152388311 136.297851562 c 1
 494.005676402 189.970703125 509.698921147 247.17578125 512.239712873 305.694335938 c 1
 513.537505452 327.015625 511.419840782 346.950195312 507.419920261 363.450195312 c 1
 479.098818874 352.916015625 451.23838819 347.703125 419.142628168 347.703125 c 0
 357.096169508 347.703125 317.560679079 363.389648438 318.491152726 400.102539062 c 1
 321.283588362 445.943359375 368.380572379 463.596679688 445.045715704 462.625 c 1
 466.780443651 462.625 486.62784228 460.896484375 503.825877012 457.772460938 c 1
EndSplineSet
EndChar

StartChar: gamma
Encoding: 947 947 403
Width: 612
Flags: HW
LayerCount: 2
Fore
SplineSet
680.3203125 452.072265625 m 0
 680.231445312 450.51171875 l 1
 635.548828125 362.095703125 l 1
 612.037109375 316.314453125 581.27734375 248.602539062 543.284055898 157.61328125 c 1
 534.945260202 138.9375 522.518538238 110.120117188 509.150025289 72.6826171875 c 1
 505.912682827 53.708984375 506.073576391 55.248046875 500.668782424 17.38671875 c 1
 495.715925155 -11.3544921875 486.018244968 -51.0703125 472.375085682 -102.4296875 c 1
 451.721271195 -172.900390625 431.036712716 -216 400.582738066 -216 c 0
 375.620665363 -216 369.534379552 -196.102539062 372.889573986 -171.545898438 c 1
 376.040833267 -136.822265625 393.747323626 -72.2705078125 426.734603298 21.93359375 c 1
 442.897745209 65.626953125 449.950417199 99.63671875 450.440271488 124.783203125 c 1
 454.867406477 198.674804688 450.476139479 251.668945312 437.527794434 281.641601562 c 0
 417.746084549 327.360351562 378.053540008 348.97265625 310.595070603 348 c 1
 255.862564695 348 222.8359375 333.813476562 206.474609375 308.943359375 c 1
 202.76171875 300.420898438 197.2578125 288.861328125 190.567382812 276.850585938 c 0
 190.140625 276.0859375 l 1
 189.55078125 275.439453125 l 0
 181.396484375 266.51953125 168.990234375 262 155.387695312 262 c 0
 135.619140625 262 119.950195312 269.318359375 121.841796875 286.436523438 c 1
 122.212890625 292.936523438 l 1
 122.536132812 293.895507812 l 0
 139.678710938 344.750976562 164.627929688 387.80859375 197.368164062 421.6953125 c 1
 235.717773438 461.872070312 282.753310558 482.953125 335.54177131 484 c 1
 397.106617259 484 444.050644946 449.1640625 474.475925202 382.546875 c 1
 493.127280945 343.40234375 506.666935455 295.09765625 513.467506703 239.4921875 c 1
 570.345703125 366.377929688 604.782226562 439.895507812 623.27734375 464.05859375 c 0
 623.446289062 464.279296875 l 1
 623.630859375 464.487304688 l 0
 630.02734375 471.670898438 638.150390625 476 646.745117188 476 c 0
 665.42578125 476 681.27734375 468.834960938 680.3203125 452.072265625 c 0
EndSplineSet
EndChar

StartChar: delta
Encoding: 948 948 404
Width: 553
Flags: HW
LayerCount: 2
Fore
SplineSet
572.666992188 735.30078125 m 1
 612.8359375 716.258789062 631.603515625 686.21875 629.424804688 648.072265625 c 0
 628.245117188 627.391601562 620.4296875 610.260742188 605.409179688 596.051757812 c 0
 590.442382812 581.893554688 572.047851562 574 551.114257812 574 c 0
 529.260742188 574 511.400390625 581.928710938 497.188291577 596.354492188 c 0
 482.841809203 610.823242188 476.650915384 628.249023438 477.891559003 648.927734375 c 0
 478.855933471 664.9765625 484.89277386 680.573242188 494.175006497 692.251953125 c 1
 482.667215316 693.609375 473.581144047 694 462.656701852 694 c 0
 396.983724874 694 370.33658967 678.780273438 368.972703307 656.072265625 c 0
 368.314381652 645.091796875 385.159610652 617.715820312 426.801279657 575.723632812 c 1
 464.51047812 539.8125 463.619022275 539.66015625 501.274815549 503.798828125 c 0
 501.409355544 503.669921875 l 1
 501.538760425 503.53515625 l 0
 526.65234375 477.021484375 545.712890625 452.224609375 556.881835938 428.865234375 c 1
 571.7109375 398.607421875 578.046875 365.135742188 575.817382812 327.203125 c 0
 571.295898438 250.212890625 547.666992188 177.071289062 503.791021563 109.004882812 c 0
 449.671024772 28.990234375 382.728647535 -12 302.641404674 -12 c 0
 236.302916881 -12 182.715820312 1.9267578125 143.662109375 31.5634765625 c 0
 100.297851562 64.4990234375 81.18359375 113.225585938 84.7099609375 173.603515625 c 0
 88.9130859375 245.564453125 116.333007812 309.865234375 167.549804688 364.767578125 c 0
 216.123971668 416.3671875 277.939450772 450.600585938 350.27369804 467.448242188 c 1
 313.731197549 535.75390625 297.512452496 588.321289062 300.190928123 631.927734375 c 0
 305.144259391 714.459960938 363.218294206 756.0234375 466.511118657 755 c 1
 510.412109375 755 545.067382812 747.885742188 572.666992188 735.30078125 c 1
393.740386673 130.411132812 m 1
 414.12165539 176.689453125 425.00501667 220.866210938 427.529438867 262.927734375 c 0
 430.388670518 310.551757812 414.965868184 363.987304688 381.890596879 421.334960938 c 1
 315.008813991 397.709960938 265.625446644 340.006835938 232.662120831 244.1796875 c 0
 218.76136638 203.55859375 210.479454012 168.1171875 208.674974842 138.072265625 c 0
 208.480867521 134.836914062 208.381246303 131.693359375 208.376111189 128.64453125 c 0
 208.264165697 71.537109375 239.29052639 45 308.317760038 45 c 0
 337.598181864 45 367.199034823 70.853515625 393.740386673 130.411132812 c 1
EndSplineSet
EndChar

StartChar: epsilon
Encoding: 949 949 405
Width: 534
Flags: HW
LayerCount: 2
Fore
SplineSet
519.698242188 459.104492188 m 1
 562.983398438 444.0546875 588.23828125 424.575195312 586.697265625 397.572265625 c 0
 585.995117188 385.264648438 581.856445312 373.541015625 574.463867188 364.379882812 c 1
 565.956054688 353.143554688 553.459960938 345.5 539.641601562 345.5 c 0
 528.184570312 345.5 516.239257812 348.889648438 505.7109375 354.307617188 c 1
 477.4609375 368.365234375 430.740897436 375.5 369.874536468 375.5 c 0
 329.401853331 375.5 294.827209798 369.603515625 264.485118729 359.922851562 c 1
 219.054273131 344.306640625 199.666992188 324.294921875 199.111328125 299.701171875 c 1
 198.625 291.384765625 200.659179688 282.962890625 203.999677132 276.2109375 c 1
 242.740626282 291.615234375 288.204595304 298.5 340.989876035 298.5 c 0
 346.598085683 298.5 351.956834547 298.373046875 357.069227949 298.119140625 c 0
 404.960522852 295.737304688 436.324264516 281.030273438 434.420702769 249.572265625 c 0
 431.83811084 206.893554688 387.347142385 187.501953125 312.918809692 186.5 c 1
 263.533855409 186.5 223.274404311 193.317382812 195.359375 207.161132812 c 1
 163.850585938 184.88671875 149.05859375 160.91796875 147.458007812 134.219726562 c 0
 146.4765625 118.142578125 161.08203125 102.930664062 203.118801087 91.810546875 c 1
 234.858286587 83.546875 267.667037602 79 299.696353058 79 c 0
 367.780515036 79 417.892114423 90.4189453125 450.408965269 111.333984375 c 1
 452.905643318 113.663085938 454.691202868 116.095703125 472.130859375 131.948242188 c 0
 479.072265625 138.515625 488.961914062 142 498.7421875 142 c 0
 517.956054688 142 527.943359375 129.05078125 526.859375 110.072265625 c 0
 526.130859375 97.294921875 515.752929688 82.6162109375 498.587890625 63.525390625 c 1
 453.168560493 12.40234375 378.971056658 -12 277.079265423 -12 c 0
 222.191682404 -12 176.997070312 -3.060546875 143.67578125 16.30859375 c 1
 100.01171875 39.83203125 79.021484375 76.1513671875 81.796875 123.650390625 c 0
 84.4619140625 169.235351562 109.03515625 209.958984375 151.756835938 244.45703125 c 1
 139.315429688 261.3046875 134.888671875 279.190429688 136.127929688 300.427734375 c 0
 137.4765625 324.037109375 146.435546875 347.563476562 163.30078125 370.387695312 c 1
 213.542328432 440.77734375 301.364945519 475.487304688 421.679570884 476.5 c 1
 452.600286758 476.5 485.616210938 470.337890625 519.698242188 459.104492188 c 1
331.000058517 238.5 m 0
 346.152989679 238.5 356.555814884 241.755859375 362.034636159 245.420898438 c 1
 352.526143389 246.900390625 343.991686293 247.5 331.391328957 247.5 c 0
 310.542204053 247.5 290.010856994 245.361328125 272.764939507 241.931640625 c 1
 290.374179546 239.579101562 307.65529067 238.5 331.000058517 238.5 c 0
EndSplineSet
EndChar

StartChar: zeta
Encoding: 950 950 406
Width: 497
Flags: HW
LayerCount: 2
Fore
SplineSet
369.849995064 607.32421875 m 1
 368.708650635 619.487304688 368.738768004 628.342773438 370.494922171 641.192382812 c 0
 373.802640102 695.670898438 386.324195861 733 417.631720114 733 c 0
 440.26544212 733 451.469726562 718.927734375 450.22265625 697.072265625 c 0
 449.671875 687.42578125 445.714608834 674.411132812 440.453416043 658.298828125 c 0
 437.510222129 649.286132812 434.945053121 639.483398438 433.893022269 634.514648438 c 1
 450.624023438 639.529296875 462.840820312 642 476.206054688 642 c 1
 531.916015625 641.00390625 568.143554688 625.604492188 566.05859375 589.072265625 c 0
 563.346679688 541.5546875 519.305664062 521.997070312 448.149414062 523 c 1
 423.501491463 523 403.830695441 532.213867188 390.52089544 550.341796875 c 1
 339.191552037 512.931640625 295.278351097 464.528320312 258.219447911 401.991210938 c 0
 219.394005258 336.473632812 197.901627681 275.212890625 194.3125 217.205078125 c 0
 190.168945312 146.543945312 219.017018882 103.6875 280.19370339 84.3486328125 c 1
 392.668575403 47.38671875 l 1
 417.373126154 40.05859375 436.452998627 24.9033203125 449.576171875 3.1748046875 c 0
 461.97265625 -18.8837890625 468.158203125 -42.4267578125 466.702148438 -67.927734375 c 0
 464.775390625 -101.677734375 451.236328125 -134.252929688 425.559857849 -164.225585938 c 1
 397.220452229 -197.243164062 364.239856206 -216 328.123938225 -216 c 0
 304.535807184 -216 279.570585413 -210.754882812 253.090148425 -202.638671875 c 1
 219.656753339 -192.635742188 197.550604554 -178.209960938 198.893423796 -156.073242188 c 0
 199.982841727 -138.114257812 211.060840838 -127.748046875 229.90912113 -129.01953125 c 0
 231.454453714 -129.123046875 l 1
 232.845045334 -129.763671875 l 0
 275.925345244 -149.591796875 304.66043078 -158 319.035762522 -158 c 0
 324.11728963 -158 330.862541737 -154.84375 336.820588132 -147.102539062 c 0
 336.944173198 -146.943359375 l 1
 337.076066503 -146.7890625 l 0
 343.060076148 -139.817382812 345.743637571 -132.462890625 345.350034715 -127.0078125 c 0
 345.315763227 -126.540039062 l 1
 345.343803536 -126.072265625 l 0
 346.578615661 -105.735351562 327.609865894 -86.4462890625 277.98371163 -69.578125 c 1
 243.603177217 -58.591796875 219.132295707 -49.3896484375 204.712307176 -43.4326171875 c 1
 175.510742188 -32.341796875 154.325195312 -19.8935546875 140.387695312 -9.515625 c 0
 140.23046875 -9.3984375 l 1
 140.080078125 -9.2734375 l 0
 91.9775390625 29.662109375 70.775390625 89.0712890625 75.3671875 167.624023438 c 0
 80.1396484375 249.232421875 111.5859375 333.474609375 169.03125 418.223632812 c 1
 223.989500343 497.578125 292.461857839 561.759765625 369.849995064 607.32421875 c 1
457.599609375 580 m 0
 469.866210938 580 478.434570312 581.62109375 483.0859375 583.45703125 c 1
 477.608398438 584.616210938 472.911132812 585 465.741210938 585 c 0
 460.040039062 585 452.123046875 583.48828125 445.26492536 581.220703125 c 1
 449.204101562 579.916992188 452.35546875 579.590820312 456.979492188 579.974609375 c 0
 457.2890625 580 l 1
 457.599609375 580 l 0
EndSplineSet
EndChar

StartChar: eta
Encoding: 951 951 407
Width: 602
Flags: HW
LayerCount: 2
Fore
SplineSet
503.488215705 483.600585938 m 0
 587.599609375 479.076171875 629.37890625 434.315429688 624.797851562 354.072265625 c 0
 623.680664062 334.494140625 620.649414062 317.166015625 616.606445312 300.6328125 c 1
 479.640916208 -202 l 1
 338.038183617 -202 l 1
 352.830676603 -145.634765625 l 1
 481.221889464 309.4453125 l 1
 489.124367025 337.1484375 493.586254278 360.623046875 494.804625607 380.927734375 c 0
 496.888276659 415.661132812 488.105122939 427 472.279639236 427 c 0
 432.211953293 427 391.37855125 399.623046875 348.284952352 341.1484375 c 1
 339.314988538 329.356445312 332.563137987 318.640625 329.287802762 312.223632812 c 0
 329.191318427 312.034179688 l 1
 329.088675518 311.859375 l 1
 327.696837673 309.33203125 318.267033626 282.463867188 304.727136702 236.790039062 c 1
 294.672670114 193.635742188 265.128038593 88.5205078125 239.951000308 5.4375 c 0
 238.303710938 -0 l 1
 103.56640625 0 l 1
 119.106445312 59.4169921875 l 1
 198.03010364 354.439453125 l 0
 203.279262004 373.099609375 206.233324924 388.784179688 206.841997374 398.927734375 c 0
 208.313896689 423.465820312 202.42732586 427 197.952095029 427 c 0
 182.263671875 427 166.72265625 412.518554688 155.948242188 377.436523438 c 1
 149.620117188 353.591796875 142.130859375 329.181640625 134.796875 305.297851562 c 0
 134.505859375 304.349609375 l 1
 133.977539062 303.508789062 l 0
 127.869140625 293.790039062 117.405273438 290.166015625 107.6015625 290.99609375 c 1
 89.2958984375 291.294921875 75.5400390625 297.446289062 76.42578125 312.927734375 c 0
 78.2529296875 344.954101562 92.853515625 379.932617188 118.557617188 419.669921875 c 1
 147.575195312 461.651367188 178.5 484 212.03367571 484 c 0
 242.803966958 484 270.02999856 476.655273438 293.630682618 464.013671875 c 1
 316.020180349 451.69140625 330.939327167 435.045898438 337.928282838 414.180664062 c 1
 384.942840859 460.73046875 433.927116302 484 487.412283304 484 c 0
 492.923181086 484 498.281140934 483.8671875 503.488215705 483.600585938 c 0
EndSplineSet
EndChar

StartChar: theta
Encoding: 952 952 408
Width: 547
Flags: HW
LayerCount: 2
Fore
SplineSet
588.627929688 650.7890625 m 1
 609.05859375 609.342773438 617.2890625 557.958007812 613.870117188 498.072265625 c 0
 607.583984375 391.072265625 576.078125 285.116210938 520.650390625 182.311523438 c 0
 449.127071858 54.06640625 360.404925727 -12 256.658688718 -12 c 0
 198.248046875 -12 155.634765625 13.150390625 129.327148438 64.048828125 c 1
 108.838867188 104.4921875 100.638671875 154.416992188 104.114257812 213.670898438 c 0
 110.344726562 319.875976562 141.86328125 426.040039062 198.296875 529.010742188 c 1
 269.796240044 659.981445312 358.492543167 728.95703125 462.343185927 730 c 1
 520.865234375 730 563.400390625 703.029296875 588.627929688 650.7890625 c 1
450.246590946 386 m 1
 474.184451993 475.536132812 486.707973459 538.340820312 489.279869572 580.927734375 c 0
 489.7192007 588.194335938 489.942484286 595.034179688 489.953855209 601.442382812 c 0
 490.048957477 654.786132812 476.113374078 673 456.672196347 673 c 0
 405.734594716 673 347.831785687 580.607421875 293.123172392 386 c 1
 450.246590946 386 l 1
263.43059042 45 m 0
 315.448429767 45 372.219315065 136.3359375 425.911781302 331 c 1
 270.853735913 331 l 1
 245.407676945 235.950195312 233.113641386 174.990234375 230.822917195 137.072265625 c 0
 230.383586067 129.805664062 230.161336202 122.965820312 230.149965278 116.557617188 c 0
 230.054863011 63.2138671875 243.988378969 45 263.43059042 45 c 0
EndSplineSet
EndChar

StartChar: iota
Encoding: 953 953 409
Width: 424
Flags: HW
LayerCount: 2
Fore
SplineSet
407.970703125 181 m 0
 425.33203125 181 436.39453125 171.932617188 435.545898438 157.07421875 c 0
 435.510742188 156.458007812 434.353515625 151.193359375 434.036132812 150.364257812 c 1
 416.776367188 107.057617188 393.615234375 72.9677734375 362.028320312 43.0869140625 c 1
 325.21875 7.298828125 286.2578125 -12 244.810546875 -12 c 0
 211.626953125 -12 182.017578125 -3.5205078125 158.643554688 15.6533203125 c 1
 132.237304688 35.818359375 118.249023438 63.376953125 119.08203125 96.9560546875 c 1
 119.534179688 104.904296875 121.12109375 114.172851562 123.768554688 123.663085938 c 1
 203.87109375 424 l 1
 208.1796875 440.756835938 218.208007812 454.375976562 233.788085938 466.092773438 c 0
 249.068359375 477.583984375 264.11328125 484.598632812 281.265625 484.598632812 c 0
 298.452148438 484.598632812 312.443359375 477.357421875 323.004882812 464.962890625 c 0
 333.681640625 452.430664062 337.549804688 438.055664062 336.614257812 421.66796875 c 0
 336.329101562 416.661132812 336.38671875 417.6640625 336.272460938 415.657226562 c 0
 336.228515625 414.89453125 l 1
 257.109375 116.796875 l 1
 253.225585938 100.141601562 250.50390625 86.3369140625 249.750976562 73.1171875 c 0
 248.37890625 49.0205078125 254.662109375 45 259.208007812 45 c 0
 279.856445312 45 299.465820312 53.783203125 319.678710938 73.8076171875 c 0
 337.185546875 91.2880859375 351.818359375 110.947265625 362.510742188 133.229492188 c 1
 365.373046875 142.290039062 369.893554688 152.854492188 376.654296875 166.776367188 c 0
 377.108398438 167.7109375 l 1
 377.799804688 168.487304688 l 0
 384.8359375 176.389648438 396.05859375 181 407.970703125 181 c 0
EndSplineSet
EndChar

StartChar: kappa
Encoding: 954 954 410
Width: 626
Flags: HW
LayerCount: 2
Fore
SplineSet
189 322 m 24
 196 347 204 377 204 388 c 0
 204 413 192 419 143 419 c 2
 119 419 l 1
 126 466 l 1
 367.732421875 479 l 1
 367.280273438 471.073242188 l 2
 366.877209712 464.007004054 354.901367188 420.784179688 353.517578125 414.657226562 c 2
 353.499023438 414.330078125 l 1
 324.5546875 303.096679688 l 1
 344.556640625 316.19140625 367.182617188 334.69140625 398.291880772 360.068359375 c 0
 445.87566852 399.143554688 478.269853725 424.25 498.393904392 436.677734375 c 0
 536.833984375 461.2421875 572.020507812 474 604.963867188 474 c 0
 620.374023438 474 634.041015625 469.282226562 643.185546875 456.97265625 c 0
 651.73828125 445.458984375 655.479492188 431.513671875 654.59765625 416.072265625 c 0
 653.418945312 395.432617188 645.610351562 377.610351562 632.099609375 360.869140625 c 0
 618.004882812 342.39453125 599.0390625 333 577.772460938 333 c 0
 561.897460938 333 548.526367188 339.022460938 539.606445312 351.02734375 c 0
 530.942592865 362.233398438 525.458799788 376.081054688 526.452341637 391.926757812 c 0
 526.495259211 392.606445312 526.620793117 393.461914062 526.620793117 393.461914062 c 1
 501.635254203 378.850585938 476.410449812 360.528320312 447.00118191 335.956054688 c 0
 411.697185156 306.899414062 384.720270787 286.0390625 368.419103066 274.122070312 c 1
 400.795048303 270.010742188 430.322339534 260.2734375 455.094363515 244.647460938 c 0
 489.465252224 222.361328125 507.097108202 191.637695312 504.722319967 154.072265625 c 0
 504.144581052 144.946289062 501.012457161 131.9453125 496.529030078 113.862304688 c 0
 492.096452674 95.98046875 489.08983012 82.0576171875 488.584579047 74.072265625 c 0
 486.988764629 48.83203125 492.629833358 45 500.106900098 45 c 0
 528.840214884 45 554.092773438 71.5927734375 569.744140625 137.106445312 c 0
 571.27734375 144.779296875 575.057617188 155.240234375 579.756835938 166.408203125 c 2
 580.08984375 167.201171875 l 1
 580.59375 167.897460938 l 2
 586.009765625 175.379882812 594.516601562 181 605.240234375 181 c 0
 623.4296875 181 637.739257812 173.268554688 636.814453125 157.076171875 c 0
 636.728515625 155.55859375 636.467773438 153.266601562 634.563476562 148.303710938 c 0
 600.826171875 44.828125 553.251953125 -12 486.372077024 -12 c 0
 448.324615577 -12 414.4641384 -2.47265625 387.507316681 18.8154296875 c 0
 358.399661699 41.0625 344.253713555 69.6552734375 346.35802477 102.928710938 c 0
 346.678269562 107.984375 347.265745649 117.576171875 350.339446504 128.368164062 c 0
 352.986875576 137.66015625 353.448850326 144.978515625 353.762603669 149.927734375 c 0
 356.080050776 186.586914062 336.432600045 208.25 293.089198547 217.690429688 c 1
 226.62109375 0 l 1
 93.1435546875 0 l 1
 93.1435546875 0 153 196 189 322 c 24
EndSplineSet
EndChar

StartChar: lambda
Encoding: 955 955 411
Width: 615
Flags: HW
LayerCount: 2
Fore
SplineSet
120.81640625 -12 m 0
 106.153320312 -12 93.2197265625 -4.775390625 84.658203125 7.6923828125 c 0
 76.3720703125 18.5810546875 71.435546875 31.7646484375 72.2412109375 45.5224609375 c 0
 73.556640625 68.0322265625 83.7646484375 86.6728515625 101.75 102.296875 c 1
 379.511254982 339.255859375 l 1
 289.602452394 602.283203125 l 1
 280.860126457 630.12109375 274.296738899 647.3359375 272.258838745 650.921875 c 0
 272.16787931 651.08203125 l 1
 272.08611802 651.24609375 l 0
 267.192704811 660.958007812 253.766478971 669.374023438 231.007201874 674.161132812 c 1
 217.693397807 676.735351562 209.357834288 686.340820312 210.110038157 698.927734375 c 0
 211.271048475 718.341796875 228.253890432 727 251.642729462 727 c 0
 335.528791023 727 390.890382522 715.833007812 414.590936471 689.376953125 c 1
 414.590936471 689.376953125 431.643275525 661.2578125 434.916793174 650.68359375 c 1
 618.368164062 90.62890625 l 1
 621.548828125 81.5576171875 632.182617188 55.791015625 648.791992188 15.8251953125 c 0
 649.427734375 14.2958984375 l 1
 649.33203125 12.6474609375 l 2
 648.646484375 0.8818359375 640.666992188 -6.91796875 629.524414062 -6 c 1
 533.16015625 -6 l 0
 523.788249395 -6 514.318247976 -2.2724609375 505.471676395 3.2060546875 c 0
 496.671095538 8.65625 488.973270081 15.7626953125 486.48874888 24.3544921875 c 1
 402.867389496 273.439453125 l 1
 173.025390625 16.6533203125 l 1
 157.26953125 -2.2177734375 140.530273438 -12 120.81640625 -12 c 0
EndSplineSet
EndChar

StartChar: uni03BC
Encoding: 956 956 412
Width: 685
Flags: HW
LayerCount: 2
Fore
SplineSet
355.908203125 479 m 1
 354.952148438 462.274414062 l 1
 273.413220301 189.568359375 l 1
 265.248206956 160.02734375 260.573036013 135.28515625 259.392956934 116.072265625 c 0
 256.282125695 65.3671875 274.371772079 45 315.300778152 45 c 0
 334.588351787 45 356.013506387 47.72265625 381.001995858 54 c 1
 405.129573545 69.671875 420.865361125 85.00390625 429.715954219 101.791015625 c 1
 430.939078888 104.958984375 437.648941339 126.157226562 446.979335269 160.6640625 c 1
 461.084639922 214.815429688 501.170850406 352.815429688 532.334916295 458.848632812 c 0
 533.942499087 464.318359375 l 1
 671.909179688 465.447265625 l 1
 665.314453125 438.984375 l 1
 574.288240137 102.038085938 l 1
 570.191559917 85.7216796875 568.287055069 71.9970703125 567.455540273 58.439453125 c 0
 566.059183355 39.150390625 572.95277698 35.1435546875 577.975462314 34.6572265625 c 1
 596.1640625 34.98828125 615.94921875 58.7783203125 631.73046875 119.40625 c 1
 633.171875 127.315429688 635.942382812 138.912109375 639.674804688 151.068359375 c 0
 639.907226562 151.825195312 l 1
 640.291992188 152.516601562 l 0
 645.53125 161.919921875 656.87109375 166.366210938 669.4140625 166.366210938 c 0
 686.397460938 166.366210938 698.870117188 157.852539062 697.989257812 142.438476562 c 0
 696.111328125 110.525390625 681.348632812 75.2841796875 654.802734375 39.705078125 c 1
 625.939453125 5.525390625 594.842773438 -12 561.069044686 -12 c 0
 502.663529402 -12 460.887260147 5.7705078125 439.824318432 42.4970703125 c 1
 398.965655151 5.25390625 354.871223434 -12 307.347843076 -12 c 0
 272.311883153 -12 243.180518195 -7.8525390625 220.151127979 0.228515625 c 1
 162.513084053 -202 l 1
 28.51171875 -202 l 1
 28.9638671875 -194.073242188 l 0
 29.3828125 -186.71875 176.487304688 317.075195312 178 322 c 1
 189 359 193 377 193 388 c 0
 193 413 181 419 132 419 c 2
 108 419 l 1
 115 466 l 1
 355.908203125 479 l 1
EndSplineSet
EndChar

StartChar: nu
Encoding: 957 957 413
Width: 612
Flags: HW
LayerCount: 2
Fore
SplineSet
662.569335938 466.685546875 m 0
 674.47265625 455.272460938 679.732421875 441 678.924804688 426.844726562 c 0
 676.462890625 383.721679688 654.909179688 333.725585938 617.328125 276.254882812 c 0
 532.898727466 148.73046875 403.392634677 58.802734375 231.96875 6.3173828125 c 1
 210.016601562 0.1455078125 196.30078125 -3 188.293945312 -3 c 0
 137.293945312 -3 l 0
 130.266601562 -3 123.341796875 -0.1201171875 118.178710938 5.3544921875 c 0
 112.3828125 11.5048828125 111.409179688 19.5146484375 113.178710938 26.41015625 c 1
 213.750976562 403.192382812 l 1
 202.466796875 403.192382812 l 0
 175.112304688 403.192382812 154.041015625 412.209960938 155.348632812 435.129882812 c 0
 156.6171875 457.348632812 165.599609375 472.73046875 183.112304688 474.182617188 c 1
 343.800425118 484.182617188 l 1
 361.011744316 485.544921875 370.972097996 474.2734375 369.954670028 457.275390625 c 0
 369.788851788 454.494140625 l 1
 262.391857701 76.7314453125 l 1
 350.069787597 115.748046875 423.070756092 184.0546875 482.971060035 283.331054688 c 1
 490.94364197 296.989257812 502.742326264 318.262695312 515.643394784 346.354492188 c 1
 522.322185017 365.334960938 531.865945957 390.287109375 543.230636832 424 c 0
 543.304333828 424 l 1
 543.391337226 424 l 0
 550.097763832 440.389648438 561.118164062 453.412109375 574.337890625 464.927734375 c 0
 588.080078125 476.8984375 604.271484375 483.772460938 622.234375 483.772460938 c 0
 636.318359375 483.772460938 650.845703125 477.92578125 662.569335938 466.685546875 c 0
EndSplineSet
EndChar

StartChar: xi
Encoding: 958 958 414
Width: 486
Flags: HW
LayerCount: 2
Fore
SplineSet
432.166192056 697.072265625 m 0
 431.64322541 688.469726562 429.842473459 676.349609375 425.620271571 660.918945312 c 0
 423.917250962 651.764648438 422.494948035 643.602539062 421.856575231 639.596679688 c 1
 435.181640625 641.438476562 446.19921875 642 459.205078125 642 c 1
 517.66015625 641.0078125 555.159179688 625.828125 553.060546875 589.072265625 c 0
 550.354492188 541.649414062 507.33984375 521.99609375 436.15234375 523 c 1
 412.394309929 523 392.915621827 532.342773438 378.430589394 549.948242188 c 1
 330.58589929 506.921875 306.645879421 456.227539062 303.672351374 393.521484375 c 1
 302.690879179 377.81640625 303.999855337 364.018554688 305.933688263 354.6015625 c 1
 334.476438435 362.728515625 355.962777817 366.5 378.681155918 366.5 c 0
 385.346641342 366.5 391.693980059 366.350585938 397.723172069 366.047851562 c 0
 448.086914062 363.473632812 479.921875 348.860351562 478.021484375 315.572265625 c 0
 475.31640625 268.166015625 431.341713825 247.5 355.327524098 247.5 c 0
 319.16692777 247.5 286.589120831 253.2734375 258.621322061 266.043945312 c 1
 206.38599946 224.890625 181.4921875 185.770507812 179.090820312 144.768554688 c 0
 177.520507812 118.09375 195.933944403 96.1640625 242.604818714 78.1796875 c 0
 429.787369618 6.3955078125 l 1
 465.155273438 -8.892578125 482.3828125 -38.529296875 479.905273438 -81.927734375 c 0
 478.0859375 -113.813476562 464.541015625 -143.565429688 440.223632812 -170.489257812 c 1
 413.559808161 -199.486328125 381.712906892 -216 346.934065381 -216 c 0
 323.328827342 -216 296.415279425 -210.799804688 264.749285108 -202.74609375 c 0
 225.631795855 -192.928710938 199.730910986 -178.909179688 202.697161168 -155.609375 c 1
 202.697161168 -155.609375 215.809796041 -128.140625 232.580078352 -129.001953125 c 1
 234.480641034 -129.020507812 237.971937252 -129.154296875 242.48837286 -130.23046875 c 0
 243.327406823 -130.4296875 l 1
 244.101979689 -130.794921875 l 0
 283.870318088 -149.512695312 315.454176491 -157.836914062 340.728125201 -158.000976562 c 1
 350.107214892 -157.073242188 354.978186537 -152.5390625 357.184419585 -135.959960938 c 1
 357.527518975 -130.3125 354.053897574 -124.909179688 343.690216602 -121.6015625 c 0
 343.439650078 -121.521484375 l 1
 167.653320312 -52.4501953125 l 1
 136.041015625 -40.2451171875 110.826171875 -19.626953125 92.5771484375 6.79296875 c 1
 73.2568359375 34.3564453125 64.458984375 65.3701171875 66.375 98.1259765625 c 0
 68.6318359375 136.680664062 82.2451171875 173.876953125 107.0625 213.749023438 c 1
 129.125976562 247.352539062 155.555664062 277.35546875 186.614117333 302.206054688 c 1
 160.255859375 329.943359375 148.991210938 364.985351562 151.46875 407.321289062 c 0
 154.326171875 456.154296875 177.004882812 500.94140625 221.328497746 541.749023438 c 1
 259.099581817 579.0234375 306.216485336 606.67578125 356.307956597 624.430664062 c 1
 356.123930561 625.252929688 355.931586963 626.120117188 355.735084585 627.080078125 c 0
 355.546899768 627.99609375 l 1
 356.149922939 637.927734375 l 0
 359.572599279 694.256835938 372.040623177 733 403.538186884 733 c 0
 424.363280169 733 432.274320349 717.639648438 432.179708093 697.466796875 c 0
 432.178668398 697.26953125 l 1
 432.166192056 697.072265625 l 0
443.602539062 580 m 0
 456.603515625 580 466.828125 581.983398438 470.708984375 583.537109375 c 1
 466.090820312 584.514648438 460.680664062 585 453.744140625 585 c 0
 447.978515625 585 440.416992188 583.685546875 432.719309861 581.283203125 c 1
 436.4765625 579.909179688 439.239257812 579.603515625 442.860351562 579.962890625 c 0
 443.23046875 580 l 1
 443.602539062 580 l 0
365.210865923 302.5 m 0
 378.40147793 302.5 387.744178293 304.379882812 392.328194083 306.282226562 c 1
 386.614029695 307.993164062 380.889468356 308.948242188 374.751108359 309.500976562 c 1
 363.994422631 309.420898438 353.205506355 307.940429688 343.023772029 305.709960938 c 1
 350.000126295 303.525390625 356.765422451 302.5 365.210865923 302.5 c 0
EndSplineSet
EndChar

StartChar: omicron
Encoding: 959 959 415
Width: 547
Flags: HW
LayerCount: 2
Fore
SplineSet
554.71875 432.858398438 m 1
 589.694335938 399.119140625 605.591796875 350.577148438 602.1953125 291.072265625 c 0
 597.416992188 207.329101562 564.506835938 136.266601562 505.159179688 79.16015625 c 1
 443.555935574 19.017578125 367.542119637 -12 279.887385008 -12 c 0
 217.265063937 -12 167.377929688 3.3134765625 132.276367188 36.05859375 c 1
 97.130859375 69.9609375 81.31640625 118.392578125 84.712890625 177.927734375 c 0
 89.494140625 261.6875 122.409179688 334.586914062 181.956054688 393.817382812 c 0
 243.673372567 453.09375 320.616149918 484 409.316482228 484 c 0
 472.130788657 484 520.943359375 466.452148438 554.71875 432.858398438 c 1
444.930798467 232.3671875 m 0
 458.444090496 282.102539062 465.970742305 320.802734375 467.545847991 346.927734375 c 0
 467.763637834 350.536132812 467.872016665 354.01953125 467.872016665 357.375976562 c 0
 467.875113203 405.469726562 447.520536452 427 403.611626969 427 c 0
 360.251836899 427 324.401151589 406.015625 294.086044125 362.366210938 c 1
 275.139360005 335.376953125 256.97713219 294.155273438 242.10033124 238.630859375 c 1
 228.628326384 189.83203125 221.181152385 152.208007812 219.603982341 126.072265625 c 0
 219.38412814 122.419921875 219.27265277 118.896484375 219.267491873 115.501953125 c 0
 219.198335857 66.4921875 239.591103244 45 283.478336961 45 c 0
 327.004307906 45 363.788083347 65.130859375 394.001005055 108.633789062 c 1
 412.8764688 135.522460938 430.030257392 176.759765625 444.930798467 232.3671875 c 0
EndSplineSet
EndChar

StartChar: pi
Encoding: 960 960 416
Width: 659
Flags: HW
LayerCount: 2
Fore
SplineSet
718.30859375 450.248046875 m 0
 726.424804688 440.32421875 728.984375 427.450195312 728.334960938 416.073242188 c 0
 727.333007812 398.5078125 720.799804688 382.815429688 710.337890625 369.853515625 c 1
 698.350585938 354.3125 682.461914062 347 665.30859375 347 c 0
 569.174233316 347 l 1
 564.60887212 317.088867188 562.828930807 298.270507812 562.857426151 282.512695312 c 0
 562.857426151 282.29296875 l 1
 562.84419617 282.072265625 l 0
 561.152793961 253.640625 562.426942918 222.931640625 566.738899089 192.600585938 c 1
 570.393426966 170.73046875 579.9648095 140.827148438 595.192517831 101.111328125 c 0
 600.799994467 86.6240234375 603.675988836 75.025390625 603.143736517 66.0732421875 c 0
 601.949985139 45.9873046875 592.488513217 28.0439453125 574.871266748 12.0517578125 c 0
 557.132915066 -4.05078125 536.970423757 -12 516.085371938 -12 c 0
 485.630972966 -12 466.061795428 11.900390625 455.735286276 52.6943359375 c 1
 447.911278948 82.337890625 444.451130026 114.146484375 446.339964261 145.927734375 c 0
 449.530425106 199.559570312 461.396700528 266.806640625 483.481609871 347 c 1
 400.685334611 347 l 1
 337.151911941 116.682617188 l 1
 326.119125333 71.6064453125 318.702194349 44.8779296875 312.879984941 34.849609375 c 1
 312.879984941 34.849609375 259.660859132 -12 237.840549413 -12 c 0
 222.31640625 -12 208.286132812 -7.2861328125 196.42578125 4.0869140625 c 0
 184.77734375 15.255859375 178.237304688 29.3369140625 179.069335938 43.927734375 c 0
 179.7578125 55.9931640625 190.765625 84.326171875 213.6875 132.7109375 c 0
 213.79296875 132.934570312 l 1
 213.9140625 133.150390625 l 0
 230.556640625 163.025390625 246.537735499 193.700195312 260.846468984 224.614257812 c 1
 283.573541259 271.129882812 301.824809134 312.4765625 314.832933701 347 c 1
 276.910719202 347 l 0
 232.559570312 347 204.442382812 335.01953125 186.412109375 314.162109375 c 1
 182.028320312 306.724609375 174.413085938 298.87109375 164.842773438 290.774414062 c 0
 164.123046875 290.166015625 l 1
 163.275390625 289.75390625 l 0
 158.733398438 287.547851562 154.772460938 288 150.940429688 288 c 0
 132.86328125 288 116.331054688 293.786132812 117.30859375 310.931640625 c 0
 117.556640625 315.235351562 119.291015625 318.720703125 121.7890625 323.204101562 c 1
 175.4375 415.889648438 232.762695312 465 296.584718898 465 c 0
 687.1875 465 l 0
 699.28125 465 710.387695312 459.930664062 718.30859375 450.248046875 c 0
EndSplineSet
EndChar

StartChar: rho
Encoding: 961 961 417
Width: 581
Flags: HW
LayerCount: 2
Fore
SplineSet
563.369140625 432.645507812 m 0
 595.127929688 398.963867188 609.263671875 354.620117188 606.208984375 301.072265625 c 0
 601.6171875 220.625 573.940429688 148.825195312 522.609375 88.6962890625 c 1
 466.861899216 21.341796875 395.451590637 -12 312.530610681 -12 c 0
 275.984433438 -12 245.844541606 -0.900390625 222.55546129 19.740234375 c 1
 160.021368228 -202 l 1
 28.51171875 -202 l 1
 28.9638671875 -194.073242188 l 0
 29.3828125 -186.725585938 38.37890625 -150.328125 39.8837890625 -145.427734375 c 1
 144.055664062 243.456054688 l 1
 162.713050437 309.619140625 196.044333135 365.024414062 246.836805625 409.975585938 c 1
 301.066946662 459.001953125 362.202059866 484 431.252803441 484 c 0
 487.364257812 484 531.635742188 466.30078125 563.369140625 432.645507812 c 0
445.583916313 232.3671875 m 0
 460.313569831 287.118164062 469.108033421 330.866210938 470.844239979 359.927734375 c 0
 473.723951621 408.142578125 457.472690354 427 425.604767157 427 c 0
 387.894646848 427 356.16263623 403.125 328.388440797 351.948242188 c 1
 312.491778515 324.673828125 296.528692793 282.422851562 281.66925809 225.631835938 c 1
 243.528918263 87.693359375 l 1
 253.951267107 58.4326171875 274.860344437 45 308.760824929 45 c 0
 362.694615229 45 410.606354177 103.125976562 445.583916313 232.3671875 c 0
EndSplineSet
EndChar

StartChar: sigma1
Encoding: 962 962 418
Width: 463
Flags: HW
LayerCount: 2
Fore
SplineSet
428.51171875 483.333984375 m 0
 486.064453125 480.215820312 523.155273438 465.606445312 521.239257812 432.072265625 c 0
 519.872070312 408.122070312 508.620117188 392 485.868164062 392 c 0
 478.250976562 392 469.63671875 398.904296875 450.135742188 409.978515625 c 0
 430.952148438 420.87109375 416.374023438 427 404.866210938 427 c 0
 355.994761094 427 311.377424965 412.657226562 269.519105778 385.345703125 c 1
 223.62015495 356.278320312 201.995117188 321.736328125 200.510742188 279.155273438 c 1
 198.662109375 246.758789062 212.77458317 221.641601562 245.165251583 202.87890625 c 1
 392.814461308 119.889648438 l 0
 426.62109375 99.5166015625 442.481445312 68.388671875 440.123046875 27.072265625 c 0
 438.196289062 -6.681640625 424.622070312 -38.470703125 398.957957032 -66.5068359375 c 1
 370.075589795 -96.6328125 336.51760428 -112 300.29796644 -112 c 0
 282.223071785 -112 265.494348803 -109.92578125 247.651224271 -105.75 c 1
 223.952464624 -99.69140625 206.4453125 -89.484375 207.404712834 -73.072265625 c 0
 208.483131808 -55.64453125 220.562694287 -45.2333984375 239.061971679 -44.0185546875 c 0
 239.349832288 -44 l 1
 239.638751208 -44 l 0
 248.659794715 -44 258.290425393 -47.384765625 270.33718023 -51.51171875 c 1
 280.477916841 -55.3427734375 289.208983116 -57 294.103671785 -57 c 0
 304.27827435 -57 310.581575045 -51.9375 311.87059792 -31.072265625 c 0
 312.733121437 -17.13671875 308.381346344 -8.4853515625 296.386448749 -1.947265625 c 0
 166.67578125 71.0419921875 l 0
 110.10546875 104.458007812 83.55078125 157.622070312 87.505859375 226.927734375 c 0
 91.5732421875 298.193359375 125.263671875 359.247070312 187.408203125 410.307617188 c 0
 250.702335067 459.278320312 323.500378198 484 402.263671875 484 c 0
 411.564453125 484 420.311523438 483.778320312 428.51171875 483.333984375 c 0
EndSplineSet
EndChar

StartChar: sigma
Encoding: 963 963 419
Width: 669
Flags: HW
LayerCount: 2
Fore
SplineSet
727.301757812 450.248046875 m 0
 735.41796875 440.32421875 737.977539062 427.450195312 737.328125 416.073242188 c 0
 736.326171875 398.5078125 729.79296875 382.815429688 719.331054688 369.853515625 c 1
 707.483398438 354.494140625 692.551757812 347 675.301757812 347 c 0
 596.253661519 347 l 1
 602.758200172 321.543945312 606.210063598 297.1953125 605.633570997 271.206054688 c 1
 601.047972564 193.752929688 563.773521309 126.901367188 497.031078353 70.8623046875 c 1
 432.469986132 15.8486328125 359.339518844 -12 278.56773839 -12 c 0
 218.122134644 -12 169.262695312 3.4189453125 134.348632812 35.9892578125 c 1
 96.4169921875 70.6474609375 79.361328125 119.225585938 82.6533203125 176.927734375 c 0
 87.3798828125 259.72265625 120.1328125 328.73828125 178.508789062 382.993164062 c 0
 238.187927172 437.252929688 312.433892444 465 398.262394458 465 c 0
 696.180664062 465 l 0
 708.274414062 465 719.380859375 459.930664062 727.301757812 450.248046875 c 0
412.983725709 142.055664062 m 0
 442.644219334 195.141601562 459.166963314 251.048828125 462.534733795 307.927734375 c 0
 465.620843567 360.044921875 440.509474327 385.060546875 384.030423358 386 c 1
 336.058944206 386 298.369094066 358.846679688 268.47962447 299.236328125 c 0
 238.273033285 238.994140625 222.704693574 181.9609375 219.571978073 129.072265625 c 0
 219.352120614 125.359375 219.235606292 121.772460938 219.220408772 118.315429688 c 0
 218.995485473 67.21875 239.174752818 45 282.092549913 45 c 0
 331.124815976 45 375.406337218 75.27734375 412.983725709 142.055664062 c 0
EndSplineSet
EndChar

StartChar: tau
Encoding: 964 964 420
Width: 601
Flags: HW
LayerCount: 2
Fore
SplineSet
655.306640625 435.411132812 m 0
 663.422851562 425.487304688 665.982421875 412.61328125 665.333007812 401.236328125 c 0
 664.331054688 383.670898438 657.797851562 367.979492188 647.3359375 355.017578125 c 1
 635.48828125 339.657226562 620.556640625 332.163085938 603.306640625 332.163085938 c 0
 441.408564113 332.163085938 l 1
 382.76182892 43.640625 l 1
 379.328994563 28.3828125 368.857976935 14.69921875 352.117903446 4.078125 c 0
 335.713617224 -6.3310546875 318.620299637 -12 298.728754823 -12 c 0
 283.853481571 -12 269.741174494 -6.076171875 257.63024168 3.80859375 c 0
 244.908319802 11.8232421875 239.140625 22.248046875 239.988574244 33.23046875 c 0
 240.511252284 39.9443359375 242.121388171 47.068359375 245.022302636 54 c 1
 347.027697074 332.163085938 l 1
 279.266442663 332.163085938 l 0
 234.583984375 332.163085938 206.610351562 320.6640625 189.087890625 298.953125 c 0
 188.771484375 298.561523438 l 1
 188.40625 298.21484375 l 0
 185.739257812 295.692382812 180.43359375 289.779296875 174.118164062 281.953125 c 0
 173.483398438 281.166015625 l 1
 172.661132812 280.575195312 l 0
 167.015625 276.513671875 159.963867188 274.38671875 153.159179688 273.263671875 c 0
 152.552734375 273.163085938 l 1
 151.938476562 273.163085938 l 0
 133.556640625 273.163085938 118.353515625 279.375 119.307617188 296.094726562 c 0
 119.5546875 300.3984375 121.290039062 303.883789062 123.787109375 308.3671875 c 1
 177.405273438 401.001953125 233.728515625 450.163085938 298.06642214 450.163085938 c 0
 625.185546875 450.163085938 l 0
 637.41796875 450.163085938 647.61328125 444.81640625 655.306640625 435.411132812 c 0
EndSplineSet
EndChar

StartChar: upsilon
Encoding: 965 965 421
Width: 548
Flags: HW
LayerCount: 2
Fore
SplineSet
457.767524949 454.106445312 m 1
 473.934570312 474.413085938 492.670898438 485.142578125 515.461914062 484 c 1
 539.614257812 484 557.6171875 470.537109375 568.247070312 446.537109375 c 0
 568.319335938 446.375 l 1
 568.383789062 446.208984375 l 0
 575.736328125 427.228515625 579.711914062 405.115234375 578.282226562 380.072265625 c 0
 574.150390625 307.681640625 549.293945312 229.58984375 504.192382812 145.010742188 c 1
 450.692851066 42.5732421875 388.508228534 -12 319.883891868 -12 c 0
 312.211547878 -12 304.779514919 -11.80859375 297.587792991 -11.4228515625 c 0
 191.93359375 -5.7490234375 141.061523438 43.69921875 146.323242188 135.752929688 c 0
 148.266601562 169.782226562 157.616210938 208.23046875 172.186523438 250.684570312 c 1
 185.345703125 286.928710938 200.749698313 323.985351562 215.541256592 359.661132812 c 1
 224.232850817 383.131835938 229.361212514 400.911132812 230.11943525 413.42578125 c 0
 230.759574117 423.983398438 227.154908653 426.387695312 226.895952801 426.484375 c 1
 190.631835938 425.73046875 164.858398438 397.908203125 145.8046875 338.279296875 c 1
 143.951171875 328.73046875 140.373046875 318.283203125 134.556640625 304.256835938 c 0
 134.470703125 304.05078125 l 1
 134.374023438 303.850585938 l 0
 129.184570312 293.178710938 118.040039062 289.8359375 107.64453125 290.638671875 c 1
 89.259765625 290.938476562 75.5400390625 297.08203125 76.42578125 312.543945312 c 0
 78.4560546875 348.08984375 98.7099609375 385.418945312 133.443359375 424 c 0
 168.322265625 462.790039062 204.650609271 483.485351562 241.876030941 483.485351562 c 0
 274.147109247 483.485351562 302.152666754 474.973632812 326.014930626 456.7890625 c 1
 352.106286473 436.408203125 364.638713898 409.923828125 362.803234817 379.619140625 c 0
 362.240782706 370.328125 359.317689046 359.228515625 353.953159611 343.627929688 c 1
 338.709982326 305.140625 321.667579778 268.302734375 306.745507749 229.7890625 c 1
 291.601769511 186.5546875 282.997184453 147.956054688 281.057087208 115.9765625 c 0
 277.987942447 65.33984375 295.835179783 45 336.215719557 45 c 0
 383.994110117 45 431.762142444 95.0341796875 474.600585938 205.102539062 c 1
 488.743164062 243.874023438 497.020507812 270.80078125 497.884765625 285.926757812 c 0
 498.642578125 299.221679688 489.84765625 315.38671875 468.448242188 334.966796875 c 0
 445.362503803 355.3984375 431.427571483 375.208984375 432.680917808 395.927734375 c 0
 434.005735948 417.7890625 443.339540686 436.278320312 457.767524949 454.106445312 c 1
EndSplineSet
EndChar

StartChar: phi
Encoding: 966 966 422
Width: 694
Flags: HW
LayerCount: 2
Fore
SplineSet
678.146484375 406.888671875 m 1
 726.025390625 370.198242188 748.188476562 318.543945312 744.422851562 254.010742188 c 0
 739.66015625 172.395507812 698.305664062 105.607421875 620.643222822 54.6767578125 c 1
 551.747404263 11.71484375 472.692758189 -11.8916015625 382.645381245 -15.7783203125 c 1
 340.477026499 -169.360351562 l 1
 334.628557277 -192.133789062 320.753134977 -206 298.937898951 -206 c 0
 291.033548917 -206 282.026784726 -203.48046875 274.514561786 -197.14453125 c 0
 267.707559667 -191.404296875 262.930093905 -184.322265625 263.419492836 -176.072265625 c 0
 263.643420712 -172.293945312 265.167346164 -167.407226562 267.712625908 -159.420898438 c 1
 308.711692109 -13.0576171875 l 1
 244.189053239 -6.125 194.041015625 12.392578125 155.223632812 42.4013671875 c 1
 108.237304688 79.21875 87.2060546875 130.84765625 90.9658203125 195.306640625 c 0
 95.7822265625 277.866210938 137.177734375 344.78125 213.651775796 393.721679688 c 1
 279.400445117 435.731445312 357.177385077 458.360351562 445.409021057 463.155273438 c 1
 504.05076676 663.399414062 l 1
 509.88201076 686.100585938 523.767565544 700 545.579761825 700 c 0
 553.62697987 700 561.769443256 697.212890625 568.965532725 691.14453125 c 0
 576.353126123 684.9140625 579.453665939 677.341796875 579.023035409 670.071289062 c 0
 578.841663962 667.017578125 578.456629606 660.58203125 576.865829766 652.157226562 c 0
 576.804021619 651.831054688 l 1
 521.572869714 462.450195312 l 1
 586.782490936 456.447265625 638.52734375 437.752929688 678.146484375 406.888671875 c 1
547.922391908 109.779296875 m 1
 585.740871677 152.532226562 607.177152836 207.63671875 610.287825136 277.375 c 0
 615.101767837 358.654296875 579.813369088 401.444335938 505.677030291 411.739257812 c 1
 398.857354139 33.6103515625 l 1
 463.621146107 41.4931640625 512.148647221 66.775390625 547.922391908 109.779296875 c 1
323.544634059 33.3896484375 m 1
 431.183014842 410.151367188 l 1
 370.350626301 401.580078125 321.806913215 376.002929688 285.30768274 333.26171875 c 1
 249.702137271 290.741210938 229.113944944 235.362304688 225.038660258 166.572265625 c 0
 220.34225436 87.23046875 254.067210973 44.4794921875 323.544634059 33.3896484375 c 1
EndSplineSet
EndChar

StartChar: chi
Encoding: 967 967 423
Width: 686
Flags: HW
LayerCount: 2
Fore
SplineSet
173.54296875 369 m 0
 157.209960938 369 143.997070312 375.912109375 144.901367188 391.749023438 c 0
 145.1328125 416.170898438 160.608398438 437.109375 187.327148438 455.587890625 c 1
 212.000976562 474.072265625 237.618390108 484 262.556267403 484 c 0
 306.566908876 484 339.373238718 479.9765625 362.783025035 472.665039062 c 1
 396.169988916 463.166015625 421.811112323 442.693359375 438.72144537 413.06640625 c 1
 457.254108428 379.44140625 473.575700853 316.333007812 489.545670221 229.786132812 c 1
 708.819335938 462.766601562 l 1
 709.012695312 462.948242188 l 0
 716.139648438 469.690429688 724.057617188 474 732.6796875 474 c 0
 752.077148438 474 762.046875 460.862304688 759.728515625 440.854492188 c 0
 759.217773438 431.905273438 754.500976562 424.145507812 748.428710938 418.076171875 c 1
 500.845234208 153.094726562 l 1
 516.710831315 55.798828125 536.728012464 -16.8359375 560.060786238 -66.5009765625 c 1
 589.165447419 -133.3125 610.420909188 -158 617.798913437 -158 c 0
 628.624242293 -158 640.470703125 -151.41015625 651.876953125 -133.474609375 c 0
 662.66796875 -116.508789062 667.235351562 -101 677.860351562 -101 c 0
 699.860351562 -101 l 0
 711.512695312 -101 718.923828125 -110.493164062 719.55078125 -122.095703125 c 0
 719.573242188 -122.51171875 l 1
 719.549804688 -122.927734375 l 0
 718.16015625 -147.275390625 701.827148438 -168.1015625 675.150390625 -187.532226562 c 1
 650.40625 -206.069335938 625.752485111 -216 600.725435398 -216 c 0
 556.657034518 -216 524.226647483 -212.09765625 501.516053987 -204.66015625 c 1
 466.676998349 -195.0625 442.3775145 -173.452148438 426.612236363 -143.911132812 c 1
 406.646734683 -105.9609375 389.338165725 -45.380859375 374.655116477 37.986328125 c 1
 157.8125 -194.517578125 l 1
 151.411132812 -201.706054688 143.032226562 -206 133.723632812 -206 c 0
 115.102539062 -206 105.545898438 -192.650390625 106.663085938 -173.072265625 c 0
 107.142578125 -164.668945312 109.837890625 -156.274414062 115.618164062 -149.52734375 c 1
 362.456735052 114.923828125 l 1
 347.513261811 210.221679688 328.472923966 283.045898438 306.266965289 334.657226562 c 1
 278.418824541 401.014648438 255.441727115 427 244.503919414 427 c 0
 227.681745462 427 216.62890625 418.306640625 208.876953125 396.861328125 c 1
 207.946289062 394.478515625 206.6953125 389.758789062 205.376953125 383.86328125 c 0
 205.139648438 382.80078125 l 1
 204.609375 381.848632812 l 0
 198.91796875 371.63671875 186.131835938 369 173.54296875 369 c 0
EndSplineSet
EndChar

StartChar: psi
Encoding: 968 968 424
Width: 708
Flags: HW
LayerCount: 2
Fore
SplineSet
625.525133119 443.80859375 m 1
 641.91796875 463.666015625 660.653320312 474.159179688 683.444335938 473.041015625 c 1
 708.587890625 473.041015625 728.458007812 458.989257812 740.016601562 434.663085938 c 1
 749.411132812 416.234375 754.647460938 395.102539062 753.20703125 370.43359375 c 0
 751.318359375 338.064453125 741.947265625 299.633789062 728.205078125 254.262695312 c 1
 704.758789062 183.645507812 667.6953125 123.000976562 614.194889573 73.17578125 c 0
 555.293601167 19.63671875 488.491278058 -8.482421875 418.174799617 -11.78125 c 1
 372.809329656 -169.405273438 l 1
 366.992517725 -192.095703125 353.131071074 -206 331.362522114 -206 c 0
 323.331033874 -206 315.202463933 -203.211914062 308.022463114 -197.14453125 c 0
 300.648298893 -190.9140625 297.554830935 -183.337890625 297.984619716 -176.072265625 c 0
 298.208109883 -172.302734375 299.734112873 -167.390625 302.264304711 -159.434570312 c 1
 343.232782622 -10.6689453125 l 1
 291.706669705 -8.1142578125 248.163504176 6.068359375 211.422125339 31.30078125 c 1
 166.559570312 61.6357421875 146.72265625 103.4921875 150.384765625 154.711914062 c 1
 150.999023438 183.473632812 159.1875 218.279296875 173.728515625 259.802734375 c 1
 193.748046875 310.161132812 194.709960938 310.064453125 215.094038434 359.720703125 c 1
 223.515876014 382.196289062 228.498392075 399.827148438 229.302349913 413.42578125 c 0
 229.928324632 423.983398438 226.408101696 426.387695312 226.156296033 426.484375 c 1
 191.657226562 425.743164062 165.662109375 399.05078125 145.802734375 340.774414062 c 1
 134.698242188 304.659179688 l 1
 134.596679688 304.400390625 l 0
 131.431640625 296.298828125 124.573242188 290.643554688 116.09765625 290.643554688 c 0
 94.09765625 290.643554688 l 0
 81.806640625 290.643554688 75.7646484375 301.291015625 76.408203125 312.544921875 c 0
 78.439453125 348.08984375 98.693359375 385.418945312 133.426757812 424 c 0
 168.3046875 460.577148438 204.437299191 480.091796875 240.781249814 480.091796875 c 0
 272.287295659 480.091796875 299.62894103 472.065429688 322.92450425 454.91796875 c 1
 348.39833814 435.015625 360.633666296 409.15234375 358.840688627 379.55859375 c 0
 358.297637861 370.352539062 355.372040344 358.943359375 350.254014408 343.674804688 c 0
 350.176146794 343.443359375 l 1
 309.004404071 243.315429688 l 1
 294.449227764 204.78515625 285.548049284 172.510742188 284.896792872 144.686523438 c 1
 281.752761527 91.5 307.366150363 60.3466796875 359.628466181 49.640625 c 1
 538.143511888 663.393554688 l 1
 543.966391425 686.10546875 557.822781737 700 579.593353234 700 c 0
 587.624841473 700 595.751388879 697.212890625 602.933412233 691.14453125 c 0
 610.306565186 684.9140625 613.401044412 677.341796875 612.971255631 670.071289062 c 0
 612.790238709 667.017578125 612.405956975 660.58203125 610.818266653 652.157226562 c 0
 610.758601858 651.838867188 l 1
 435.370395944 44.283203125 l 1
 511.125472188 50.5654296875 578.363651685 101.462890625 638.090820312 200.497070312 c 1
 657.73828125 232.385742188 667.661132812 258.692382812 668.8671875 279.346679688 c 0
 669.624023438 292.3125 660.911132812 308.06640625 638.555664062 327.193359375 c 0
 614.528607921 347.196289062 600.842110586 366.6171875 602.067767064 386.916015625 c 0
 603.346009463 408.037109375 611.293562482 426.1953125 625.525133119 443.80859375 c 1
EndSplineSet
EndChar

StartChar: omega
Encoding: 969 969 425
Width: 690
Flags: HW
LayerCount: 2
Fore
SplineSet
710.120117188 446.818359375 m 1
 719.693359375 427.61328125 724.661132812 404.166015625 723.057617188 376.072265625 c 0
 720.94921875 339.131835938 711.287109375 295.416015625 693.366210938 246.928710938 c 1
 660.8984375 156.852539062 611.129882812 86.5361328125 543.826667417 35.5849609375 c 0
 501.753378076 4.0185546875 462.950212244 -12 427.216274961 -12 c 0
 384.913681273 -12 353.988032947 10.7412109375 333.053357688 52.8583984375 c 1
 282.875275734 9.3935546875 236.447233026 -12 190.823242188 -12 c 0
 147.901367188 -12 116.971679688 9.322265625 98.3330078125 52.5947265625 c 1
 85.3544921875 84.2822265625 81.60546875 123.28515625 84.267578125 169.927734375 c 0
 88.767578125 248.780273438 122.166992188 332.98828125 183.711914062 419.885742188 c 1
 208.628354228 453.588867188 229.139932526 474 246.31442233 474 c 0
 267.694516212 474 279.804017943 461.626953125 278.585458112 441.073242188 c 0
 278.409928678 438.099609375 l 1
 276.23863972 436.122070312 l 1
 274.581763614 434.352539062 267.217644338 425.569335938 255.929985623 408.48828125 c 1
 193.6484375 312.751953125 162.682617188 246.8671875 160.868164062 215.072265625 c 0
 157.134765625 149.640625 177.450195312 121.879882812 220.267071811 121 c 1
 247.058139529 121 280.818638951 134.19921875 314.849027561 159.3359375 c 1
 321.756567384 263.787109375 352.228680119 323 412.946645104 323 c 0
 447.005443103 323 463.505209936 300.598632812 461.396827481 265.072265625 c 0
 459.555290351 234.002929688 441.972922903 193.913085938 413.433663188 148.8203125 c 1
 428.952291506 129.48046875 446.729466188 121 471.617104895 121 c 0
 508.623376922 121 543.934217244 136.772460938 577.099134135 169.71875 c 0
 610.137695312 202.802734375 626.0390625 236.017578125 628.088867188 271.927734375 c 0
 629.111328125 289.84375 620.194335938 309.66015625 594.963566224 331.96875 c 1
 567.99595445 356.274414062 553.188575459 376.704101562 554.32698023 395.927734375 c 0
 555.74643502 419.833984375 566.225440791 440.791015625 585.067967532 457.948242188 c 0
 603.888671875 475.104492188 625.359375 484 649.278320312 484 c 0
 676.752929688 484 698.17578125 471.27734375 710.120117188 446.818359375 c 1
EndSplineSet
EndChar

StartChar: theta1
Encoding: 977 977 426
Width: 619
Flags: HW
LayerCount: 2
Fore
SplineSet
664.364257812 381.0234375 m 1
 686.741210938 378.763671875 703.384765625 370.807617188 702.309570312 352.518554688 c 0
 701.180664062 333.29296875 691.499023438 320.376953125 675.337890625 320.376953125 c 0
 668.73046875 320.376953125 659.659179688 323.0078125 649.817382812 326.122070312 c 1
 625.608398438 246.708007812 592.184570312 177.581054688 545.838775132 115.515625 c 1
 483.936590865 32.041015625 415.729930988 -12 340.301891759 -12 c 0
 330.183421872 -12 320.492908167 -11.69921875 311.227301073 -11.095703125 c 0
 209.772207095 -4.4814453125 159.895507812 40.380859375 165.524414062 121.971679688 c 1
 166.922851562 146.491210938 171.346679688 170.022460938 176.697265625 193.1875 c 0
 176.735351562 193.353515625 l 1
 204.570658933 292.478515625 l 1
 209.692918302 310.869140625 211.470817019 325.387695312 211.078439143 334.178710938 c 0
 211.061158252 334.553710938 l 1
 211.083521758 334.927734375 l 0
 212.499538289 358.755859375 206.246905351 362 201.180554747 362 c 0
 189.44140625 362 180.7109375 356.737304688 172.3125 339.9921875 c 1
 167.067382812 330.578125 160.262695312 313.305664062 153.913085938 288.604492188 c 1
 147.469726562 264.334960938 142.858398438 249.2265625 137.379882812 240.508789062 c 0
 131.982421875 231.919921875 124.05078125 227 114.458984375 227 c 0
 96.3818359375 227 79.849609375 232.7890625 80.8271484375 249.927734375 c 0
 82.6533203125 281.927734375 97.3408203125 317.099609375 123.967773438 355.764648438 c 0
 152.791992188 397.46484375 182.651367188 420 215.311240892 420 c 1
 249.19703491 418.948242188 280.057656496 409.640625 306.683443288 391.544921875 c 1
 334.721180519 371.002929688 347.905483757 343.594726562 347.040422688 310.193359375 c 1
 346.670408318 303.958984375 345.110045522 296.088867188 342.293260305 285.564453125 c 1
 313.44637077 185.544921875 l 1
 304.265135084 152.001953125 299.677566811 125.32421875 299.595228448 107.466796875 c 0
 299.594211925 107.26953125 l 1
 299.582013649 107.072265625 l 0
 298.244269389 84.5693359375 300.914675295 68.7666015625 304.957387244 61.232421875 c 1
 311.103285268 52.0703125 324.025325572 45.923828125 346.089973689 45 c 1
 382.136895593 45 421.407211912 84.7021484375 458.327327068 176.192382812 c 1
 467.469934879 198.024414062 486.744227376 260.134765625 514.551213887 357.131835938 c 1
 404.643731211 392.749023438 351.058738085 453.413085938 356.232840127 537.927734375 c 0
 359.067922758 585.629882812 377.924424304 628.29296875 412.352025078 667.36328125 c 1
 449.216231469 708.68359375 493.256073678 730 542.606232009 730 c 0
 597.134765625 730 636.59375 702.713867188 660.681640625 650.678710938 c 0
 680.047851562 609.29296875 687.461914062 560.9765625 684.328125 506.072265625 c 0
 682.158203125 469.122070312 674.828125 425.883789062 664.364257812 381.0234375 c 1
530.510624899 424 m 1
 551.976540972 496.323242188 562.740502959 548.2109375 565.068340616 583.927734375 c 0
 565.452586308 590.397460938 565.647758723 596.514648438 565.655890907 602.275390625 c 0
 565.732130132 654.514648438 551.445915969 673 528.660553049 673 c 0
 499.574780611 673 473.76729483 657.923828125 450.93415533 627.171875 c 1
 431.366087688 600.314453125 420.659050988 570.682617188 418.781533017 539.072265625 c 0
 415.451403688 489.672851562 451.241145274 450.998046875 530.510624899 424 c 1
EndSplineSet
EndChar

StartChar: phi1
Encoding: 981 981 427
Width: 747
Flags: HW
LayerCount: 2
Fore
SplineSet
630.169447461 478 m 1
 678.399414062 478 715.75390625 460.942382812 741.981445312 425.943359375 c 0
 765.791992188 393.592773438 776.302734375 352.868164062 773.635742188 306.14453125 c 0
 768.684570312 219.396484375 725.856445312 144.288085938 647.412223577 83.138671875 c 1
 565.396321016 23.265625 473.393830194 -8 371.512676062 -8 c 0
 367.769596672 -8 361.977960495 -7.6787109375 359.573352232 -7.513671875 c 1
 332.668771354 -132.078125 l 0
 321.338668744 -183.518554688 289.362623795 -214 240.264840058 -214 c 0
 222.059817179 -214 207.010842646 -208.5234375 195.027138462 -198.029296875 c 0
 182.05859375 -186.624023438 177.340820312 -171.19921875 178.314453125 -154.14453125 c 0
 178.997070312 -142.20703125 186.944870839 -124.709960938 200.874250082 -93.08203125 c 1
 216.698872163 -58.8271484375 231.79222705 -23.6845703125 244.138034576 7.150390625 c 1
 186.495015434 20.8525390625 144.793945312 43.15234375 112.458007812 75.375 c 0
 76.556640625 111.149414062 59.9501953125 154.819335938 62.748046875 203.853515625 c 0
 64.3623046875 232.150390625 72.736328125 266.473632812 89.53125 309.493164062 c 1
 111.053710938 363.74609375 137.392578125 409.405273438 169.817382812 445.03515625 c 1
 182.204101562 458.947265625 199.550908622 469.518554688 218.013135824 470.950195312 c 0
 218.649590444 471 l 1
 219.294114219 471 l 0
 240.024782689 471 259.968708524 460.818359375 258.646375708 439.127929688 c 0
 257.80214034 425.32421875 244.19855324 417.090820312 235.389053001 410 c 1
 206.870641074 381.90625 183.476142728 343.776367188 164.317382812 295.611328125 c 1
 150.40625 258.303710938 142.377929688 231.547851562 141.499023438 216.14453125 c 0
 138.85546875 169.829101562 179.938476562 135.342773438 294.950513802 122.127929688 c 1
 343.157664529 228.905273438 380.579380625 299.565429688 416.355997695 348.623046875 c 1
 478.573219217 431.869140625 549.421410918 476.90625 630.169447461 478 c 1
386.964099713 103.189453125 m 1
 472.989363787 104.939453125 537.071568815 117.499023438 586.632320334 140.461914062 c 0
 657.948242188 174.140625 689.2890625 215.844726562 692.0859375 264.85546875 c 0
 693.41015625 288.030273438 686.337890625 304.93359375 671.833007812 317.765625 c 0
 657.1015625 330.796875 635.718000337 338 606.307946756 338 c 0
 552.050946884 338 502.495238587 313.169921875 456.135924412 260.337890625 c 1
 433.072261431 234.5 416.401386693 207.169921875 406.773875841 179.352539062 c 0
 401.765956367 164.727539062 393.983256132 135.90234375 386.964099713 103.189453125 c 1
EndSplineSet
EndChar

StartChar: omega1
Encoding: 982 982 428
Width: 777
Flags: HW
LayerCount: 2
Fore
SplineSet
752.829101562 458.764648438 m 1
 782.63671875 458.764648438 l 2
 807.325195312 458.764648438 832.963867188 449.327148438 831.298828125 421.431640625 c 0
 829.361328125 388.952148438 800.543945312 374.295898438 765.326171875 374.295898438 c 0
 754.106445312 374.295898438 l 1
 745.954101562 295.907226562 718.995117188 219.788085938 669.477085097 141.479492188 c 0
 606.869723252 42.1943359375 533.511185597 -12 447.730184997 -12 c 0
 391.700309 -12 356.282303521 17.609375 344.688943886 67.9970703125 c 1
 296.569759908 14.00390625 246.773251636 -12 191.266601562 -12 c 0
 111.57421875 -12 76.8662109375 47.1357421875 82.6240234375 144.979492188 c 0
 87.8203125 233.274414062 119.904296875 321.8203125 177.204101562 412.713867188 c 1
 197.795898438 444.48828125 214.195729949 471 236.828036689 471 c 0
 254.970708757 471 263.347268291 456.5 261.279540983 443.755859375 c 1
 259.448269108 434.880859375 255.114594404 430.252929688 249.526196608 421.999023438 c 0
 249.323951747 421.701171875 l 1
 249.072403412 421.366210938 l 0
 180.973632812 330.055664062 146.9453125 253.297851562 143.200195312 190.173828125 c 0
 141.443359375 160.530273438 146.766601562 135.751953125 155.766601562 118.913085938 c 1
 167.634765625 98.4609375 184.278320312 89 209.54107957 89 c 0
 255.241374764 89 300.391282204 116.364257812 346.268667426 178.31640625 c 1
 348.470218448 191.881835938 363.863970318 338 425.67744562 338 c 0
 448.610604167 338 460.397152923 320.439453125 459.164566084 300.1328125 c 0
 457.353418077 270.28515625 439.937217598 225.853515625 408.512793476 163.555664062 c 1
 409.226184552 107.715820312 428.536040891 89 466.932378649 89 c 0
 530.915206786 89 583.634706703 122.458984375 625.244825981 195.47265625 c 0
 654.260423254 246.575195312 672.74922583 308.133789062 680.482827822 372.487304688 c 1
 603.539223305 374.608398438 531.925424897 383.844726562 458.578961562 400.6640625 c 0
 347.154117563 425.76953125 277.844501898 464.129882812 280.418344455 524.581054688 c 0
 280.432431162 524.94140625 l 1
 280.464629348 525.288085938 l 0
 284.299232157 567.786132812 313.644860845 601.14453125 362.542838466 623.494140625 c 1
 400.893897524 641.537109375 443.408584613 650 488.984111834 650 c 0
 643.822173571 650 733.620117188 583.322265625 752.829101562 458.764648438 c 1
376.991774792 528.413085938 m 1
 375.737051701 507.752929688 406.509462541 482.208984375 507.101629068 465.776367188 c 0
 559.902630646 456.821289062 620.967498104 451.076171875 683.265958594 450.129882812 c 1
 675.644044062 491.453125 658.691698712 521.983398438 631.948085996 546.091796875 c 0
 602.061125293 573.03515625 561.683592853 587 509.317266797 587 c 0
 476.804141483 587 447.639627597 582.26171875 423.260569223 573.845703125 c 1
 389.220042423 562.7734375 377.405320254 547.81640625 376.991774792 528.413085938 c 1
EndSplineSet
EndChar

StartChar: afii10051
Encoding: 1026 1026 431
Width: 848
Flags: MW
LayerCount: 2
Fore
SplineSet
507 623 m 2
 450 412 l 1
 562 412 l 2
 740 412 829 361 829 259 c 0
 829 241 827 222 821 201 c 0
 800 126 747 65 675 35 c 0
 614 10 553 0 453 0 c 2
 66 0 l 1
 73 54 l 1
 100 54 l 2
 142 54 166 58 176 68 c 0
 185 76 184 76 203 144 c 2
 333 629 l 2
 336 639 337 648 337 653 c 0
 337 663 327 668 309 668 c 0
 224 668 163 603 94 439 c 1
 44 455 l 1
 115 722 l 1
 762 722 l 1
 718 439 l 1
 665 444 l 1
 667 467 668 492 668 504 c 0
 668 609 626 668 550 668 c 0
 521 668 518 666 507 623 c 2
435 357 m 1
 370 115 l 2
 366 101 364 90 364 81 c 0
 364 61 377 55 409 55 c 2
 449 55 l 2
 544 55 600 100 627 200 c 0
 634 226 637 247 637 266 c 0
 637 332 593 357 493 357 c 2
 435 357 l 1
EndSplineSet
EndChar

StartChar: afii10053
Encoding: 1028 1028 433
Width: 810
Flags: MW
LayerCount: 2
Fore
SplineSet
262 399 m 1
 523 399 l 1
 507 339 l 1
 246 339 l 1
 233 285 227 239 227 200 c 0
 227 96 273 47 368 47 c 0
 483 47 584 126 648 265 c 1
 706 250 l 1
 620 71 495 -15 318 -15 c 0
 201 -15 125 19 77 95 c 0
 49 139 35 187 35 242 c 0
 35 276 40 312 51 352 c 0
 111 576 312 737 532 737 c 0
 603 737 645 724 701 684 c 1
 768 733 l 1
 811 733 l 1
 744 447 l 1
 689 441 l 1
 689 608 637 685 526 685 c 0
 409 685 318 587 262 399 c 1
EndSplineSet
EndChar

StartChar: afii10058
Encoding: 1033 1033 438
Width: 1227
Flags: MW
LayerCount: 2
Fore
SplineSet
1003 668 m 1
 988 668 l 2
 935 668 913 664 901 654 c 0
 891 645 891 642 874 578 c 2
 829 412 l 1
 941 412 l 2
 1119 412 1208 361 1208 259 c 0
 1208 241 1206 222 1200 201 c 0
 1179 126 1126 65 1054 35 c 0
 993 10 932 0 832 0 c 2
 435 0 l 1
 449 54 l 1
 464 54 l 2
 516 54 533 58 545 69 c 0
 554 77 560 81 577 144 c 2
 716 662 l 1
 600 662 l 2
 563 662 537 638 519 578 c 1
 464 374 l 1
 384 82 251 -16 107 -16 c 0
 27 -16 -12 32 -12 94 c 0
 -12 108 -10 123 -6 138 c 0
 14 209 55 240 119 240 c 2
 122 240 l 1
 179 239 201 212 201 180 c 0
 201 173 200 165 198 158 c 0
 175 78 134 120 112 92 c 0
 109 88 108 84 108 81 c 0
 108 67 125 54 150 54 c 0
 236 54 312 224 351 370 c 2
 406 577 l 2
 414 607 417 623 417 634 c 0
 417 646 413 649 411 653 c 0
 405 664 385 668 333 668 c 2
 318 668 l 1
 332 722 l 1
 1017 722 l 1
 1003 668 l 1
814 357 m 1
 749 115 l 2
 745 101 743 90 743 81 c 0
 743 61 756 55 788 55 c 2
 828 55 l 2
 923 55 979 100 1006 200 c 0
 1013 226 1016 247 1016 266 c 0
 1016 332 972 357 872 357 c 2
 814 357 l 1
EndSplineSet
EndChar

StartChar: afii10059
Encoding: 1034 1034 439
Width: 1175
Flags: MW
LayerCount: 2
Fore
SplineSet
949 668 m 1
 927 668 l 2
 874 668 861 664 849 654 c 0
 839 645 839 642 822 578 c 2
 777 412 l 1
 889 412 l 2
 1067 412 1156 361 1156 259 c 0
 1156 241 1154 222 1148 201 c 0
 1127 126 1074 65 1002 35 c 0
 941 10 880 0 780 0 c 2
 383 0 l 1
 390 54 l 1
 402 54 l 2
 444 54 468 58 478 68 c 0
 487 76 487 76 505 144 c 2
 558 340 l 1
 302 340 l 1
 250 144 l 2
 240 110 236 89 236 81 c 0
 236 59 250 54 315 54 c 2
 326 54 l 1
 318 0 l 1
 -41 0 l 1
 -34 54 l 1
 -30 54 l 2
 39 54 51 60 62 102 c 0
 65 114 70 130 73 144 c 2
 190 578 l 2
 199 612 203 632 203 641 c 0
 203 663 189 668 124 668 c 2
 105 668 l 1
 113 722 l 1
 488 722 l 1
 481 668 l 1
 469 668 l 2
 427 668 403 664 393 654 c 1
 384 647 384 647 366 578 c 2
 318 401 l 1
 574 401 l 1
 621 578 l 2
 631 613 635 632 635 641 c 0
 635 663 621 668 556 668 c 2
 545 668 l 1
 553 722 l 1
 956 722 l 1
 949 668 l 1
762 357 m 1
 697 115 l 2
 693 101 691 90 691 81 c 0
 691 61 704 55 736 55 c 2
 776 55 l 2
 871 55 927 100 954 200 c 0
 961 226 964 247 964 266 c 0
 964 332 920 357 820 357 c 2
 762 357 l 1
EndSplineSet
EndChar

StartChar: afii10062
Encoding: 1038 1038 443
Width: 694
Flags: HMW
LayerCount: 2
Fore
SplineSet
285 941 m 1
 334 941 l 1
 339 882 370 856 434 856 c 0
 496 856 548 891 561 941 c 1
 607 941 l 1
 604 905 590 869 564 839 c 1
 530 797 483 777 422 777 c 0
 332 777 283 826 283 915 c 0
 283 923 283 929 285 941 c 1
EndSplineSet
Refer: 464 1059 S 1 0 0 1 0 0 2
EndChar

StartChar: afii10145
Encoding: 1039 1039 444
Width: 940
Flags: MW
LayerCount: 2
Fore
SplineSet
260 60 m 1
 521 60 l 1
 660 578 l 2
 671 621 676 636 676 644 c 0
 676 648 675 650 673 653 c 0
 667 664 646 668 594 668 c 2
 579 668 l 1
 593 722 l 1
 982 722 l 1
 968 668 l 1
 953 668 l 2
 901 668 879 664 867 653 c 0
 858 645 857 641 840 578 c 2
 724 145 l 2
 712 100 708 85 708 77 c 0
 708 73 709 71 710 69 c 0
 717 58 736 54 788 54 c 2
 803 54 l 1
 789 0 l 1
 -41 0 l 1
 -27 54 l 1
 -12 54 l 2
 40 54 64 58 75 69 c 1
 85 77 85 81 102 145 c 2
 218 578 l 2
 230 623 234 638 234 645 c 0
 234 649 234 651 232 653 c 0
 226 664 205 668 153 668 c 2
 138 668 l 1
 152 722 l 1
 541 722 l 1
 527 668 l 1
 512 668 l 2
 460 668 438 664 426 653 c 0
 417 645 416 641 399 578 c 2
 260 60 l 1
EndSplineSet
EndChar

StartChar: afii10018
Encoding: 1041 1041 446
Width: 793
Flags: MW
LayerCount: 2
Fore
SplineSet
394 598 m 2
 341 398 l 1
 390 398 l 2
 599 398 729 368 729 248 c 0
 729 230 726 211 720 189 c 0
 699 113 643 59 571 30 c 0
 514 8 459 0 355 0 c 2
 -50 0 l 1
 -36 54 l 1
 -21 54 l 2
 31 54 54 58 65 69 c 1
 75 77 76 81 93 144 c 2
 209 578 l 2
 220 621 225 636 225 645 c 0
 225 649 224 651 222 654 c 0
 216 664 196 668 144 668 c 2
 129 668 l 1
 143 722 l 1
 815 722 l 1
 755 453 l 1
 702 453 l 1
 701 522 693 560 675 593 c 0
 647 642 597 668 526 668 c 2
 505 668 l 2
 456 668 442 666 427 654 c 0
 411 642 403 631 394 598 c 2
326 343 m 1
 266 118 l 2
 259 91 257 84 257 78 c 0
 257 59 275 54 309 54 c 2
 339 54 l 2
 387 54 423 63 454 84 c 0
 489 108 519 152 532 200 c 0
 536 216 538 231 538 245 c 0
 538 277 528 303 508 319 c 0
 485 337 458 343 395 343 c 2
 326 343 l 1
EndSplineSet
EndChar

StartChar: afii10020
Encoding: 1043 1043 448
Width: 704
Flags: MW
LayerCount: 2
Fore
SplineSet
726 722 m 1
 686 477 l 1
 634 477 l 1
 633 540 627 577 613 604 c 1
 593 646 546 668 476 668 c 2
 440 668 l 2
 399 668 388 659 377 620 c 2
 250 144 l 2
 240 108 236 90 236 81 c 0
 236 59 250 54 315 54 c 2
 342 54 l 1
 334 0 l 1
 -41 0 l 1
 -34 54 l 1
 -30 54 l 2
 39 54 51 60 62 102 c 2
 73 144 l 1
 190 578 l 2
 199 613 203 632 203 641 c 0
 203 663 189 668 124 668 c 2
 105 668 l 1
 113 722 l 1
 726 722 l 1
EndSplineSet
EndChar

StartChar: afii10021
Encoding: 1044 1044 449
Width: 874
Flags: MW
LayerCount: 2
Fore
SplineSet
427 0 m 2
 246 0 l 2
 175 0 146 -4 111 -20 c 0
 39 -52 -28 -126 -72 -222 c 1
 -125 -222 l 1
 -35 54 l 1
 50 54 l 2
 136 54 212 224 251 370 c 2
 306 577 l 2
 314 606 317 623 317 633 c 0
 317 646 313 649 310 653 c 0
 304 664 284 668 232 668 c 2
 217 668 l 1
 232 722 l 1
 917 722 l 1
 902 668 l 1
 887 668 l 2
 835 668 812 664 800 653 c 0
 791 645 791 641 774 577 c 2
 658 144 l 2
 647 101 642 86 642 78 c 0
 642 74 643 72 645 69 c 0
 651 58 671 54 723 54 c 2
 738 54 l 1
 680 -222 l 1
 627 -222 l 1
 628 -211 628 -200 628 -190 c 0
 628 -109 602 -48 552 -20 c 0
 525 -4 498 0 427 0 c 2
233 95 m 0
 226 86 223 80 223 76 c 0
 223 64 243 64 258 63 c 1
 366 63 l 2
 418 63 435 67 447 78 c 0
 457 86 460 81 477 144 c 2
 615 658 l 1
 499 658 l 2
 462 658 436 637 418 577 c 1
 364 374 l 1
 329 248 284 156 233 95 c 0
EndSplineSet
EndChar

StartChar: afii10024
Encoding: 1046 1046 451
Width: 1202
Flags: MW
LayerCount: 2
Fore
SplineSet
527 317 m 1
 490 317 l 1
 379 314 310 200 285 112 c 0
 268 50 230 -16 106 -16 c 0
 51 -16 -10 -4 -10 83 c 0
 -10 104 -6 130 2 162 c 1
 86 162 l 1
 79 131 72 104 72 86 c 0
 72 71 76 62 89 62 c 0
 157 62 135 344 349 366 c 1
 315 378 305 413 305 455 c 0
 305 524 332 611 332 656 c 0
 332 673 328 684 316 684 c 0
 288 684 283 677 283 672 c 0
 283 668 285 666 285 666 c 1
 288 666 l 2
 299 666 302 660 302 650 c 0
 302 638 297 622 292 608 c 1
 280 564 224 558 198 558 c 0
 169 558 155 584 155 613 c 0
 155 620 155 627 157 634 c 1
 160 662 198 736 312 736 c 0
 414 736 438 692 438 637 c 0
 438 588 420 531 420 486 c 0
 420 441 438 408 510 408 c 1
 551 409 l 1
 597 578 l 1
 608 623 613 638 613 646 c 0
 613 649 612 651 611 653 c 0
 605 664 585 668 533 668 c 2
 518 668 l 1
 532 722 l 1
 921 722 l 1
 907 668 l 1
 892 668 l 2
 840 668 817 664 805 653 c 0
 796 645 794 641 778 578 c 1
 732 409 l 1
 773 408 l 1
 999 408 867 736 1147 736 c 0
 1233 736 1253 694 1253 661 c 0
 1253 651 1251 641 1248 634 c 0
 1236 598 1201 558 1165 558 c 0
 1142 558 1097 563 1097 596 c 0
 1097 600 1098 604 1099 608 c 0
 1104 633 1110 666 1133 666 c 2
 1136 666 l 1
 1136 666 1142 671 1142 675 c 0
 1142 680 1137 684 1115 684 c 0
 1055 684 1043 406 912 366 c 1
 993 357 1013 307 1013 249 c 0
 1013 190 991 123 991 87 c 0
 991 71 996 62 1008 62 c 0
 1036 62 1048 106 1065 162 c 1
 1149 162 l 1
 1106 2 1017 -16 949 -16 c 0
 857 -16 832 20 832 64 c 0
 832 79 836 96 840 112 c 0
 846 136 849 162 849 188 c 0
 849 254 824 315 745 317 c 1
 708 317 l 1
 661 144 l 2
 650 102 645 86 645 78 c 0
 645 74 646 72 648 69 c 0
 654 58 675 54 727 54 c 2
 742 54 l 1
 728 0 l 1
 339 0 l 1
 353 54 l 1
 368 54 l 2
 420 54 442 58 454 69 c 0
 463 77 463 81 480 144 c 2
 527 317 l 1
EndSplineSet
EndChar

StartChar: afii10025
Encoding: 1047 1047 452
Width: 719
Flags: MW
LayerCount: 2
Fore
SplineSet
12 208 m 0
 25 255 55 288 104 288 c 0
 141 288 160 265 160 241 c 0
 160 236 159 232 158 228 c 0
 151 200 138 189 118 176 c 0
 111 172 98 169 90 169 c 2
 87 169 l 1
 82 170 80 174 77 174 c 0
 66 174 54 165 54 153 c 1
 52 145 51 137 51 130 c 0
 51 49 183 43 228 43 c 0
 329 43 421 92 451 204 c 0
 454 214 455 223 455 232 c 0
 455 292 401 336 334 336 c 2
 244 336 l 1
 266 417 l 1
 353 417 l 2
 460 417 525 480 544 550 c 0
 548 567 551 582 551 596 c 0
 551 655 510 685 446 685 c 0
 342 685 244 612 147 470 c 1
 94 470 l 1
 177 729 l 1
 222 729 l 1
 261 683 l 1
 328 721 386 737 456 737 c 0
 589 737 680 681 680 581 c 0
 680 565 678 547 673 529 c 0
 659 477 598 392 541 376 c 1
 588 370 621 321 621 259 c 0
 621 243 618 227 614 210 c 0
 563 21 435 -16 222 -16 c 2
 213 -16 l 1
 210 -16 l 2
 86 -16 2 30 2 137 c 0
 2 158 5 182 12 208 c 0
EndSplineSet
EndChar

StartChar: afii10026
Encoding: 1048 1048 453
Width: 940
Flags: MW
LayerCount: 2
Fore
SplineSet
624 446 m 1
 286 162 l 1
 282 144 l 1
 270 101 266 85 266 77 c 0
 266 74 267 72 268 69 c 0
 275 58 295 54 347 54 c 2
 362 54 l 1
 348 0 l 1
 -41 0 l 1
 -27 54 l 1
 -12 54 l 2
 40 54 63 58 74 69 c 1
 84 77 85 81 102 144 c 2
 218 577 l 2
 229 620 234 636 234 644 c 0
 234 648 233 650 231 653 c 0
 225 664 205 668 153 668 c 2
 138 668 l 1
 152 722 l 1
 541 722 l 1
 527 668 l 1
 512 668 l 2
 460 668 437 664 425 653 c 0
 416 645 415 641 398 577 c 2
 313 262 l 1
 650 546 l 1
 659 577 l 1
 670 621 674 636 674 645 c 0
 674 648 674 651 672 653 c 0
 666 664 646 668 594 668 c 2
 579 668 l 1
 593 722 l 1
 982 722 l 1
 968 668 l 1
 953 668 l 2
 901 668 878 664 866 653 c 0
 857 645 856 641 839 577 c 2
 723 144 l 2
 711 101 707 85 707 77 c 0
 707 74 708 72 709 69 c 0
 716 58 736 54 788 54 c 2
 803 54 l 1
 789 0 l 1
 400 0 l 1
 414 54 l 1
 429 54 l 2
 481 54 504 58 515 69 c 1
 525 77 526 81 543 144 c 2
 624 446 l 1
EndSplineSet
EndChar

StartChar: afii10027
Encoding: 1049 1049 454
Width: 940
Flags: MW
LayerCount: 2
Fore
SplineSet
444 941 m 1
 493 941 l 1
 498 882 529 856 593 856 c 0
 655 856 707 891 720 941 c 1
 766 941 l 1
 763 905 749 869 723 839 c 1
 689 797 642 777 581 777 c 0
 491 777 442 826 442 915 c 0
 442 923 442 929 444 941 c 1
EndSplineSet
Refer: 453 1048 S 1 0 0 1 0 0 2
EndChar

StartChar: afii10028
Encoding: 1050 1050 455
Width: 823
Flags: MW
LayerCount: 2
Fore
SplineSet
365 317 m 1
 328 317 l 1
 282 144 l 2
 270 100 266 85 266 77 c 0
 266 73 267 71 268 69 c 0
 275 58 295 54 347 54 c 2
 362 54 l 1
 348 0 l 1
 -41 0 l 1
 -27 54 l 1
 -12 54 l 2
 40 54 63 58 74 69 c 1
 84 77 84 81 101 144 c 2
 217 578 l 2
 229 622 233 637 233 645 c 0
 233 649 233 651 231 653 c 0
 225 664 205 668 153 668 c 2
 138 668 l 1
 152 722 l 1
 541 722 l 1
 527 668 l 1
 512 668 l 2
 460 668 437 664 425 653 c 0
 416 645 415 641 398 578 c 2
 353 409 l 1
 393 408 l 1
 619 408 487 736 767 736 c 0
 853 736 873 694 873 661 c 0
 873 651 871 641 868 634 c 0
 856 598 822 558 786 558 c 0
 763 558 717 563 717 596 c 0
 717 600 718 604 719 608 c 0
 724 633 730 666 753 666 c 2
 756 666 l 1
 756 666 762 671 762 675 c 0
 762 680 757 684 735 684 c 0
 675 684 663 406 532 366 c 1
 613 357 634 306 634 249 c 0
 634 189 612 123 612 87 c 0
 612 72 616 62 629 62 c 0
 657 62 668 106 685 162 c 1
 769 162 l 1
 727 2 638 -16 570 -16 c 0
 478 -16 453 20 453 64 c 0
 453 80 456 96 460 112 c 0
 466 136 470 163 470 188 c 0
 470 255 444 315 365 317 c 1
EndSplineSet
EndChar

StartChar: afii10029
Encoding: 1051 1051 456
Width: 975
Flags: MW
LayerCount: 2
Fore
SplineSet
716 662 m 1
 600 662 l 2
 563 662 537 638 519 578 c 1
 464 374 l 1
 384 82 251 -16 107 -16 c 0
 27 -16 -12 32 -12 94 c 0
 -12 108 -10 123 -6 138 c 0
 14 209 63 240 119 240 c 2
 122 240 l 1
 179 239 201 212 201 180 c 0
 201 173 200 165 198 158 c 0
 175 78 134 120 112 92 c 0
 108 87 107 82 107 78 c 0
 107 63 125 54 150 54 c 0
 236 54 312 224 351 370 c 2
 406 577 l 2
 414 607 417 624 417 634 c 0
 417 646 414 649 411 653 c 0
 405 664 385 668 333 668 c 2
 318 668 l 1
 332 722 l 1
 1017 722 l 1
 1003 668 l 1
 988 668 l 2
 936 668 913 664 901 653 c 0
 892 645 891 641 874 577 c 2
 758 144 l 2
 746 99 742 84 742 77 c 0
 742 73 742 71 744 69 c 0
 750 58 771 54 823 54 c 2
 838 54 l 1
 824 0 l 1
 435 0 l 1
 449 54 l 1
 464 54 l 2
 516 54 533 58 545 69 c 0
 554 77 560 81 577 144 c 2
 716 662 l 1
EndSplineSet
EndChar

StartChar: afii10033
Encoding: 1055 1055 460
Width: 940
Flags: MW
LayerCount: 2
Fore
SplineSet
681 662 m 1
 420 662 l 1
 282 144 l 2
 270 101 266 85 266 77 c 0
 266 74 267 72 268 69 c 0
 275 58 295 54 347 54 c 2
 362 54 l 1
 348 0 l 1
 -41 0 l 1
 -27 54 l 1
 -12 54 l 2
 40 54 63 58 74 69 c 1
 84 77 85 81 102 144 c 2
 218 577 l 2
 229 620 234 636 234 644 c 0
 234 648 233 650 231 653 c 0
 225 664 205 668 153 668 c 2
 138 668 l 1
 152 722 l 1
 982 722 l 1
 968 668 l 1
 953 668 l 2
 901 668 878 664 866 653 c 0
 857 645 857 641 840 577 c 2
 724 144 l 2
 711 99 707 84 707 76 c 0
 707 73 708 71 709 69 c 0
 716 58 736 54 788 54 c 2
 803 54 l 1
 789 0 l 1
 400 0 l 1
 414 54 l 1
 429 54 l 2
 481 54 504 58 515 69 c 1
 525 77 526 81 543 144 c 2
 681 662 l 1
EndSplineSet
EndChar

StartChar: afii10037
Encoding: 1059 1059 464
Width: 693
Flags: MW
LayerCount: 2
Fore
SplineSet
27 -9 m 1
 25 -9 l 2
 -29 -9 -72 24 -72 74 c 0
 -72 83 -71 92 -68 101 c 0
 -53 159 -12 188 25 188 c 0
 61 188 80 173 80 145 c 0
 80 138 79 131 77 123 c 0
 70 96 56 90 45 83 c 0
 41 80 29 78 29 66 c 0
 29 58 34 51 50 51 c 0
 100 51 141 120 173 161 c 1
 60 617 l 2
 49 660 31 665 -12 668 c 1
 2 722 l 1
 360 722 l 1
 346 668 l 1
 287 668 266 658 261 639 c 0
 260 634 259 626 259 619 c 0
 259 612 260 605 261 601 c 2
 325 352 l 1
 486 553 l 1
 514 585 521 608 526 624 c 0
 527 629 528 633 528 637 c 0
 528 660 504 668 450 668 c 1
 464 722 l 1
 762 722 l 1
 748 668 l 1
 695 664 643 649 590 591 c 1
 206 110 l 2
 117 0 96 -8 27 -9 c 1
EndSplineSet
EndChar

StartChar: afii10038
Encoding: 1060 1060 465
Width: 946
Flags: MW
LayerCount: 2
Fore
SplineSet
484 112 m 1
 482 103 l 2
 478 87 476 81 476 77 c 0
 476 74 477 72 479 69 c 0
 485 58 506 54 558 54 c 2
 573 54 l 1
 558 0 l 1
 169 0 l 1
 184 54 l 1
 199 54 l 2
 251 54 273 58 285 69 c 0
 294 77 295 79 302 103 c 1
 304 112 l 1
 280 112 l 2
 208 112 2 125 2 300 c 0
 2 322 5 348 13 376 c 0
 78 620 350 634 425 634 c 2
 444 634 l 1
 448 648 l 2
 452 664 454 673 454 679 c 0
 454 684 453 687 451 690 c 0
 445 701 425 705 373 705 c 2
 358 705 l 1
 373 759 l 1
 762 759 l 1
 747 705 l 1
 732 705 l 2
 680 705 657 701 645 690 c 0
 636 682 636 677 628 648 c 2
 624 634 l 1
 644 634 l 2
 714 634 937 623 937 449 c 0
 937 429 934 407 927 382 c 0
 859 129 595 112 510 112 c 2
 484 112 l 1
496 154 m 1
 513 154 l 2
 562 154 693 168 749 376 c 0
 759 413 763 443 763 469 c 0
 763 587 673 597 632 597 c 2
 614 597 l 1
 496 154 l 1
316 154 m 1
 434 597 l 1
 417 597 l 2
 369 597 242 582 185 370 c 0
 176 336 172 307 172 283 c 0
 172 161 272 154 306 154 c 2
 316 154 l 1
EndSplineSet
EndChar

StartChar: afii10040
Encoding: 1062 1062 467
Width: 940
Flags: MW
LayerCount: 2
Fore
SplineSet
493 0 m 2
 -41 0 l 1
 -27 54 l 1
 -12 54 l 2
 40 54 64 58 75 69 c 1
 85 77 86 81 103 145 c 2
 219 578 l 2
 230 621 235 636 235 644 c 0
 235 648 234 650 232 653 c 0
 226 664 205 668 153 668 c 2
 138 668 l 1
 152 722 l 1
 541 722 l 1
 527 668 l 1
 512 668 l 2
 460 668 438 664 426 653 c 0
 417 645 416 641 399 578 c 2
 260 60 l 1
 521 60 l 1
 660 578 l 2
 671 621 676 636 676 644 c 0
 676 648 675 650 673 653 c 0
 667 664 646 668 594 668 c 2
 579 668 l 1
 593 722 l 1
 982 722 l 1
 968 668 l 1
 953 668 l 2
 901 668 879 664 867 653 c 0
 858 645 857 641 840 578 c 2
 724 145 l 2
 712 100 708 85 708 77 c 0
 708 73 709 71 710 69 c 0
 717 58 736 54 788 54 c 2
 803 54 l 1
 746 -222 l 1
 693 -222 l 1
 694 -212 694 -202 694 -193 c 0
 694 -111 667 -50 617 -21 c 0
 591 -5 564 0 493 0 c 2
EndSplineSet
EndChar

StartChar: afii10041
Encoding: 1063 1063 468
Width: 894
Flags: MW
LayerCount: 2
Fore
SplineSet
540 303 m 1
 500 262 447 240 369 240 c 0
 287 241 136 253 136 351 c 0
 136 361 137 371 140 382 c 2
 191 577 l 2
 202 620 207 636 207 644 c 0
 207 648 206 650 204 653 c 0
 198 664 178 668 126 668 c 2
 111 668 l 1
 125 722 l 1
 514 722 l 1
 500 668 l 1
 485 668 l 2
 433 668 410 664 398 653 c 0
 389 645 388 641 371 577 c 2
 320 382 l 2
 319 378 319 375 319 371 c 0
 319 338 354 301 394 300 c 1
 452 301 515 326 556 363 c 1
 613 577 l 2
 624 621 628 636 628 645 c 0
 628 648 628 651 626 653 c 0
 620 664 600 668 548 668 c 2
 533 668 l 1
 547 722 l 1
 936 722 l 1
 922 668 l 1
 907 668 l 2
 855 668 832 664 820 653 c 0
 811 645 810 641 793 577 c 2
 677 144 l 2
 665 101 661 85 661 77 c 0
 661 74 662 72 663 69 c 0
 670 58 690 54 742 54 c 2
 757 54 l 1
 743 0 l 1
 354 0 l 1
 368 54 l 1
 383 54 l 2
 435 54 458 58 469 69 c 1
 479 77 480 81 497 144 c 2
 540 303 l 1
EndSplineSet
EndChar

StartChar: afii10042
Encoding: 1064 1064 469
Width: 1304
Flags: MW
LayerCount: 2
Fore
SplineSet
663 60 m 1
 884 60 l 1
 1023 578 l 2
 1034 620 1039 636 1039 644 c 0
 1039 648 1038 650 1036 653 c 0
 1030 664 1020 668 968 668 c 2
 953 668 l 1
 967 722 l 1
 1346 722 l 1
 1332 668 l 1
 1317 668 l 2
 1265 668 1242 664 1230 653 c 0
 1221 645 1220 642 1203 578 c 2
 1087 145 l 2
 1075 100 1071 85 1071 77 c 0
 1071 73 1072 71 1073 69 c 0
 1080 58 1100 54 1152 54 c 2
 1167 54 l 1
 1153 0 l 1
 -41 0 l 1
 -27 54 l 1
 -12 54 l 2
 40 54 63 58 74 69 c 1
 84 77 85 81 102 145 c 2
 218 578 l 2
 229 620 234 636 234 644 c 0
 234 648 233 650 231 653 c 0
 225 664 205 668 153 668 c 2
 138 668 l 1
 152 722 l 1
 531 722 l 1
 517 668 l 1
 502 668 l 2
 450 668 437 664 425 653 c 0
 416 645 415 642 398 578 c 2
 259 60 l 1
 483 60 l 1
 622 578 l 2
 633 620 638 636 638 644 c 0
 638 648 637 650 635 653 c 0
 629 664 619 668 567 668 c 2
 552 668 l 1
 566 722 l 1
 935 722 l 1
 921 668 l 1
 906 668 l 2
 854 668 841 664 829 653 c 0
 820 645 819 642 802 578 c 2
 663 60 l 1
EndSplineSet
EndChar

StartChar: afii10043
Encoding: 1065 1065 470
Width: 1304
Flags: MW
LayerCount: 2
Fore
SplineSet
857 0 m 2
 -41 0 l 1
 -27 54 l 1
 -12 54 l 2
 40 54 63 58 74 69 c 1
 84 77 85 81 102 145 c 2
 218 578 l 2
 229 620 234 636 234 644 c 0
 234 648 233 650 231 653 c 0
 225 664 205 668 153 668 c 2
 138 668 l 1
 152 722 l 1
 531 722 l 1
 517 668 l 1
 502 668 l 2
 450 668 437 664 425 653 c 0
 416 645 415 642 398 578 c 2
 259 60 l 1
 483 60 l 1
 622 578 l 2
 633 620 638 636 638 644 c 0
 638 648 637 650 635 653 c 0
 629 664 619 668 567 668 c 2
 552 668 l 1
 566 722 l 1
 935 722 l 1
 921 668 l 1
 906 668 l 2
 854 668 841 664 829 653 c 0
 820 645 819 642 802 578 c 2
 663 60 l 1
 884 60 l 1
 1023 578 l 2
 1034 620 1039 636 1039 644 c 0
 1039 648 1038 650 1036 653 c 0
 1030 664 1020 668 968 668 c 2
 953 668 l 1
 967 722 l 1
 1346 722 l 1
 1332 668 l 1
 1317 668 l 2
 1265 668 1242 664 1230 653 c 0
 1221 645 1220 642 1203 578 c 2
 1087 145 l 2
 1075 100 1071 85 1071 77 c 0
 1071 73 1072 71 1073 69 c 0
 1080 58 1100 54 1152 54 c 2
 1167 54 l 1
 1110 -222 l 1
 1057 -222 l 1
 1058 -212 1058 -202 1058 -193 c 0
 1058 -111 1031 -50 981 -21 c 0
 955 -5 928 0 857 0 c 2
EndSplineSet
EndChar

StartChar: afii10044
Encoding: 1066 1066 471
Width: 868
Flags: MW
LayerCount: 2
Fore
SplineSet
132 722 m 1
 665 722 l 1
 650 668 l 1
 628 668 l 2
 575 668 553 664 541 654 c 1
 532 645 531 642 514 578 c 2
 470 412 l 1
 582 412 l 2
 759 412 849 361 849 260 c 0
 849 242 846 222 840 201 c 0
 820 126 767 65 695 35 c 0
 634 10 572 0 472 0 c 2
 75 0 l 1
 90 55 l 1
 105 55 l 2
 157 55 179 59 191 69 c 1
 200 78 201 81 218 145 c 2
 348 629 l 2
 351 639 352 647 352 653 c 0
 352 667 344 670 323 670 c 0
 277 670 233 647 188 599 c 0
 154 564 130 525 97 451 c 1
 44 451 l 1
 132 722 l 1
455 357 m 1
 390 115 l 2
 386 101 384 90 384 81 c 0
 384 61 397 55 429 55 c 2
 469 55 l 2
 564 55 620 100 647 200 c 0
 654 226 657 247 657 266 c 0
 657 332 613 357 513 357 c 2
 455 357 l 1
EndSplineSet
EndChar

